<?xml version="1.0" encoding="utf-8"?>
<!-- Generator: Adobe Illustrator 21.0.2, SVG Export Plug-In . SVG Version: 6.00 Build 0)  -->
<svg version="1.1" id="Layer_1" xmlns="http://www.w3.org/2000/svg" xmlns:xlink="http://www.w3.org/1999/xlink" x="0px" y="0px"
	 viewBox="0 0 389.8 258.3" style="enable-background:new 0 0 389.8 258.3;" xml:space="preserve">
<style type="text/css">
	.st0{fill:#E0E0E0;}
	.st1{fill:#FFFFFF;fill-opacity:0;}
	.st2{fill-opacity:0;stroke:#FFFFFF;stroke-width:2;}
	.st3{fill:#FFFFFF;}
	.st4{fill:#FFFFFF;fill-opacity:0.6;}
	.st5{fill:#FFFFFF;fill-opacity:0.7;}
	.st6{fill-opacity:0;stroke:#FFFFFF;stroke-width:2;stroke-opacity:0.6;}
	.st7{fill:#CFCFCF;}
	.st8{fill:#F5F5F5;}
	.st9{fill:#AAA9A9;}
	.st10{fill:#928989;}
	.st11{fill:#29CE42;}
	.st12{fill:#FFBE2F;}
	.st13{fill:#FF6159;}
	.st14{fill:#E1E1E1;}
	.st15{fill:#DDDDDD;}
	.st16{fill:#DBDBDB;}
	.st17{fill:#F23535;}
</style>
<path id="k1vuQ6heHA" class="st0" d="M251.5,127.9h17v3.4h-17V127.9z"/>
<path id="a3T7gSgDpA" class="st1" d="M20.9,141.5c0,1.4-1.1,2.5-2.5,2.5s-2.5-1.1-2.5-2.5s1.1-2.5,2.5-2.5S20.9,140.2,20.9,141.5z"
	/>
<path id="a3T7gSgDpA_1_" class="st2" d="M20.9,141.5c0,1.4-1.1,2.5-2.5,2.5s-2.5-1.1-2.5-2.5s1.1-2.5,2.5-2.5S20.9,140.2,20.9,141.5
	z"/>
<path id="a3rqobw86B" class="st3" d="M55.5,79.6L55.5,79.6L55.5,79.6L55.5,79.6L55.5,79.6L55.5,79.6L55.5,79.6L55.5,79.6L55.5,79.6
	L55.5,79.6L55.5,79.6L55.5,79.6L55.5,79.6L55.5,79.6L55.5,79.6L55.5,79.6L55.5,79.6L55.5,79.6L55.5,79.6L55.5,79.6L55.5,79.6
	L55.5,79.6L55.5,79.6L55.5,79.6L55.5,79.6L55.5,79.6L55.5,79.6L55.5,79.6L55.5,79.6L55.5,79.6L55.5,79.6L55.5,79.6L55.5,79.6
	L55.5,79.6L55.5,79.6L55.5,79.6L55.5,79.6L55.5,79.6L55.5,79.6l0.1,3h2.9l0,0l0,0l0,0l0,0l0,0l0,0l0,0l0,0l0,0l0,0l0,0l0,0l0,0l0,0
	l0,0l0,0l0,0l0,0l0,0l0,0l0,0l0,0l0,0l0,0l0,0l0,0l0,0l0,0l0,0l0,0l0,0l0,0l0,0l0,0l0,0l0,0l0,0l0,0l0,0l0,0v2.3l0,0l0,0l0,0l0,0
	l0,0l0,0l0,0l0,0l0,0l0,0l0,0l0,0l0,0l0,0l0,0l0,0l0,0l0,0l0,0l0,0l0,0l0,0l0,0l0,0l0,0l0,0l0,0l0,0l0,0l0,0l0,0l0,0l0,0l0,0l0,0
	l0,0l0,0l0,0l0,0l0,0h-2.9v2.9l0,0l0,0l0,0l0,0l0,0l0,0l0,0l0,0l0,0l0,0l0,0l0,0l0,0l0,0l0,0l0,0l0,0l0,0l0,0l0,0l0,0l0,0l0,0l0,0
	l0,0l0,0l0,0l0,0l0,0l0,0l0,0l0,0l0,0l0,0l0,0l0,0l0,0l0,0l0,0l0,0h-2.4l0,0l0,0l0,0l0,0l0,0l0,0l0,0l0,0l0,0l0,0l0,0l0,0l0,0l0,0
	l0,0l0,0l0,0l0,0l0,0l0,0l0,0l0,0l0,0l0,0l0,0l0,0l0,0l0,0l0,0l0,0l0,0l0,0l0,0l0,0l0,0l0,0l0,0l0,0l0,0l0,0v-2.9h-3l0,0l0,0l0,0
	l0,0l0,0l0,0l0,0l0,0l0,0l0,0l0,0l0,0l0,0l0,0l0,0l0,0l0,0l0,0l0,0l0,0l0,0l0,0l0,0l0,0l0,0l0,0l0,0l0,0l0,0l0,0l0,0l0,0l0,0l0,0
	l0,0l0,0l0,0l0,0l0,0l0,0v-2.3l0,0l0,0l0,0l0,0l0,0l0,0l0,0l0,0l0,0l0,0l0,0l0,0l0,0l0,0l0,0l0,0l0,0l0,0l0,0l0,0l0,0l0,0l0,0l0,0
	l0,0l0,0l0,0l0,0l0,0l0,0l0,0l0,0l0,0l0,0l0,0l0,0l0,0l0,0l0,0l0,0h2.9v-2.9l0,0l0,0l0,0l0,0l0,0l0,0l0,0l0,0l0,0l0,0l0,0l0,0l0,0
	l0,0l0,0l0,0l0,0l0,0l0,0l0,0l0,0l0,0l0,0l0,0l0,0l0,0l0,0l0,0l0,0l0,0l0,0l0,0l0,0l0,0l0,0l0,0l0,0l0,0l0,0l0,0L55.5,79.6
	L55.5,79.6L55.5,79.6z"/>
<path id="a3i3TBHvpT" class="st4" d="M311.8,99.1l2.6,2.6l-1.4,1.4l-2.5-2.6l-2.5,2.6l-1.4-1.4l2.6-2.6l-2.6-2.6l1.4-1.4l2.5,2.6
	l2.5-2.6l1.4,1.4L311.8,99.1z"/>
<path id="b1Cw3HZSy4" class="st3" d="M339.9,117.3L339.9,117.3L339.9,117.3L339.9,117.3L339.9,117.3L339.9,117.3L339.9,117.3
	L339.9,117.3L339.9,117.3L339.9,117.3L339.9,117.3L339.9,117.3L339.9,117.3L339.9,117.3L339.9,117.3L339.9,117.3L339.9,117.3
	L339.9,117.3L339.9,117.3L339.9,117.3l0.1,0.1l0,0l0,0l0,0l0,0l0,0l0,0l0,0l0,0l0,0l0,0l0,0l0,0l0,0l0,0l0,0l0,0l0,0l0,0v2.9h2.9
	l0,0l0,0l0,0l0,0l0,0l0,0l0,0l0,0l0,0l0,0l0,0l0,0l0,0l0,0l0,0l0,0l0,0l0,0l0,0l0,0l0,0l0,0l0,0l0,0l0,0l0,0l0,0l0,0l0,0l0,0l0,0
	l0,0l0,0l0,0l0,0l0,0l0,0l0,0l0,0l0,0v2.3l0,0l0,0l0,0l0,0l0,0l0,0l0,0l0,0l0,0l0,0l0,0l0,0l0,0l0,0l0,0l0,0l0,0l0,0l0,0l0,0l0,0
	l0,0l0,0l0,0l0,0l0,0l0,0l0,0l0,0l0,0l0,0l0,0l0,0l0,0l0,0l0,0l0,0l0,0l0,0l0,0H340v2.9l0,0l0,0l0,0l0,0l0,0l0,0l0,0l0,0l0,0l0,0
	l0,0l0,0l0,0l0,0l0,0l0,0l0,0l0,0l0,0l0,0l0,0l0,0l0,0l0,0l0,0l0,0l0,0l0,0l0,0l0,0l0,0l0,0l0,0l0,0l0,0l0,0l0,0l0,0l0,0l0,0h-2.3
	l0,0l0,0l0,0l0,0l0,0l0,0l0,0l0,0l0,0l0,0l0,0l0,0l0,0l0,0l0,0l0,0l0,0l0,0l0,0l0,0l0,0l0,0l0,0l0,0l0,0l0,0l0,0l0,0l0,0l0,0l0,0
	l0,0l0,0l0,0l0,0l0,0l0,0l0,0l0,0l0,0v-2.9h-2.9l0,0l0,0l0,0l0,0l0,0l0,0l0,0l0,0l0,0l0,0l0,0l0,0l0,0l0,0l0,0l0,0l0,0l0,0l0,0l0,0
	l0,0l0,0l0,0l0,0l0,0l0,0l0,0l0,0l0,0l0,0l0,0l0,0l0,0l0,0l0,0l0,0l0,0l0,0l0,0l0,0v-2.3l0,0l0,0l0,0l0,0l0,0l0,0l0,0l0,0l0,0l0,0
	l0,0l0,0l0,0l0,0l0,0l0,0l0,0l0,0l0,0l0,0l0,0l0,0l0,0l0,0l0,0l0,0l0,0l0,0l0,0l0,0l0,0l0,0l0,0l0,0l0,0l0,0l0,0l0,0l0,0l0,0h2.9
	v-2.9l0,0l0,0l0,0l0,0l0,0l0,0l0,0l0,0l0,0l0,0l0,0l0,0l0,0l0,0l0,0l0,0l0,0l0,0l0,0l0,0l0,0l0,0l0,0l0,0l0,0l0,0l0,0l0,0l0,0l0,0
	l0,0l0,0l0,0l0,0l0,0l0,0l0,0l0,0l0,0l0,0L339.9,117.3L339.9,117.3L339.9,117.3z"/>
<g>
	<g>
		<g>
			<path id="b387TzRjN" class="st5" d="M69.8,59.5h5v1.7h-5V59.5z"/>
		</g>
	</g>
	<g>
		<g>
			<path id="b3Pz8DlfVx" class="st5" d="M88.4,56.6h5v1.7h-5V56.6z"/>
		</g>
	</g>
	<g>
		<g>
			<path id="b7p8yE9bCx" class="st5" d="M83.5,47v5h-1.7v-5H83.5z"/>
		</g>
	</g>
	<g>
		<g>
			<path id="a1A7s7jtY9" class="st5" d="M80.6,65.6v5h-1.7v-5H80.6z"/>
		</g>
	</g>
	<g>
		<g>
			<path id="bWQmLypm7" class="st3" d="M85.6,62.1l5.3,4.8l-1.1,1.3l-5.3-4.8L85.6,62.1z"/>
		</g>
	</g>
	<g>
		<g>
			<path id="a6Ooopm1vE" class="st3" d="M84.6,54.5l5.1-5l1.2,1.2l-5,5L84.6,54.5z"/>
		</g>
	</g>
	<g>
		<g>
			<path id="h7zRW9Q6tP" class="st3" d="M71.6,67.1l5-5.1l1.2,1.2l-5.1,5.1L71.6,67.1z"/>
		</g>
	</g>
	<g>
		<g>
			<path id="bsNXie33o" class="st3" d="M72.7,49l5.3,4.8L76.8,55l-5.3-4.8L72.7,49z"/>
		</g>
	</g>
</g>
<g>
	<g>
		<path id="e7z7DsqZIg" class="st1" d="M128.9,58.6c0,1.4-1.1,2.5-2.5,2.5s-2.5-1.1-2.5-2.5s1.1-2.5,2.5-2.5S128.9,57.2,128.9,58.6z
			"/>
	</g>
	<g>
		<g>
			<path id="e7z7DsqZIg_1_" class="st6" d="M128.9,58.6c0,1.4-1.1,2.5-2.5,2.5s-2.5-1.1-2.5-2.5s1.1-2.5,2.5-2.5
				S128.9,57.2,128.9,58.6z"/>
		</g>
	</g>
</g>
<g>
	<g>
		<path id="a54YjONuRf" class="st1" d="M308.9,178.6c0,1.4-1.1,2.5-2.5,2.5s-2.5-1.1-2.5-2.5s1.1-2.5,2.5-2.5
			S308.9,177.2,308.9,178.6z"/>
	</g>
	<g>
		<g>
			<path id="a54YjONuRf_1_" class="st6" d="M308.9,178.6c0,1.4-1.1,2.5-2.5,2.5s-2.5-1.1-2.5-2.5s1.1-2.5,2.5-2.5
				S308.9,177.2,308.9,178.6z"/>
		</g>
	</g>
</g>
<path id="d1sANB3sAK" class="st4" d="M302.6,161.8c0,59.4-48.3,107.7-107.7,107.7S87.2,221.2,87.2,161.8S135.5,54.1,194.9,54.1
	S302.6,102.3,302.6,161.8z"/>
<path class="st7" d="M287.6,126.4H102.2c-1.7,0-3-1.3-3-3V73.2c0-1.7,1.3-3,3-3h185.4c1.6,0,3,1.3,3,3v50.1
	C290.6,125,289.2,126.4,287.6,126.4z"/>
<path id="aUIlDAYpW" class="st4" d="M51.8,129.1l2.5,2.6l-1.4,1.4l-2.6-2.5l-2.6,2.5l-1.4-1.4l2.6-2.6l-2.6-2.6l1.4-1.4l2.6,2.6
	l2.6-2.6l1.4,1.4L51.8,129.1z"/>
<path id="a9cCXwMBVK" class="st3" d="M61.2,139l2.6,2.6l-1.4,1.4l-2.6-2.6l-2.6,2.6l-1.4-1.4l2.6-2.6l-2.6-2.5l1.4-1.4l2.6,2.5
	l2.6-2.5l1.4,1.4L61.2,139z"/>
<rect x="99.2" y="88.2" class="st3" width="191.4" height="123"/>
<path id="fi5UrN0UY" class="st8" d="M99.2,96.7h40v114.5h-40V96.7z"/>
<path id="a2v8MS66KQ" class="st0" d="M99.2,96.7h40v6.5h-40V96.7z"/>
<path id="c3lpVMEMK5" class="st0" d="M108.8,111.3h20.6v3.4h-20.6C108.8,114.7,108.8,111.3,108.8,111.3z"/>
<path id="b2v1WVoxE" class="st0" d="M108.8,117.8h13.4v3.4h-13.4V117.8z"/>
<path id="b1Lm4O85n" class="st0" d="M108.8,104.8h17v3.4h-17C108.8,108.2,108.8,104.8,108.8,104.8z"/>
<path id="a7XlN3xUF" class="st0" d="M108.8,124.3h17v3.4h-17C108.8,127.7,108.8,124.3,108.8,124.3z"/>
<path id="g1TQgcfaU2" class="st0" d="M102.9,124.3h3.9v3.4h-3.9V124.3z"/>
<path id="a3g4jiHyI9" class="st0" d="M102.9,117.8h3.9v3.4h-3.9V117.8z"/>
<path id="b1woQRe8M0" class="st0" d="M102.9,111.3h3.9v3.4h-3.9V111.3z"/>
<path id="a7tqKn31bJ" class="st0" d="M102.9,104.8h3.9v3.4h-3.9V104.8z"/>
<path id="fq8MmCHIA" class="st9" d="M103,98.2h3.9v3.4H103V98.2z"/>
<path id="c2htgdMzGl" class="st9" d="M108.8,98.2h8.7v3.4h-8.7V98.2z"/>
<path id="b38Pbcoie2" class="st0" d="M143.3,97.5h17v4.8h-17V97.5z"/>
<path id="h3cE96VDb" class="st0" d="M113.5,90.6h25.7V94h-25.7V90.6z"/>
<path id="c3kfpoJOO" class="st9" d="M101.8,90.6h3.9V94h-3.9V90.6z"/>
<path id="cqp8vEoSn" class="st0" d="M108.8,90.6h3.9V94h-3.9V90.6z"/>
<path id="a1r8fePXUi" class="st10" d="M99.2,96.7h191.4v-0.3H99.2V96.7z"/>
<g>
	<g>
		<g>
			<path id="c15AFVTrK1" class="st10" d="M280.7,91c0,0.3-0.2,0.6-0.6,0.6c-0.3,0-0.6-0.3-0.6-0.6c0-0.3,0.3-0.6,0.6-0.6
				S280.7,90.7,280.7,91z"/>
		</g>
	</g>
	<g>
		<g>
			<path id="c2SOCDPgs" class="st10" d="M280.7,92.3c0,0.3-0.2,0.6-0.6,0.6c-0.3,0-0.6-0.3-0.6-0.6c0-0.3,0.3-0.6,0.6-0.6
				C280.4,91.7,280.7,92,280.7,92.3z"/>
		</g>
	</g>
	<g>
		<g>
			<path id="a23dnB8rz" class="st10" d="M280.7,93.6c0,0.3-0.2,0.6-0.6,0.6c-0.3,0-0.6-0.3-0.6-0.6c0-0.3,0.3-0.6,0.6-0.6
				S280.7,93.3,280.7,93.6z"/>
		</g>
	</g>
</g>
<path id="b1lQqJAkCa" class="st4" d="M331.8,209.4l2.6,2.5l-1.4,1.4l-2.5-2.6l-2.5,2.6l-1.4-1.4l2.6-2.5l-2.6-2.5l1.4-1.4l2.5,2.6
	l2.5-2.6l1.4,1.4L331.8,209.4z"/>
<path id="aFD49aWMy" class="st3" d="M319.8,195l2.5,2.6l-1.4,1.4l-2.6-2.6l-2.5,2.6l-1.4-1.4l2.5-2.6l-2.5-2.5l1.4-1.4l2.5,2.5
	l2.6-2.5l1.4,1.4L319.8,195z"/>
<path id="d1sANB3sAK_3_" class="st3" d="M290.6,211.2c-17.9,34.6-54.1,58.3-95.7,58.3s-77.8-23.7-95.7-58.3"/>
<g>
	<g>
		<g>
			<path id="a1oqUmxFBM" class="st11" d="M121.9,74.9c0,1.4-1.1,2.5-2.5,2.5s-2.5-1.1-2.5-2.5s1.1-2.5,2.5-2.5
				S121.9,73.5,121.9,74.9z"/>
		</g>
	</g>
	<g>
		<g>
			<path id="g61cnRvLj" class="st12" d="M114.9,74.9c0,1.4-1.1,2.5-2.5,2.5s-2.5-1.1-2.5-2.5s1.1-2.5,2.5-2.5S114.9,73.5,114.9,74.9
				z"/>
		</g>
	</g>
	<g>
		<g>
			<path id="bpmZQbSe0" class="st13" d="M107.9,74.9c0,1.4-1.1,2.5-2.5,2.5s-2.5-1.1-2.5-2.5s1.1-2.5,2.5-2.5S107.9,73.5,107.9,74.9
				z"/>
		</g>
	</g>
</g>
<path id="d1sANB3sAK_4_" class="st8" d="M139.2,254c-17-10.3-30.9-25.1-40-42.8h40V254"/>
<path id="cCDiNVpfA" class="st14" d="M99.2,79.6h191.4v8.6H99.2V79.6z"/>
<rect x="117.9" y="81.6" class="st3" width="158.3" height="4.6"/>
<path id="bfThSeAAr" class="st9" d="M106.5,82.2h3.9v3.4h-3.9V82.2z"/>
<path id="ceuPKK2op" class="st9" d="M119.6,82.2h3.9v3.4h-3.9V82.2z"/>
<path id="e9AQj7K82" class="st9" d="M124.9,82.4h94.3v3.2h-94.3C124.9,85.6,124.9,82.4,124.9,82.4z"/>
<g>
	<path id="a2F2o7vEqL" class="st9" d="M278.1,82.2h3.9v3.4h-3.9V82.2z"/>
</g>
<g>
	<g>
		<g>
			<path id="co3X89MNx" class="st10" d="M286.8,82.6c0,0.3-0.2,0.6-0.6,0.6s-0.6-0.3-0.6-0.6c0-0.3,0.3-0.6,0.6-0.6
				S286.8,82.3,286.8,82.6z"/>
		</g>
	</g>
	<g>
		<g>
			<path id="b1QyAm5pfJ" class="st10" d="M286.8,83.9c0,0.3-0.2,0.6-0.6,0.6s-0.6-0.2-0.6-0.6c0-0.3,0.3-0.6,0.6-0.6
				S286.8,83.6,286.8,83.9z"/>
		</g>
	</g>
	<g>
		<g>
			<path id="a1eXzw4Y6P" class="st10" d="M286.8,85.2c0,0.3-0.2,0.6-0.6,0.6s-0.6-0.3-0.6-0.6c0-0.3,0.3-0.6,0.6-0.6
				S286.8,84.9,286.8,85.2z"/>
		</g>
	</g>
</g>
<path id="ashZatbz2" class="st9" d="M112.2,82.2h3.9v3.4h-3.9V82.2z"/>
<path id="a1TGpPgjxB" class="st9" d="M100.9,82.2h3.9v3.4h-3.9V82.2z"/>
<path id="byHeSIpom" class="st0" d="M269.2,98.4h3.9v3.4h-3.9V98.4z"/>
<path id="d1n2ZUuR7" class="st0" d="M274.2,98.4h3.9v3.4h-3.9V98.4z"/>
<path id="a1Y7GLiV75" class="st0" d="M210.7,105.7h51.6v32.7h-51.6V105.7z"/>
<path id="dBpCB9EKF" class="st0" d="M242.6,148h30.8v6h-30.8L242.6,148L242.6,148z"/>
<path id="f4fZjFd7N" class="st0" d="M143.3,182.7h10.8v3.4h-10.8V182.7z"/>
<path id="b24jnKNyfZ" class="st0" d="M248.3,98.4h17v3.4h-17L248.3,98.4L248.3,98.4z"/>
<path id="e2jiLShrAq" class="st0" d="M150.8,149.8h81.8v0.4h-81.8V149.8z"/>
<path id="m1GNGKoojn_1_" class="st0" d="M143.3,142h18.4v3.5h-18.4V142z"/>
<path id="a1gWbH5OC" class="st0" d="M164.2,193.2H175v3.4h-10.8V193.2z"/>
<path id="a4232WJJn" class="st0" d="M176.4,193.2h28v3.4h-28V193.2z"/>
<path id="bbuu7r9PQ" class="st0" d="M164.2,186.1H175v3.4h-10.8V186.1z"/>
<path id="f4fZjFd7N_1_" class="st0" d="M144.5,161.6h10.8v3.4h-10.8V161.6z"/>
<path id="a1gWbH5OC_1_" class="st0" d="M165.4,172.1h10.8v3.4h-10.8V172.1z"/>
<path id="a4232WJJn_1_" class="st0" d="M177.5,172.1h28v3.4h-28V172.1z"/>
<path id="bbuu7r9PQ_1_" class="st0" d="M165.4,165h10.8v3.4h-10.8V165z"/>
<path id="e3anmqredc" class="st15" d="M143.3,159.1h140v0.4h-140L143.3,159.1L143.3,159.1z"/>
<path id="f7F83mgf9" class="st16" d="M143.3,141.9h140v0.4h-140V141.9L143.3,141.9z"/>
<path id="ly6NDb0Es" class="st0" d="M146.3,106H203v32.4h-56.7V106z"/>
<path id="aocJ7Zovs" class="st17" d="M179.9,118.7c0.3,0,0.6,0.3,0.6,0.6c0,1.5,0,5.2,0,6.6c0,0.4-0.3,0.6-0.6,0.6
	c-2.2,0-8.4,0-10.6,0c-0.4,0-0.6-0.3-0.6-0.6c0-1.4,0-5.1,0-6.6c0-0.3,0.3-0.6,0.6-0.6C171.6,118.7,177.7,118.7,179.9,118.7z"/>
<path id="b1YodBm9uX" class="st3" d="M174.6,123.4l-1.5,0.9v-1.7v-1.7l1.5,0.9l1.5,0.8L174.6,123.4z"/>
<path id="d1n2ZUuR7_1_" class="st0" d="M279.1,98.4h3.9v3.4h-3.9V98.4z"/>
<path id="e3anmqredc_1_" class="st15" d="M143.3,179.5h140v0.4h-140L143.3,179.5L143.3,179.5z"/>
<path id="e2jiLShrAq_1_" class="st0" d="M150.8,153.4h60.9v0.4h-60.9V153.4z"/>
</svg>
