<?xml version="1.0" standalone="no"?>
<!DOCTYPE svg PUBLIC "-//W3C//DTD SVG 1.1//EN" "http://www.w3.org/Graphics/SVG/1.1/DTD/svg11.dtd" >
<svg xmlns="http://www.w3.org/2000/svg">
<metadata></metadata>
<defs>
<font id="jd_lcd_roundedregular" horiz-adv-x="766" >
<font-face units-per-em="2048" ascent="1638" descent="-410" />
<missing-glyph horiz-adv-x="768" />
<glyph horiz-adv-x="0" />
<glyph horiz-adv-x="0" />
<glyph unicode="&#xd;" horiz-adv-x="0" />
<glyph unicode=" "  horiz-adv-x="768" />
<glyph unicode="&#x09;" horiz-adv-x="768" />
<glyph unicode="&#xa0;" horiz-adv-x="768" />
<glyph unicode="!" horiz-adv-x="768" d="M268 60q0 15 14 32q13 16 34 16q15 0 32 -14q16 -16 16 -34q0 -20 -14 -34t-34 -14q-15 0 -32 14q-16 13 -16 34zM268 316q0 15 14 32q13 16 34 16q15 0 32 -14q16 -16 16 -34q0 -20 -14 -34t-34 -14q-15 0 -32 14q-16 13 -16 34zM268 444q0 15 14 32q13 16 34 16 q15 0 32 -14q16 -16 16 -34q0 -20 -14 -34t-34 -14q-15 0 -32 14q-16 13 -16 34zM268 572q0 15 14 32q13 16 34 16q15 0 32 -14q16 -16 16 -34q0 -20 -14 -34t-34 -14q-15 0 -32 14q-16 13 -16 34zM268 700q0 15 14 32q13 16 34 16q15 0 32 -14q16 -16 16 -34q0 -20 -14 -34 t-34 -14q-15 0 -32 14q-16 13 -16 34zM268 828q0 15 14 32q13 16 34 16q15 0 32 -14q16 -16 16 -34q0 -20 -14 -34t-34 -14q-15 0 -32 14q-16 13 -16 34z" />
<glyph unicode="&#x22;" horiz-adv-x="510" d="M12 700q0 15 14 32q13 16 34 16q15 0 32 -14q16 -16 16 -34q0 -20 -14 -34t-34 -14q-15 0 -32 14q-16 13 -16 34zM12 828q0 15 14 32q13 16 34 16q15 0 32 -14q16 -16 16 -34q0 -20 -14 -34t-34 -14q-15 0 -32 14q-16 13 -16 34zM268 700q0 15 14 32q13 16 34 16 q15 0 32 -14q16 -16 16 -34q0 -20 -14 -34t-34 -14q-15 0 -32 14q-16 13 -16 34zM268 828q0 15 14 32q13 16 34 16q15 0 32 -14q16 -16 16 -34q0 -20 -14 -34t-34 -14q-15 0 -32 14q-16 13 -16 34z" />
<glyph unicode="#" d="M12 188q0 15 14 32q13 16 34 16q15 0 32 -14q16 -16 16 -34q0 -20 -14 -34t-34 -14q-15 0 -32 14q-16 13 -16 34zM12 444q0 15 14 32q13 16 34 16q15 0 32 -14q16 -16 16 -34q0 -20 -14 -34t-34 -14q-15 0 -32 14q-16 13 -16 34zM140 60q0 15 14 32q13 16 34 16 q15 0 32 -14q16 -16 16 -34q0 -20 -14 -34t-34 -14q-15 0 -32 14q-16 13 -16 34zM140 188q0 15 14 32q13 16 34 16q15 0 32 -14q16 -16 16 -34q0 -20 -14 -34t-34 -14q-15 0 -32 14q-16 13 -16 34zM140 316q0 15 14 32q13 16 34 16q15 0 32 -14q16 -16 16 -34q0 -20 -14 -34 t-34 -14q-15 0 -32 14q-16 13 -16 34zM140 444q0 15 14 32q13 16 34 16q15 0 32 -14q16 -16 16 -34q0 -20 -14 -34t-34 -14q-15 0 -32 14q-16 13 -16 34zM140 572q0 15 14 32q13 16 34 16q15 0 32 -14q16 -16 16 -34q0 -20 -14 -34t-34 -14q-15 0 -32 14q-16 13 -16 34z M268 188q0 15 14 32q13 16 34 16q15 0 32 -14q16 -16 16 -34q0 -20 -14 -34t-34 -14q-15 0 -32 14q-16 13 -16 34zM268 444q0 15 14 32q13 16 34 16q15 0 32 -14q16 -16 16 -34q0 -20 -14 -34t-34 -14q-15 0 -32 14q-16 13 -16 34zM396 60q0 15 14 32q13 16 34 16 q15 0 32 -14q16 -16 16 -34q0 -20 -14 -34t-34 -14q-15 0 -32 14q-16 13 -16 34zM396 188q0 15 14 32q13 16 34 16q15 0 32 -14q16 -16 16 -34q0 -20 -14 -34t-34 -14q-15 0 -32 14q-16 13 -16 34zM396 316q0 15 14 32q13 16 34 16q15 0 32 -14q16 -16 16 -34q0 -20 -14 -34 t-34 -14q-15 0 -32 14q-16 13 -16 34zM396 444q0 15 14 32q13 16 34 16q15 0 32 -14q16 -16 16 -34q0 -20 -14 -34t-34 -14q-15 0 -32 14q-16 13 -16 34zM396 572q0 15 14 32q13 16 34 16q15 0 32 -14q16 -16 16 -34q0 -20 -14 -34t-34 -14q-15 0 -32 14q-16 13 -16 34z M524 188q0 15 14 32q13 16 34 16q15 0 32 -14q16 -16 16 -34q0 -20 -14 -34t-34 -14q-15 0 -32 14q-16 13 -16 34zM524 444q0 15 14 32q13 16 34 16q15 0 32 -14q16 -16 16 -34q0 -20 -14 -34t-34 -14q-15 0 -32 14q-16 13 -16 34z" />
<glyph unicode="$" d="M12 60q0 15 14 32q13 16 34 16q15 0 32 -14q16 -16 16 -34q0 -20 -14 -34t-34 -14q-15 0 -32 14q-16 13 -16 34zM12 444q0 15 14 32q13 16 34 16q15 0 32 -14q16 -16 16 -34q0 -20 -14 -34t-34 -14q-15 0 -32 14q-16 13 -16 34zM12 572q0 15 14 32q13 16 34 16 q15 0 32 -14q16 -16 16 -34q0 -20 -14 -34t-34 -14q-15 0 -32 14q-16 13 -16 34zM140 -66q0 15 14 32q13 16 34 16q15 0 32 -14q16 -16 16 -34q0 -20 -14 -34t-34 -14q-15 0 -32 14q-16 13 -16 34zM140 316q0 15 14 32q13 16 34 16q15 0 32 -14q16 -16 16 -34q0 -20 -14 -34 t-34 -14q-15 0 -32 14q-16 13 -16 34zM140 700q0 15 14 32q13 16 34 16q15 0 32 -14q16 -16 16 -34q0 -20 -14 -34t-34 -14q-15 0 -32 14q-16 13 -16 34zM268 60q0 15 14 32q13 16 34 16q15 0 32 -14q16 -16 16 -34q0 -20 -14 -34t-34 -14q-15 0 -32 14q-16 13 -16 34z M268 -66q0 15 14 32q13 16 34 16q15 0 32 -14q16 -16 16 -34q0 -20 -14 -34t-34 -14q-15 0 -32 14q-16 13 -16 34zM268 188q0 15 14 32q13 16 34 16q15 0 32 -14q16 -16 16 -34q0 -20 -14 -34t-34 -14q-15 0 -32 14q-16 13 -16 34zM268 -194q0 15 14 32q13 16 34 16 q15 0 32 -14q16 -16 16 -34q0 -20 -14 -34t-34 -14q-15 0 -32 14q-16 13 -16 34zM268 316q0 15 14 32q13 16 34 16q15 0 32 -14q16 -16 16 -34q0 -20 -14 -34t-34 -14q-15 0 -32 14q-16 13 -16 34zM268 444q0 15 14 32q13 16 34 16q15 0 32 -14q16 -16 16 -34q0 -20 -14 -34 t-34 -14q-15 0 -32 14q-16 13 -16 34zM268 572q0 15 14 32q13 16 34 16q15 0 32 -14q16 -16 16 -34q0 -20 -14 -34t-34 -14q-15 0 -32 14q-16 13 -16 34zM268 700q0 15 14 32q13 16 34 16q15 0 32 -14q16 -16 16 -34q0 -20 -14 -34t-34 -14q-15 0 -32 14q-16 13 -16 34z M268 828q0 15 14 32q13 16 34 16q15 0 32 -14q16 -16 16 -34q0 -20 -14 -34t-34 -14q-15 0 -32 14q-16 13 -16 34zM396 -66q0 15 14 32q13 16 34 16q15 0 32 -14q16 -16 16 -34q0 -20 -14 -34t-34 -14q-15 0 -32 14q-16 13 -16 34zM396 316q0 15 14 32q13 16 34 16 q15 0 32 -14q16 -16 16 -34q0 -20 -14 -34t-34 -14q-15 0 -32 14q-16 13 -16 34zM396 700q0 15 14 32q13 16 34 16q15 0 32 -14q16 -16 16 -34q0 -20 -14 -34t-34 -14q-15 0 -32 14q-16 13 -16 34zM524 60q0 15 14 32q13 16 34 16q15 0 32 -14q16 -16 16 -34q0 -20 -14 -34 t-34 -14q-15 0 -32 14q-16 13 -16 34zM524 188q0 15 14 32q13 16 34 16q15 0 32 -14q16 -16 16 -34q0 -20 -14 -34t-34 -14q-15 0 -32 14q-16 13 -16 34zM524 572q0 15 14 32q13 16 34 16q15 0 32 -14q16 -16 16 -34q0 -20 -14 -34t-34 -14q-15 0 -32 14q-16 13 -16 34z" />
<glyph unicode="%" d="M12 60q0 15 14 32q13 16 34 16q15 0 32 -14q16 -16 16 -34q0 -20 -14 -34t-34 -14q-15 0 -32 14q-16 13 -16 34zM12 444q0 15 14 32q13 16 34 16q15 0 32 -14q16 -16 16 -34q0 -20 -14 -34t-34 -14q-15 0 -32 14q-16 13 -16 34zM12 572q0 15 14 32q13 16 34 16 q15 0 32 -14q16 -16 16 -34q0 -20 -14 -34t-34 -14q-15 0 -32 14q-16 13 -16 34zM140 188q0 15 14 32q13 16 34 16q15 0 32 -14q16 -16 16 -34q0 -20 -14 -34t-34 -14q-15 0 -32 14q-16 13 -16 34zM140 444q0 15 14 32q13 16 34 16q15 0 32 -14q16 -16 16 -34q0 -20 -14 -34 t-34 -14q-15 0 -32 14q-16 13 -16 34zM140 572q0 15 14 32q13 16 34 16q15 0 32 -14q16 -16 16 -34q0 -20 -14 -34t-34 -14q-15 0 -32 14q-16 13 -16 34zM268 316q0 15 14 32q13 16 34 16q15 0 32 -14q16 -16 16 -34q0 -20 -14 -34t-34 -14q-15 0 -32 14q-16 13 -16 34z M396 60q0 15 14 32q13 16 34 16q15 0 32 -14q16 -16 16 -34q0 -20 -14 -34t-34 -14q-15 0 -32 14q-16 13 -16 34zM396 188q0 15 14 32q13 16 34 16q15 0 32 -14q16 -16 16 -34q0 -20 -14 -34t-34 -14q-15 0 -32 14q-16 13 -16 34zM396 444q0 15 14 32q13 16 34 16 q15 0 32 -14q16 -16 16 -34q0 -20 -14 -34t-34 -14q-15 0 -32 14q-16 13 -16 34zM524 60q0 15 14 32q13 16 34 16q15 0 32 -14q16 -16 16 -34q0 -20 -14 -34t-34 -14q-15 0 -32 14q-16 13 -16 34zM524 188q0 15 14 32q13 16 34 16q15 0 32 -14q16 -16 16 -34q0 -20 -14 -34 t-34 -14q-15 0 -32 14q-16 13 -16 34zM524 572q0 15 14 32q13 16 34 16q15 0 32 -14q16 -16 16 -34q0 -20 -14 -34t-34 -14q-15 0 -32 14q-16 13 -16 34z" />
<glyph unicode="&#x26;" d="M12 188q0 15 14 32q13 16 34 16q15 0 32 -14q16 -16 16 -34q0 -20 -14 -34t-34 -14q-15 0 -32 14q-16 13 -16 34zM12 316q0 15 14 32q13 16 34 16q15 0 32 -14q16 -16 16 -34q0 -20 -14 -34t-34 -14q-15 0 -32 14q-16 13 -16 34zM12 572q0 15 14 32q13 16 34 16 q15 0 32 -14q16 -16 16 -34q0 -20 -14 -34t-34 -14q-15 0 -32 14q-16 13 -16 34zM140 60q0 15 14 32q13 16 34 16q15 0 32 -14q16 -16 16 -34q0 -20 -14 -34t-34 -14q-15 0 -32 14q-16 13 -16 34zM140 444q0 15 14 32q13 16 34 16q15 0 32 -14q16 -16 16 -34q0 -20 -14 -34 t-34 -14q-15 0 -32 14q-16 13 -16 34zM140 700q0 15 14 32q13 16 34 16q15 0 32 -14q16 -16 16 -34q0 -20 -14 -34t-34 -14q-15 0 -32 14q-16 13 -16 34zM268 60q0 15 14 32q13 16 34 16q15 0 32 -14q16 -16 16 -34q0 -20 -14 -34t-34 -14q-15 0 -32 14q-16 13 -16 34z M268 316q0 15 14 32q13 16 34 16q15 0 32 -14q16 -16 16 -34q0 -20 -14 -34t-34 -14q-15 0 -32 14q-16 13 -16 34zM268 572q0 15 14 32q13 16 34 16q15 0 32 -14q16 -16 16 -34q0 -20 -14 -34t-34 -14q-15 0 -32 14q-16 13 -16 34zM396 188q0 15 14 32q13 16 34 16 q15 0 32 -14q16 -16 16 -34q0 -20 -14 -34t-34 -14q-15 0 -32 14q-16 13 -16 34zM524 60q0 15 14 32q13 16 34 16q15 0 32 -14q16 -16 16 -34q0 -20 -14 -34t-34 -14q-15 0 -32 14q-16 13 -16 34zM524 316q0 15 14 32q13 16 34 16q15 0 32 -14q16 -16 16 -34q0 -20 -14 -34 t-34 -14q-15 0 -32 14q-16 13 -16 34z" />
<glyph unicode="'" horiz-adv-x="254" d="M12 700q0 15 14 32q13 16 34 16q15 0 32 -14q16 -16 16 -34q0 -20 -14 -34t-34 -14q-15 0 -32 14q-16 13 -16 34zM12 828q0 15 14 32q13 16 34 16q15 0 32 -14q16 -16 16 -34q0 -20 -14 -34t-34 -14q-15 0 -32 14q-16 13 -16 34z" />
<glyph unicode="(" horiz-adv-x="382" d="M12 188q0 15 14 32q13 16 34 16q15 0 32 -14q16 -16 16 -34q0 -20 -14 -34t-34 -14q-15 0 -32 14q-16 13 -16 34zM12 316q0 15 14 32q13 16 34 16q15 0 32 -14q16 -16 16 -34q0 -20 -14 -34t-34 -14q-15 0 -32 14q-16 13 -16 34zM12 444q0 15 14 32q13 16 34 16 q15 0 32 -14q16 -16 16 -34q0 -20 -14 -34t-34 -14q-15 0 -32 14q-16 13 -16 34zM12 572q0 15 14 32q13 16 34 16q15 0 32 -14q16 -16 16 -34q0 -20 -14 -34t-34 -14q-15 0 -32 14q-16 13 -16 34zM12 700q0 15 14 32q13 16 34 16q15 0 32 -14q16 -16 16 -34q0 -20 -14 -34 t-34 -14q-15 0 -32 14q-16 13 -16 34zM140 60q0 15 14 32q13 16 34 16q15 0 32 -14q16 -16 16 -34q0 -20 -14 -34t-34 -14q-15 0 -32 14q-16 13 -16 34zM140 828q0 15 14 32q13 16 34 16q15 0 32 -14q16 -16 16 -34q0 -20 -14 -34t-34 -14q-15 0 -32 14q-16 13 -16 34z" />
<glyph unicode=")" horiz-adv-x="382" d="M12 60q0 15 14 32q13 16 34 16q15 0 32 -14q16 -16 16 -34q0 -20 -14 -34t-34 -14q-15 0 -32 14q-16 13 -16 34zM12 828q0 15 14 32q13 16 34 16q15 0 32 -14q16 -16 16 -34q0 -20 -14 -34t-34 -14q-15 0 -32 14q-16 13 -16 34zM140 188q0 15 14 32q13 16 34 16 q15 0 32 -14q16 -16 16 -34q0 -20 -14 -34t-34 -14q-15 0 -32 14q-16 13 -16 34zM140 316q0 15 14 32q13 16 34 16q15 0 32 -14q16 -16 16 -34q0 -20 -14 -34t-34 -14q-15 0 -32 14q-16 13 -16 34zM140 444q0 15 14 32q13 16 34 16q15 0 32 -14q16 -16 16 -34q0 -20 -14 -34 t-34 -14q-15 0 -32 14q-16 13 -16 34zM140 572q0 15 14 32q13 16 34 16q15 0 32 -14q16 -16 16 -34q0 -20 -14 -34t-34 -14q-15 0 -32 14q-16 13 -16 34zM140 700q0 15 14 32q13 16 34 16q15 0 32 -14q16 -16 16 -34q0 -20 -14 -34t-34 -14q-15 0 -32 14q-16 13 -16 34z" />
<glyph unicode="*" d="M12 188q0 15 14 32q13 16 34 16q15 0 32 -14q16 -16 16 -34q0 -20 -14 -34t-34 -14q-15 0 -32 14q-16 13 -16 34zM12 444q0 15 14 32q13 16 34 16q15 0 32 -14q16 -16 16 -34q0 -20 -14 -34t-34 -14q-15 0 -32 14q-16 13 -16 34zM12 700q0 15 14 32q13 16 34 16 q15 0 32 -14q16 -16 16 -34q0 -20 -14 -34t-34 -14q-15 0 -32 14q-16 13 -16 34zM140 316q0 15 14 32q13 16 34 16q15 0 32 -14q16 -16 16 -34q0 -20 -14 -34t-34 -14q-15 0 -32 14q-16 13 -16 34zM140 444q0 15 14 32q13 16 34 16q15 0 32 -14q16 -16 16 -34q0 -20 -14 -34 t-34 -14q-15 0 -32 14q-16 13 -16 34zM140 572q0 15 14 32q13 16 34 16q15 0 32 -14q16 -16 16 -34q0 -20 -14 -34t-34 -14q-15 0 -32 14q-16 13 -16 34zM268 188q0 15 14 32q13 16 34 16q15 0 32 -14q16 -16 16 -34q0 -20 -14 -34t-34 -14q-15 0 -32 14q-16 13 -16 34z M268 316q0 15 14 32q13 16 34 16q15 0 32 -14q16 -16 16 -34q0 -20 -14 -34t-34 -14q-15 0 -32 14q-16 13 -16 34zM268 444q0 15 14 32q13 16 34 16q15 0 32 -14q16 -16 16 -34q0 -20 -14 -34t-34 -14q-15 0 -32 14q-16 13 -16 34zM268 572q0 15 14 32q13 16 34 16 q15 0 32 -14q16 -16 16 -34q0 -20 -14 -34t-34 -14q-15 0 -32 14q-16 13 -16 34zM268 700q0 15 14 32q13 16 34 16q15 0 32 -14q16 -16 16 -34q0 -20 -14 -34t-34 -14q-15 0 -32 14q-16 13 -16 34zM396 316q0 15 14 32q13 16 34 16q15 0 32 -14q16 -16 16 -34q0 -20 -14 -34 t-34 -14q-15 0 -32 14q-16 13 -16 34zM396 444q0 15 14 32q13 16 34 16q15 0 32 -14q16 -16 16 -34q0 -20 -14 -34t-34 -14q-15 0 -32 14q-16 13 -16 34zM396 572q0 15 14 32q13 16 34 16q15 0 32 -14q16 -16 16 -34q0 -20 -14 -34t-34 -14q-15 0 -32 14q-16 13 -16 34z M524 188q0 15 14 32q13 16 34 16q15 0 32 -14q16 -16 16 -34q0 -20 -14 -34t-34 -14q-15 0 -32 14q-16 13 -16 34zM524 444q0 15 14 32q13 16 34 16q15 0 32 -14q16 -16 16 -34q0 -20 -14 -34t-34 -14q-15 0 -32 14q-16 13 -16 34zM524 700q0 15 14 32q13 16 34 16 q15 0 32 -14q16 -16 16 -34q0 -20 -14 -34t-34 -14q-15 0 -32 14q-16 13 -16 34z" />
<glyph unicode="+" d="M12 444q0 15 14 32q13 16 34 16q15 0 32 -14q16 -16 16 -34q0 -20 -14 -34t-34 -14q-15 0 -32 14q-16 13 -16 34zM140 444q0 15 14 32q13 16 34 16q15 0 32 -14q16 -16 16 -34q0 -20 -14 -34t-34 -14q-15 0 -32 14q-16 13 -16 34zM268 188q0 15 14 32q13 16 34 16 q15 0 32 -14q16 -16 16 -34q0 -20 -14 -34t-34 -14q-15 0 -32 14q-16 13 -16 34zM268 316q0 15 14 32q13 16 34 16q15 0 32 -14q16 -16 16 -34q0 -20 -14 -34t-34 -14q-15 0 -32 14q-16 13 -16 34zM268 444q0 15 14 32q13 16 34 16q15 0 32 -14q16 -16 16 -34q0 -20 -14 -34 t-34 -14q-15 0 -32 14q-16 13 -16 34zM268 572q0 15 14 32q13 16 34 16q15 0 32 -14q16 -16 16 -34q0 -20 -14 -34t-34 -14q-15 0 -32 14q-16 13 -16 34zM268 700q0 15 14 32q13 16 34 16q15 0 32 -14q16 -16 16 -34q0 -20 -14 -34t-34 -14q-15 0 -32 14q-16 13 -16 34z M396 444q0 15 14 32q13 16 34 16q15 0 32 -14q16 -16 16 -34q0 -20 -14 -34t-34 -14q-15 0 -32 14q-16 13 -16 34zM524 444q0 15 14 32q13 16 34 16q15 0 32 -14q16 -16 16 -34q0 -20 -14 -34t-34 -14q-15 0 -32 14q-16 13 -16 34z" />
<glyph unicode="," horiz-adv-x="382" d="M12 60q0 15 14 32q13 16 34 16q15 0 32 -14q16 -16 16 -34q0 -20 -14 -34t-34 -14q-15 0 -32 14q-16 13 -16 34zM12 188q0 15 14 32q13 16 34 16q15 0 32 -14q16 -16 16 -34q0 -20 -14 -34t-34 -14q-15 0 -32 14q-16 13 -16 34zM12 -194q0 15 14 32q13 16 34 16 q15 0 32 -14q16 -16 16 -34q0 -20 -14 -34t-34 -14q-15 0 -32 14q-16 13 -16 34zM140 60q0 15 14 32q13 16 34 16q15 0 32 -14q16 -16 16 -34q0 -20 -14 -34t-34 -14q-15 0 -32 14q-16 13 -16 34zM140 -66q0 15 14 32q13 16 34 16q15 0 32 -14q16 -16 16 -34q0 -20 -14 -34 t-34 -14q-15 0 -32 14q-16 13 -16 34zM140 188q0 15 14 32q13 16 34 16q15 0 32 -14q16 -16 16 -34q0 -20 -14 -34t-34 -14q-15 0 -32 14q-16 13 -16 34z" />
<glyph unicode="-" d="M12 444q0 15 14 32q13 16 34 16q15 0 32 -14q16 -16 16 -34q0 -20 -14 -34t-34 -14q-15 0 -32 14q-16 13 -16 34zM140 444q0 15 14 32q13 16 34 16q15 0 32 -14q16 -16 16 -34q0 -20 -14 -34t-34 -14q-15 0 -32 14q-16 13 -16 34zM268 444q0 15 14 32q13 16 34 16 q15 0 32 -14q16 -16 16 -34q0 -20 -14 -34t-34 -14q-15 0 -32 14q-16 13 -16 34zM396 444q0 15 14 32q13 16 34 16q15 0 32 -14q16 -16 16 -34q0 -20 -14 -34t-34 -14q-15 0 -32 14q-16 13 -16 34zM524 444q0 15 14 32q13 16 34 16q15 0 32 -14q16 -16 16 -34q0 -20 -14 -34 t-34 -14q-15 0 -32 14q-16 13 -16 34z" />
<glyph unicode="." horiz-adv-x="382" d="M12 60q0 15 14 32q13 16 34 16q15 0 32 -14q16 -16 16 -34q0 -20 -14 -34t-34 -14q-15 0 -32 14q-16 13 -16 34zM12 188q0 15 14 32q13 16 34 16q15 0 32 -14q16 -16 16 -34q0 -20 -14 -34t-34 -14q-15 0 -32 14q-16 13 -16 34zM140 60q0 15 14 32q13 16 34 16 q15 0 32 -14q16 -16 16 -34q0 -20 -14 -34t-34 -14q-15 0 -32 14q-16 13 -16 34zM140 188q0 15 14 32q13 16 34 16q15 0 32 -14q16 -16 16 -34q0 -20 -14 -34t-34 -14q-15 0 -32 14q-16 13 -16 34z" />
<glyph unicode="/" d="M12 60q0 15 14 32q13 16 34 16q15 0 32 -14q16 -16 16 -34q0 -20 -14 -34t-34 -14q-15 0 -32 14q-16 13 -16 34zM12 188q0 15 14 32q13 16 34 16q15 0 32 -14q16 -16 16 -34q0 -20 -14 -34t-34 -14q-15 0 -32 14q-16 13 -16 34zM140 316q0 15 14 32q13 16 34 16 q15 0 32 -14q16 -16 16 -34q0 -20 -14 -34t-34 -14q-15 0 -32 14q-16 13 -16 34zM268 444q0 15 14 32q13 16 34 16q15 0 32 -14q16 -16 16 -34q0 -20 -14 -34t-34 -14q-15 0 -32 14q-16 13 -16 34zM396 572q0 15 14 32q13 16 34 16q15 0 32 -14q16 -16 16 -34q0 -20 -14 -34 t-34 -14q-15 0 -32 14q-16 13 -16 34zM524 700q0 15 14 32q13 16 34 16q15 0 32 -14q16 -16 16 -34q0 -20 -14 -34t-34 -14q-15 0 -32 14q-16 13 -16 34zM524 828q0 15 14 32q13 16 34 16q15 0 32 -14q16 -16 16 -34q0 -20 -14 -34t-34 -14q-15 0 -32 14q-16 13 -16 34z" />
<glyph unicode="0" d="M12 188q0 15 14 32q13 16 34 16q15 0 32 -14q16 -16 16 -34q0 -20 -14 -34t-34 -14q-15 0 -32 14q-16 13 -16 34zM12 316q0 15 14 32q13 16 34 16q15 0 32 -14q16 -16 16 -34q0 -20 -14 -34t-34 -14q-15 0 -32 14q-16 13 -16 34zM12 444q0 15 14 32q13 16 34 16 q15 0 32 -14q16 -16 16 -34q0 -20 -14 -34t-34 -14q-15 0 -32 14q-16 13 -16 34zM12 572q0 15 14 32q13 16 34 16q15 0 32 -14q16 -16 16 -34q0 -20 -14 -34t-34 -14q-15 0 -32 14q-16 13 -16 34zM12 700q0 15 14 32q13 16 34 16q15 0 32 -14q16 -16 16 -34q0 -20 -14 -34 t-34 -14q-15 0 -32 14q-16 13 -16 34zM140 60q0 15 14 32q13 16 34 16q15 0 32 -14q16 -16 16 -34q0 -20 -14 -34t-34 -14q-15 0 -32 14q-16 13 -16 34zM140 316q0 15 14 32q13 16 34 16q15 0 32 -14q16 -16 16 -34q0 -20 -14 -34t-34 -14q-15 0 -32 14q-16 13 -16 34z M140 828q0 15 14 32q13 16 34 16q15 0 32 -14q16 -16 16 -34q0 -20 -14 -34t-34 -14q-15 0 -32 14q-16 13 -16 34zM268 60q0 15 14 32q13 16 34 16q15 0 32 -14q16 -16 16 -34q0 -20 -14 -34t-34 -14q-15 0 -32 14q-16 13 -16 34zM268 444q0 15 14 32q13 16 34 16 q15 0 32 -14q16 -16 16 -34q0 -20 -14 -34t-34 -14q-15 0 -32 14q-16 13 -16 34zM268 828q0 15 14 32q13 16 34 16q15 0 32 -14q16 -16 16 -34q0 -20 -14 -34t-34 -14q-15 0 -32 14q-16 13 -16 34zM396 60q0 15 14 32q13 16 34 16q15 0 32 -14q16 -16 16 -34q0 -20 -14 -34 t-34 -14q-15 0 -32 14q-16 13 -16 34zM396 572q0 15 14 32q13 16 34 16q15 0 32 -14q16 -16 16 -34q0 -20 -14 -34t-34 -14q-15 0 -32 14q-16 13 -16 34zM396 828q0 15 14 32q13 16 34 16q15 0 32 -14q16 -16 16 -34q0 -20 -14 -34t-34 -14q-15 0 -32 14q-16 13 -16 34z M524 188q0 15 14 32q13 16 34 16q15 0 32 -14q16 -16 16 -34q0 -20 -14 -34t-34 -14q-15 0 -32 14q-16 13 -16 34zM524 316q0 15 14 32q13 16 34 16q15 0 32 -14q16 -16 16 -34q0 -20 -14 -34t-34 -14q-15 0 -32 14q-16 13 -16 34zM524 444q0 15 14 32q13 16 34 16 q15 0 32 -14q16 -16 16 -34q0 -20 -14 -34t-34 -14q-15 0 -32 14q-16 13 -16 34zM524 572q0 15 14 32q13 16 34 16q15 0 32 -14q16 -16 16 -34q0 -20 -14 -34t-34 -14q-15 0 -32 14q-16 13 -16 34zM524 700q0 15 14 32q13 16 34 16q15 0 32 -14q16 -16 16 -34q0 -20 -14 -34 t-34 -14q-15 0 -32 14q-16 13 -16 34z" />
<glyph unicode="1" horiz-adv-x="768" d="M140 60q0 15 14 32q13 16 34 16q15 0 32 -14q16 -16 16 -34q0 -20 -14 -34t-34 -14q-15 0 -32 14q-16 13 -16 34zM140 700q0 15 14 32q13 16 34 16q15 0 32 -14q16 -16 16 -34q0 -20 -14 -34t-34 -14q-15 0 -32 14q-16 13 -16 34zM268 60q0 15 14 32q13 16 34 16 q15 0 32 -14q16 -16 16 -34q0 -20 -14 -34t-34 -14q-15 0 -32 14q-16 13 -16 34zM268 188q0 15 14 32q13 16 34 16q15 0 32 -14q16 -16 16 -34q0 -20 -14 -34t-34 -14q-15 0 -32 14q-16 13 -16 34zM268 316q0 15 14 32q13 16 34 16q15 0 32 -14q16 -16 16 -34q0 -20 -14 -34 t-34 -14q-15 0 -32 14q-16 13 -16 34zM268 444q0 15 14 32q13 16 34 16q15 0 32 -14q16 -16 16 -34q0 -20 -14 -34t-34 -14q-15 0 -32 14q-16 13 -16 34zM268 572q0 15 14 32q13 16 34 16q15 0 32 -14q16 -16 16 -34q0 -20 -14 -34t-34 -14q-15 0 -32 14q-16 13 -16 34z M268 700q0 15 14 32q13 16 34 16q15 0 32 -14q16 -16 16 -34q0 -20 -14 -34t-34 -14q-15 0 -32 14q-16 13 -16 34zM268 828q0 15 14 32q13 16 34 16q15 0 32 -14q16 -16 16 -34q0 -20 -14 -34t-34 -14q-15 0 -32 14q-16 13 -16 34zM396 60q0 15 14 32q13 16 34 16 q15 0 32 -14q16 -16 16 -34q0 -20 -14 -34t-34 -14q-15 0 -32 14q-16 13 -16 34z" />
<glyph unicode="2" d="M12 60q0 15 14 32q13 16 34 16q15 0 32 -14q16 -16 16 -34q0 -20 -14 -34t-34 -14q-15 0 -32 14q-16 13 -16 34zM12 700q0 15 14 32q13 16 34 16q15 0 32 -14q16 -16 16 -34q0 -20 -14 -34t-34 -14q-15 0 -32 14q-16 13 -16 34zM140 60q0 15 14 32q13 16 34 16 q15 0 32 -14q16 -16 16 -34q0 -20 -14 -34t-34 -14q-15 0 -32 14q-16 13 -16 34zM140 188q0 15 14 32q13 16 34 16q15 0 32 -14q16 -16 16 -34q0 -20 -14 -34t-34 -14q-15 0 -32 14q-16 13 -16 34zM140 828q0 15 14 32q13 16 34 16q15 0 32 -14q16 -16 16 -34q0 -20 -14 -34 t-34 -14q-15 0 -32 14q-16 13 -16 34zM268 60q0 15 14 32q13 16 34 16q15 0 32 -14q16 -16 16 -34q0 -20 -14 -34t-34 -14q-15 0 -32 14q-16 13 -16 34zM268 316q0 15 14 32q13 16 34 16q15 0 32 -14q16 -16 16 -34q0 -20 -14 -34t-34 -14q-15 0 -32 14q-16 13 -16 34z M268 828q0 15 14 32q13 16 34 16q15 0 32 -14q16 -16 16 -34q0 -20 -14 -34t-34 -14q-15 0 -32 14q-16 13 -16 34zM396 60q0 15 14 32q13 16 34 16q15 0 32 -14q16 -16 16 -34q0 -20 -14 -34t-34 -14q-15 0 -32 14q-16 13 -16 34zM396 444q0 15 14 32q13 16 34 16 q15 0 32 -14q16 -16 16 -34q0 -20 -14 -34t-34 -14q-15 0 -32 14q-16 13 -16 34zM396 828q0 15 14 32q13 16 34 16q15 0 32 -14q16 -16 16 -34q0 -20 -14 -34t-34 -14q-15 0 -32 14q-16 13 -16 34zM524 60q0 15 14 32q13 16 34 16q15 0 32 -14q16 -16 16 -34q0 -20 -14 -34 t-34 -14q-15 0 -32 14q-16 13 -16 34zM524 572q0 15 14 32q13 16 34 16q15 0 32 -14q16 -16 16 -34q0 -20 -14 -34t-34 -14q-15 0 -32 14q-16 13 -16 34zM524 700q0 15 14 32q13 16 34 16q15 0 32 -14q16 -16 16 -34q0 -20 -14 -34t-34 -14q-15 0 -32 14q-16 13 -16 34z" />
<glyph unicode="3" d="M12 188q0 15 14 32q13 16 34 16q15 0 32 -14q16 -16 16 -34q0 -20 -14 -34t-34 -14q-15 0 -32 14q-16 13 -16 34zM12 700q0 15 14 32q13 16 34 16q15 0 32 -14q16 -16 16 -34q0 -20 -14 -34t-34 -14q-15 0 -32 14q-16 13 -16 34zM140 60q0 15 14 32q13 16 34 16 q15 0 32 -14q16 -16 16 -34q0 -20 -14 -34t-34 -14q-15 0 -32 14q-16 13 -16 34zM140 828q0 15 14 32q13 16 34 16q15 0 32 -14q16 -16 16 -34q0 -20 -14 -34t-34 -14q-15 0 -32 14q-16 13 -16 34zM268 60q0 15 14 32q13 16 34 16q15 0 32 -14q16 -16 16 -34q0 -20 -14 -34 t-34 -14q-15 0 -32 14q-16 13 -16 34zM268 444q0 15 14 32q13 16 34 16q15 0 32 -14q16 -16 16 -34q0 -20 -14 -34t-34 -14q-15 0 -32 14q-16 13 -16 34zM268 828q0 15 14 32q13 16 34 16q15 0 32 -14q16 -16 16 -34q0 -20 -14 -34t-34 -14q-15 0 -32 14q-16 13 -16 34z M396 60q0 15 14 32q13 16 34 16q15 0 32 -14q16 -16 16 -34q0 -20 -14 -34t-34 -14q-15 0 -32 14q-16 13 -16 34zM396 444q0 15 14 32q13 16 34 16q15 0 32 -14q16 -16 16 -34q0 -20 -14 -34t-34 -14q-15 0 -32 14q-16 13 -16 34zM396 828q0 15 14 32q13 16 34 16 q15 0 32 -14q16 -16 16 -34q0 -20 -14 -34t-34 -14q-15 0 -32 14q-16 13 -16 34zM524 188q0 15 14 32q13 16 34 16q15 0 32 -14q16 -16 16 -34q0 -20 -14 -34t-34 -14q-15 0 -32 14q-16 13 -16 34zM524 316q0 15 14 32q13 16 34 16q15 0 32 -14q16 -16 16 -34q0 -20 -14 -34 t-34 -14q-15 0 -32 14q-16 13 -16 34zM524 572q0 15 14 32q13 16 34 16q15 0 32 -14q16 -16 16 -34q0 -20 -14 -34t-34 -14q-15 0 -32 14q-16 13 -16 34zM524 700q0 15 14 32q13 16 34 16q15 0 32 -14q16 -16 16 -34q0 -20 -14 -34t-34 -14q-15 0 -32 14q-16 13 -16 34z" />
<glyph unicode="4" d="M12 316q0 15 14 32q13 16 34 16q15 0 32 -14q16 -16 16 -34q0 -20 -14 -34t-34 -14q-15 0 -32 14q-16 13 -16 34zM12 444q0 15 14 32q13 16 34 16q15 0 32 -14q16 -16 16 -34q0 -20 -14 -34t-34 -14q-15 0 -32 14q-16 13 -16 34zM140 316q0 15 14 32q13 16 34 16 q15 0 32 -14q16 -16 16 -34q0 -20 -14 -34t-34 -14q-15 0 -32 14q-16 13 -16 34zM140 572q0 15 14 32q13 16 34 16q15 0 32 -14q16 -16 16 -34q0 -20 -14 -34t-34 -14q-15 0 -32 14q-16 13 -16 34zM268 316q0 15 14 32q13 16 34 16q15 0 32 -14q16 -16 16 -34q0 -20 -14 -34 t-34 -14q-15 0 -32 14q-16 13 -16 34zM268 700q0 15 14 32q13 16 34 16q15 0 32 -14q16 -16 16 -34q0 -20 -14 -34t-34 -14q-15 0 -32 14q-16 13 -16 34zM396 60q0 15 14 32q13 16 34 16q15 0 32 -14q16 -16 16 -34q0 -20 -14 -34t-34 -14q-15 0 -32 14q-16 13 -16 34z M396 188q0 15 14 32q13 16 34 16q15 0 32 -14q16 -16 16 -34q0 -20 -14 -34t-34 -14q-15 0 -32 14q-16 13 -16 34zM396 316q0 15 14 32q13 16 34 16q15 0 32 -14q16 -16 16 -34q0 -20 -14 -34t-34 -14q-15 0 -32 14q-16 13 -16 34zM396 444q0 15 14 32q13 16 34 16 q15 0 32 -14q16 -16 16 -34q0 -20 -14 -34t-34 -14q-15 0 -32 14q-16 13 -16 34zM396 572q0 15 14 32q13 16 34 16q15 0 32 -14q16 -16 16 -34q0 -20 -14 -34t-34 -14q-15 0 -32 14q-16 13 -16 34zM396 700q0 15 14 32q13 16 34 16q15 0 32 -14q16 -16 16 -34q0 -20 -14 -34 t-34 -14q-15 0 -32 14q-16 13 -16 34zM396 828q0 15 14 32q13 16 34 16q15 0 32 -14q16 -16 16 -34q0 -20 -14 -34t-34 -14q-15 0 -32 14q-16 13 -16 34zM524 316q0 15 14 32q13 16 34 16q15 0 32 -14q16 -16 16 -34q0 -20 -14 -34t-34 -14q-15 0 -32 14q-16 13 -16 34z" />
<glyph unicode="5" d="M12 188q0 15 14 32q13 16 34 16q15 0 32 -14q16 -16 16 -34q0 -20 -14 -34t-34 -14q-15 0 -32 14q-16 13 -16 34zM12 572q0 15 14 32q13 16 34 16q15 0 32 -14q16 -16 16 -34q0 -20 -14 -34t-34 -14q-15 0 -32 14q-16 13 -16 34zM12 700q0 15 14 32q13 16 34 16 q15 0 32 -14q16 -16 16 -34q0 -20 -14 -34t-34 -14q-15 0 -32 14q-16 13 -16 34zM12 828q0 15 14 32q13 16 34 16q15 0 32 -14q16 -16 16 -34q0 -20 -14 -34t-34 -14q-15 0 -32 14q-16 13 -16 34zM140 60q0 15 14 32q13 16 34 16q15 0 32 -14q16 -16 16 -34q0 -20 -14 -34 t-34 -14q-15 0 -32 14q-16 13 -16 34zM140 572q0 15 14 32q13 16 34 16q15 0 32 -14q16 -16 16 -34q0 -20 -14 -34t-34 -14q-15 0 -32 14q-16 13 -16 34zM140 828q0 15 14 32q13 16 34 16q15 0 32 -14q16 -16 16 -34q0 -20 -14 -34t-34 -14q-15 0 -32 14q-16 13 -16 34z M268 60q0 15 14 32q13 16 34 16q15 0 32 -14q16 -16 16 -34q0 -20 -14 -34t-34 -14q-15 0 -32 14q-16 13 -16 34zM268 572q0 15 14 32q13 16 34 16q15 0 32 -14q16 -16 16 -34q0 -20 -14 -34t-34 -14q-15 0 -32 14q-16 13 -16 34zM268 828q0 15 14 32q13 16 34 16 q15 0 32 -14q16 -16 16 -34q0 -20 -14 -34t-34 -14q-15 0 -32 14q-16 13 -16 34zM396 60q0 15 14 32q13 16 34 16q15 0 32 -14q16 -16 16 -34q0 -20 -14 -34t-34 -14q-15 0 -32 14q-16 13 -16 34zM396 572q0 15 14 32q13 16 34 16q15 0 32 -14q16 -16 16 -34q0 -20 -14 -34 t-34 -14q-15 0 -32 14q-16 13 -16 34zM396 828q0 15 14 32q13 16 34 16q15 0 32 -14q16 -16 16 -34q0 -20 -14 -34t-34 -14q-15 0 -32 14q-16 13 -16 34zM524 188q0 15 14 32q13 16 34 16q15 0 32 -14q16 -16 16 -34q0 -20 -14 -34t-34 -14q-15 0 -32 14q-16 13 -16 34z M524 316q0 15 14 32q13 16 34 16q15 0 32 -14q16 -16 16 -34q0 -20 -14 -34t-34 -14q-15 0 -32 14q-16 13 -16 34zM524 444q0 15 14 32q13 16 34 16q15 0 32 -14q16 -16 16 -34q0 -20 -14 -34t-34 -14q-15 0 -32 14q-16 13 -16 34zM524 828q0 15 14 32q13 16 34 16 q15 0 32 -14q16 -16 16 -34q0 -20 -14 -34t-34 -14q-15 0 -32 14q-16 13 -16 34z" />
<glyph unicode="6" d="M12 188q0 15 14 32q13 16 34 16q15 0 32 -14q16 -16 16 -34q0 -20 -14 -34t-34 -14q-15 0 -32 14q-16 13 -16 34zM12 316q0 15 14 32q13 16 34 16q15 0 32 -14q16 -16 16 -34q0 -20 -14 -34t-34 -14q-15 0 -32 14q-16 13 -16 34zM12 444q0 15 14 32q13 16 34 16 q15 0 32 -14q16 -16 16 -34q0 -20 -14 -34t-34 -14q-15 0 -32 14q-16 13 -16 34zM12 572q0 15 14 32q13 16 34 16q15 0 32 -14q16 -16 16 -34q0 -20 -14 -34t-34 -14q-15 0 -32 14q-16 13 -16 34zM12 700q0 15 14 32q13 16 34 16q15 0 32 -14q16 -16 16 -34q0 -20 -14 -34 t-34 -14q-15 0 -32 14q-16 13 -16 34zM140 60q0 15 14 32q13 16 34 16q15 0 32 -14q16 -16 16 -34q0 -20 -14 -34t-34 -14q-15 0 -32 14q-16 13 -16 34zM140 444q0 15 14 32q13 16 34 16q15 0 32 -14q16 -16 16 -34q0 -20 -14 -34t-34 -14q-15 0 -32 14q-16 13 -16 34z M140 828q0 15 14 32q13 16 34 16q15 0 32 -14q16 -16 16 -34q0 -20 -14 -34t-34 -14q-15 0 -32 14q-16 13 -16 34zM268 60q0 15 14 32q13 16 34 16q15 0 32 -14q16 -16 16 -34q0 -20 -14 -34t-34 -14q-15 0 -32 14q-16 13 -16 34zM268 444q0 15 14 32q13 16 34 16 q15 0 32 -14q16 -16 16 -34q0 -20 -14 -34t-34 -14q-15 0 -32 14q-16 13 -16 34zM268 828q0 15 14 32q13 16 34 16q15 0 32 -14q16 -16 16 -34q0 -20 -14 -34t-34 -14q-15 0 -32 14q-16 13 -16 34zM396 60q0 15 14 32q13 16 34 16q15 0 32 -14q16 -16 16 -34q0 -20 -14 -34 t-34 -14q-15 0 -32 14q-16 13 -16 34zM396 444q0 15 14 32q13 16 34 16q15 0 32 -14q16 -16 16 -34q0 -20 -14 -34t-34 -14q-15 0 -32 14q-16 13 -16 34zM396 828q0 15 14 32q13 16 34 16q15 0 32 -14q16 -16 16 -34q0 -20 -14 -34t-34 -14q-15 0 -32 14q-16 13 -16 34z M524 188q0 15 14 32q13 16 34 16q15 0 32 -14q16 -16 16 -34q0 -20 -14 -34t-34 -14q-15 0 -32 14q-16 13 -16 34zM524 316q0 15 14 32q13 16 34 16q15 0 32 -14q16 -16 16 -34q0 -20 -14 -34t-34 -14q-15 0 -32 14q-16 13 -16 34zM524 700q0 15 14 32q13 16 34 16 q15 0 32 -14q16 -16 16 -34q0 -20 -14 -34t-34 -14q-15 0 -32 14q-16 13 -16 34z" />
<glyph unicode="7" d="M12 60q0 15 14 32q13 16 34 16q15 0 32 -14q16 -16 16 -34q0 -20 -14 -34t-34 -14q-15 0 -32 14q-16 13 -16 34zM12 188q0 15 14 32q13 16 34 16q15 0 32 -14q16 -16 16 -34q0 -20 -14 -34t-34 -14q-15 0 -32 14q-16 13 -16 34zM12 828q0 15 14 32q13 16 34 16 q15 0 32 -14q16 -16 16 -34q0 -20 -14 -34t-34 -14q-15 0 -32 14q-16 13 -16 34zM140 316q0 15 14 32q13 16 34 16q15 0 32 -14q16 -16 16 -34q0 -20 -14 -34t-34 -14q-15 0 -32 14q-16 13 -16 34zM140 828q0 15 14 32q13 16 34 16q15 0 32 -14q16 -16 16 -34q0 -20 -14 -34 t-34 -14q-15 0 -32 14q-16 13 -16 34zM268 444q0 15 14 32q13 16 34 16q15 0 32 -14q16 -16 16 -34q0 -20 -14 -34t-34 -14q-15 0 -32 14q-16 13 -16 34zM268 828q0 15 14 32q13 16 34 16q15 0 32 -14q16 -16 16 -34q0 -20 -14 -34t-34 -14q-15 0 -32 14q-16 13 -16 34z M396 572q0 15 14 32q13 16 34 16q15 0 32 -14q16 -16 16 -34q0 -20 -14 -34t-34 -14q-15 0 -32 14q-16 13 -16 34zM396 828q0 15 14 32q13 16 34 16q15 0 32 -14q16 -16 16 -34q0 -20 -14 -34t-34 -14q-15 0 -32 14q-16 13 -16 34zM524 700q0 15 14 32q13 16 34 16 q15 0 32 -14q16 -16 16 -34q0 -20 -14 -34t-34 -14q-15 0 -32 14q-16 13 -16 34zM524 828q0 15 14 32q13 16 34 16q15 0 32 -14q16 -16 16 -34q0 -20 -14 -34t-34 -14q-15 0 -32 14q-16 13 -16 34z" />
<glyph unicode="8" d="M12 188q0 15 14 32q13 16 34 16q15 0 32 -14q16 -16 16 -34q0 -20 -14 -34t-34 -14q-15 0 -32 14q-16 13 -16 34zM12 316q0 15 14 32q13 16 34 16q15 0 32 -14q16 -16 16 -34q0 -20 -14 -34t-34 -14q-15 0 -32 14q-16 13 -16 34zM12 572q0 15 14 32q13 16 34 16 q15 0 32 -14q16 -16 16 -34q0 -20 -14 -34t-34 -14q-15 0 -32 14q-16 13 -16 34zM12 700q0 15 14 32q13 16 34 16q15 0 32 -14q16 -16 16 -34q0 -20 -14 -34t-34 -14q-15 0 -32 14q-16 13 -16 34zM140 60q0 15 14 32q13 16 34 16q15 0 32 -14q16 -16 16 -34q0 -20 -14 -34 t-34 -14q-15 0 -32 14q-16 13 -16 34zM140 444q0 15 14 32q13 16 34 16q15 0 32 -14q16 -16 16 -34q0 -20 -14 -34t-34 -14q-15 0 -32 14q-16 13 -16 34zM140 828q0 15 14 32q13 16 34 16q15 0 32 -14q16 -16 16 -34q0 -20 -14 -34t-34 -14q-15 0 -32 14q-16 13 -16 34z M268 60q0 15 14 32q13 16 34 16q15 0 32 -14q16 -16 16 -34q0 -20 -14 -34t-34 -14q-15 0 -32 14q-16 13 -16 34zM268 444q0 15 14 32q13 16 34 16q15 0 32 -14q16 -16 16 -34q0 -20 -14 -34t-34 -14q-15 0 -32 14q-16 13 -16 34zM268 828q0 15 14 32q13 16 34 16 q15 0 32 -14q16 -16 16 -34q0 -20 -14 -34t-34 -14q-15 0 -32 14q-16 13 -16 34zM396 60q0 15 14 32q13 16 34 16q15 0 32 -14q16 -16 16 -34q0 -20 -14 -34t-34 -14q-15 0 -32 14q-16 13 -16 34zM396 444q0 15 14 32q13 16 34 16q15 0 32 -14q16 -16 16 -34q0 -20 -14 -34 t-34 -14q-15 0 -32 14q-16 13 -16 34zM396 828q0 15 14 32q13 16 34 16q15 0 32 -14q16 -16 16 -34q0 -20 -14 -34t-34 -14q-15 0 -32 14q-16 13 -16 34zM524 188q0 15 14 32q13 16 34 16q15 0 32 -14q16 -16 16 -34q0 -20 -14 -34t-34 -14q-15 0 -32 14q-16 13 -16 34z M524 316q0 15 14 32q13 16 34 16q15 0 32 -14q16 -16 16 -34q0 -20 -14 -34t-34 -14q-15 0 -32 14q-16 13 -16 34zM524 572q0 15 14 32q13 16 34 16q15 0 32 -14q16 -16 16 -34q0 -20 -14 -34t-34 -14q-15 0 -32 14q-16 13 -16 34zM524 700q0 15 14 32q13 16 34 16 q15 0 32 -14q16 -16 16 -34q0 -20 -14 -34t-34 -14q-15 0 -32 14q-16 13 -16 34z" />
<glyph unicode="9" d="M12 188q0 15 14 32q13 16 34 16q15 0 32 -14q16 -16 16 -34q0 -20 -14 -34t-34 -14q-15 0 -32 14q-16 13 -16 34zM12 572q0 15 14 32q13 16 34 16q15 0 32 -14q16 -16 16 -34q0 -20 -14 -34t-34 -14q-15 0 -32 14q-16 13 -16 34zM12 700q0 15 14 32q13 16 34 16 q15 0 32 -14q16 -16 16 -34q0 -20 -14 -34t-34 -14q-15 0 -32 14q-16 13 -16 34zM140 60q0 15 14 32q13 16 34 16q15 0 32 -14q16 -16 16 -34q0 -20 -14 -34t-34 -14q-15 0 -32 14q-16 13 -16 34zM140 444q0 15 14 32q13 16 34 16q15 0 32 -14q16 -16 16 -34q0 -20 -14 -34 t-34 -14q-15 0 -32 14q-16 13 -16 34zM140 828q0 15 14 32q13 16 34 16q15 0 32 -14q16 -16 16 -34q0 -20 -14 -34t-34 -14q-15 0 -32 14q-16 13 -16 34zM268 60q0 15 14 32q13 16 34 16q15 0 32 -14q16 -16 16 -34q0 -20 -14 -34t-34 -14q-15 0 -32 14q-16 13 -16 34z M268 444q0 15 14 32q13 16 34 16q15 0 32 -14q16 -16 16 -34q0 -20 -14 -34t-34 -14q-15 0 -32 14q-16 13 -16 34zM268 828q0 15 14 32q13 16 34 16q15 0 32 -14q16 -16 16 -34q0 -20 -14 -34t-34 -14q-15 0 -32 14q-16 13 -16 34zM396 60q0 15 14 32q13 16 34 16 q15 0 32 -14q16 -16 16 -34q0 -20 -14 -34t-34 -14q-15 0 -32 14q-16 13 -16 34zM396 444q0 15 14 32q13 16 34 16q15 0 32 -14q16 -16 16 -34q0 -20 -14 -34t-34 -14q-15 0 -32 14q-16 13 -16 34zM396 828q0 15 14 32q13 16 34 16q15 0 32 -14q16 -16 16 -34q0 -20 -14 -34 t-34 -14q-15 0 -32 14q-16 13 -16 34zM524 188q0 15 14 32q13 16 34 16q15 0 32 -14q16 -16 16 -34q0 -20 -14 -34t-34 -14q-15 0 -32 14q-16 13 -16 34zM524 316q0 15 14 32q13 16 34 16q15 0 32 -14q16 -16 16 -34q0 -20 -14 -34t-34 -14q-15 0 -32 14q-16 13 -16 34z M524 444q0 15 14 32q13 16 34 16q15 0 32 -14q16 -16 16 -34q0 -20 -14 -34t-34 -14q-15 0 -32 14q-16 13 -16 34zM524 572q0 15 14 32q13 16 34 16q15 0 32 -14q16 -16 16 -34q0 -20 -14 -34t-34 -14q-15 0 -32 14q-16 13 -16 34zM524 700q0 15 14 32q13 16 34 16 q15 0 32 -14q16 -16 16 -34q0 -20 -14 -34t-34 -14q-15 0 -32 14q-16 13 -16 34z" />
<glyph unicode=":" horiz-adv-x="382" d="M12 60q0 15 14 32q13 16 34 16q15 0 32 -14q16 -16 16 -34q0 -20 -14 -34t-34 -14q-15 0 -32 14q-16 13 -16 34zM12 188q0 15 14 32q13 16 34 16q15 0 32 -14q16 -16 16 -34q0 -20 -14 -34t-34 -14q-15 0 -32 14q-16 13 -16 34zM12 444q0 15 14 32q13 16 34 16 q15 0 32 -14q16 -16 16 -34q0 -20 -14 -34t-34 -14q-15 0 -32 14q-16 13 -16 34zM12 572q0 15 14 32q13 16 34 16q15 0 32 -14q16 -16 16 -34q0 -20 -14 -34t-34 -14q-15 0 -32 14q-16 13 -16 34zM140 60q0 15 14 32q13 16 34 16q15 0 32 -14q16 -16 16 -34q0 -20 -14 -34 t-34 -14q-15 0 -32 14q-16 13 -16 34zM140 188q0 15 14 32q13 16 34 16q15 0 32 -14q16 -16 16 -34q0 -20 -14 -34t-34 -14q-15 0 -32 14q-16 13 -16 34zM140 444q0 15 14 32q13 16 34 16q15 0 32 -14q16 -16 16 -34q0 -20 -14 -34t-34 -14q-15 0 -32 14q-16 13 -16 34z M140 572q0 15 14 32q13 16 34 16q15 0 32 -14q16 -16 16 -34q0 -20 -14 -34t-34 -14q-15 0 -32 14q-16 13 -16 34z" />
<glyph unicode=";" horiz-adv-x="382" d="M12 60q0 15 14 32q13 16 34 16q15 0 32 -14q16 -16 16 -34q0 -20 -14 -34t-34 -14q-15 0 -32 14q-16 13 -16 34zM12 188q0 15 14 32q13 16 34 16q15 0 32 -14q16 -16 16 -34q0 -20 -14 -34t-34 -14q-15 0 -32 14q-16 13 -16 34zM12 -194q0 15 14 32q13 16 34 16 q15 0 32 -14q16 -16 16 -34q0 -20 -14 -34t-34 -14q-15 0 -32 14q-16 13 -16 34zM12 444q0 15 14 32q13 16 34 16q15 0 32 -14q16 -16 16 -34q0 -20 -14 -34t-34 -14q-15 0 -32 14q-16 13 -16 34zM12 572q0 15 14 32q13 16 34 16q15 0 32 -14q16 -16 16 -34q0 -20 -14 -34 t-34 -14q-15 0 -32 14q-16 13 -16 34zM140 60q0 15 14 32q13 16 34 16q15 0 32 -14q16 -16 16 -34q0 -20 -14 -34t-34 -14q-15 0 -32 14q-16 13 -16 34zM140 -66q0 15 14 32q13 16 34 16q15 0 32 -14q16 -16 16 -34q0 -20 -14 -34t-34 -14q-15 0 -32 14q-16 13 -16 34z M140 188q0 15 14 32q13 16 34 16q15 0 32 -14q16 -16 16 -34q0 -20 -14 -34t-34 -14q-15 0 -32 14q-16 13 -16 34zM140 444q0 15 14 32q13 16 34 16q15 0 32 -14q16 -16 16 -34q0 -20 -14 -34t-34 -14q-15 0 -32 14q-16 13 -16 34zM140 572q0 15 14 32q13 16 34 16 q15 0 32 -14q16 -16 16 -34q0 -20 -14 -34t-34 -14q-15 0 -32 14q-16 13 -16 34z" />
<glyph unicode="&#x3c;" d="M12 444q0 15 14 32q13 16 34 16q15 0 32 -14q16 -16 16 -34q0 -20 -14 -34t-34 -14q-15 0 -32 14q-16 13 -16 34zM140 316q0 15 14 32q13 16 34 16q15 0 32 -14q16 -16 16 -34q0 -20 -14 -34t-34 -14q-15 0 -32 14q-16 13 -16 34zM140 572q0 15 14 32q13 16 34 16 q15 0 32 -14q16 -16 16 -34q0 -20 -14 -34t-34 -14q-15 0 -32 14q-16 13 -16 34zM268 188q0 15 14 32q13 16 34 16q15 0 32 -14q16 -16 16 -34q0 -20 -14 -34t-34 -14q-15 0 -32 14q-16 13 -16 34zM268 700q0 15 14 32q13 16 34 16q15 0 32 -14q16 -16 16 -34q0 -20 -14 -34 t-34 -14q-15 0 -32 14q-16 13 -16 34zM396 60q0 15 14 32q13 16 34 16q15 0 32 -14q16 -16 16 -34q0 -20 -14 -34t-34 -14q-15 0 -32 14q-16 13 -16 34zM396 828q0 15 14 32q13 16 34 16q15 0 32 -14q16 -16 16 -34q0 -20 -14 -34t-34 -14q-15 0 -32 14q-16 13 -16 34z" />
<glyph unicode="=" d="M12 316q0 15 14 32q13 16 34 16q15 0 32 -14q16 -16 16 -34q0 -20 -14 -34t-34 -14q-15 0 -32 14q-16 13 -16 34zM12 572q0 15 14 32q13 16 34 16q15 0 32 -14q16 -16 16 -34q0 -20 -14 -34t-34 -14q-15 0 -32 14q-16 13 -16 34zM140 316q0 15 14 32q13 16 34 16 q15 0 32 -14q16 -16 16 -34q0 -20 -14 -34t-34 -14q-15 0 -32 14q-16 13 -16 34zM140 572q0 15 14 32q13 16 34 16q15 0 32 -14q16 -16 16 -34q0 -20 -14 -34t-34 -14q-15 0 -32 14q-16 13 -16 34zM268 316q0 15 14 32q13 16 34 16q15 0 32 -14q16 -16 16 -34q0 -20 -14 -34 t-34 -14q-15 0 -32 14q-16 13 -16 34zM268 572q0 15 14 32q13 16 34 16q15 0 32 -14q16 -16 16 -34q0 -20 -14 -34t-34 -14q-15 0 -32 14q-16 13 -16 34zM396 316q0 15 14 32q13 16 34 16q15 0 32 -14q16 -16 16 -34q0 -20 -14 -34t-34 -14q-15 0 -32 14q-16 13 -16 34z M396 572q0 15 14 32q13 16 34 16q15 0 32 -14q16 -16 16 -34q0 -20 -14 -34t-34 -14q-15 0 -32 14q-16 13 -16 34zM524 316q0 15 14 32q13 16 34 16q15 0 32 -14q16 -16 16 -34q0 -20 -14 -34t-34 -14q-15 0 -32 14q-16 13 -16 34zM524 572q0 15 14 32q13 16 34 16 q15 0 32 -14q16 -16 16 -34q0 -20 -14 -34t-34 -14q-15 0 -32 14q-16 13 -16 34z" />
<glyph unicode="&#x3e;" d="M12 60q0 15 14 32q13 16 34 16q15 0 32 -14q16 -16 16 -34q0 -20 -14 -34t-34 -14q-15 0 -32 14q-16 13 -16 34zM12 828q0 15 14 32q13 16 34 16q15 0 32 -14q16 -16 16 -34q0 -20 -14 -34t-34 -14q-15 0 -32 14q-16 13 -16 34zM140 188q0 15 14 32q13 16 34 16 q15 0 32 -14q16 -16 16 -34q0 -20 -14 -34t-34 -14q-15 0 -32 14q-16 13 -16 34zM140 700q0 15 14 32q13 16 34 16q15 0 32 -14q16 -16 16 -34q0 -20 -14 -34t-34 -14q-15 0 -32 14q-16 13 -16 34zM268 316q0 15 14 32q13 16 34 16q15 0 32 -14q16 -16 16 -34q0 -20 -14 -34 t-34 -14q-15 0 -32 14q-16 13 -16 34zM268 572q0 15 14 32q13 16 34 16q15 0 32 -14q16 -16 16 -34q0 -20 -14 -34t-34 -14q-15 0 -32 14q-16 13 -16 34zM396 444q0 15 14 32q13 16 34 16q15 0 32 -14q16 -16 16 -34q0 -20 -14 -34t-34 -14q-15 0 -32 14q-16 13 -16 34z" />
<glyph unicode="?" d="M12 700q0 15 14 32q13 16 34 16q15 0 32 -14q16 -16 16 -34q0 -20 -14 -34t-34 -14q-15 0 -32 14q-16 13 -16 34zM140 828q0 15 14 32q13 16 34 16q15 0 32 -14q16 -16 16 -34q0 -20 -14 -34t-34 -14q-15 0 -32 14q-16 13 -16 34zM268 60q0 15 14 32q13 16 34 16 q15 0 32 -14q16 -16 16 -34q0 -20 -14 -34t-34 -14q-15 0 -32 14q-16 13 -16 34zM268 316q0 15 14 32q13 16 34 16q15 0 32 -14q16 -16 16 -34q0 -20 -14 -34t-34 -14q-15 0 -32 14q-16 13 -16 34zM268 828q0 15 14 32q13 16 34 16q15 0 32 -14q16 -16 16 -34q0 -20 -14 -34 t-34 -14q-15 0 -32 14q-16 13 -16 34zM396 444q0 15 14 32q13 16 34 16q15 0 32 -14q16 -16 16 -34q0 -20 -14 -34t-34 -14q-15 0 -32 14q-16 13 -16 34zM396 828q0 15 14 32q13 16 34 16q15 0 32 -14q16 -16 16 -34q0 -20 -14 -34t-34 -14q-15 0 -32 14q-16 13 -16 34z M524 572q0 15 14 32q13 16 34 16q15 0 32 -14q16 -16 16 -34q0 -20 -14 -34t-34 -14q-15 0 -32 14q-16 13 -16 34zM524 700q0 15 14 32q13 16 34 16q15 0 32 -14q16 -16 16 -34q0 -20 -14 -34t-34 -14q-15 0 -32 14q-16 13 -16 34z" />
<glyph unicode="@" horiz-adv-x="894" d="M12 60q0 15 14 32q13 16 34 16q15 0 32 -14q16 -16 16 -34q0 -20 -14 -34t-34 -14q-15 0 -32 14q-16 13 -16 34zM12 -66q0 15 14 32q13 16 34 16q15 0 32 -14q16 -16 16 -34q0 -20 -14 -34t-34 -14q-15 0 -32 14q-16 13 -16 34zM12 188q0 15 14 32q13 16 34 16 q15 0 32 -14q16 -16 16 -34q0 -20 -14 -34t-34 -14q-15 0 -32 14q-16 13 -16 34zM12 316q0 15 14 32q13 16 34 16q15 0 32 -14q16 -16 16 -34q0 -20 -14 -34t-34 -14q-15 0 -32 14q-16 13 -16 34zM12 444q0 15 14 32q13 16 34 16q15 0 32 -14q16 -16 16 -34q0 -20 -14 -34 t-34 -14q-15 0 -32 14q-16 13 -16 34zM140 188q0 15 14 32q13 16 34 16q15 0 32 -14q16 -16 16 -34q0 -20 -14 -34t-34 -14q-15 0 -32 14q-16 13 -16 34zM140 -194q0 15 14 32q13 16 34 16q15 0 32 -14q16 -16 16 -34q0 -20 -14 -34t-34 -14q-15 0 -32 14q-16 13 -16 34z M140 572q0 15 14 32q13 16 34 16q15 0 32 -14q16 -16 16 -34q0 -20 -14 -34t-34 -14q-15 0 -32 14q-16 13 -16 34zM268 60q0 15 14 32q13 16 34 16q15 0 32 -14q16 -16 16 -34q0 -20 -14 -34t-34 -14q-15 0 -32 14q-16 13 -16 34zM268 -194q0 15 14 32q13 16 34 16 q15 0 32 -14q16 -16 16 -34q0 -20 -14 -34t-34 -14q-15 0 -32 14q-16 13 -16 34zM268 316q0 15 14 32q13 16 34 16q15 0 32 -14q16 -16 16 -34q0 -20 -14 -34t-34 -14q-15 0 -32 14q-16 13 -16 34zM268 572q0 15 14 32q13 16 34 16q15 0 32 -14q16 -16 16 -34q0 -20 -14 -34 t-34 -14q-15 0 -32 14q-16 13 -16 34zM396 60q0 15 14 32q13 16 34 16q15 0 32 -14q16 -16 16 -34q0 -20 -14 -34t-34 -14q-15 0 -32 14q-16 13 -16 34zM396 188q0 15 14 32q13 16 34 16q15 0 32 -14q16 -16 16 -34q0 -20 -14 -34t-34 -14q-15 0 -32 14q-16 13 -16 34z M396 -194q0 15 14 32q13 16 34 16q15 0 32 -14q16 -16 16 -34q0 -20 -14 -34t-34 -14q-15 0 -32 14q-16 13 -16 34zM396 572q0 15 14 32q13 16 34 16q15 0 32 -14q16 -16 16 -34q0 -20 -14 -34t-34 -14q-15 0 -32 14q-16 13 -16 34zM524 60q0 15 14 32q13 16 34 16 q15 0 32 -14q16 -16 16 -34q0 -20 -14 -34t-34 -14q-15 0 -32 14q-16 13 -16 34zM524 188q0 15 14 32q13 16 34 16q15 0 32 -14q16 -16 16 -34q0 -20 -14 -34t-34 -14q-15 0 -32 14q-16 13 -16 34zM524 -194q0 15 14 32q13 16 34 16q15 0 32 -14q16 -16 16 -34 q0 -20 -14 -34t-34 -14q-15 0 -32 14q-16 13 -16 34zM524 316q0 15 14 32q13 16 34 16q15 0 32 -14q16 -16 16 -34q0 -20 -14 -34t-34 -14q-15 0 -32 14q-16 13 -16 34zM524 444q0 15 14 32q13 16 34 16q15 0 32 -14q16 -16 16 -34q0 -20 -14 -34t-34 -14q-15 0 -32 14 q-16 13 -16 34z" />
<glyph unicode="A" d="M12 60q0 15 14 32q13 16 34 16q15 0 32 -14q16 -16 16 -34q0 -20 -14 -34t-34 -14q-15 0 -32 14q-16 13 -16 34zM12 188q0 15 14 32q13 16 34 16q15 0 32 -14q16 -16 16 -34q0 -20 -14 -34t-34 -14q-15 0 -32 14q-16 13 -16 34zM12 316q0 15 14 32q13 16 34 16 q15 0 32 -14q16 -16 16 -34q0 -20 -14 -34t-34 -14q-15 0 -32 14q-16 13 -16 34zM12 444q0 15 14 32q13 16 34 16q15 0 32 -14q16 -16 16 -34q0 -20 -14 -34t-34 -14q-15 0 -32 14q-16 13 -16 34zM12 572q0 15 14 32q13 16 34 16q15 0 32 -14q16 -16 16 -34q0 -20 -14 -34 t-34 -14q-15 0 -32 14q-16 13 -16 34zM140 316q0 15 14 32q13 16 34 16q15 0 32 -14q16 -16 16 -34q0 -20 -14 -34t-34 -14q-15 0 -32 14q-16 13 -16 34zM140 700q0 15 14 32q13 16 34 16q15 0 32 -14q16 -16 16 -34q0 -20 -14 -34t-34 -14q-15 0 -32 14q-16 13 -16 34z M268 316q0 15 14 32q13 16 34 16q15 0 32 -14q16 -16 16 -34q0 -20 -14 -34t-34 -14q-15 0 -32 14q-16 13 -16 34zM268 828q0 15 14 32q13 16 34 16q15 0 32 -14q16 -16 16 -34q0 -20 -14 -34t-34 -14q-15 0 -32 14q-16 13 -16 34zM396 316q0 15 14 32q13 16 34 16 q15 0 32 -14q16 -16 16 -34q0 -20 -14 -34t-34 -14q-15 0 -32 14q-16 13 -16 34zM396 700q0 15 14 32q13 16 34 16q15 0 32 -14q16 -16 16 -34q0 -20 -14 -34t-34 -14q-15 0 -32 14q-16 13 -16 34zM524 60q0 15 14 32q13 16 34 16q15 0 32 -14q16 -16 16 -34q0 -20 -14 -34 t-34 -14q-15 0 -32 14q-16 13 -16 34zM524 188q0 15 14 32q13 16 34 16q15 0 32 -14q16 -16 16 -34q0 -20 -14 -34t-34 -14q-15 0 -32 14q-16 13 -16 34zM524 316q0 15 14 32q13 16 34 16q15 0 32 -14q16 -16 16 -34q0 -20 -14 -34t-34 -14q-15 0 -32 14q-16 13 -16 34z M524 444q0 15 14 32q13 16 34 16q15 0 32 -14q16 -16 16 -34q0 -20 -14 -34t-34 -14q-15 0 -32 14q-16 13 -16 34zM524 572q0 15 14 32q13 16 34 16q15 0 32 -14q16 -16 16 -34q0 -20 -14 -34t-34 -14q-15 0 -32 14q-16 13 -16 34z" />
<glyph unicode="B" d="M12 60q0 15 14 32q13 16 34 16q15 0 32 -14q16 -16 16 -34q0 -20 -14 -34t-34 -14q-15 0 -32 14q-16 13 -16 34zM12 188q0 15 14 32q13 16 34 16q15 0 32 -14q16 -16 16 -34q0 -20 -14 -34t-34 -14q-15 0 -32 14q-16 13 -16 34zM12 316q0 15 14 32q13 16 34 16 q15 0 32 -14q16 -16 16 -34q0 -20 -14 -34t-34 -14q-15 0 -32 14q-16 13 -16 34zM12 444q0 15 14 32q13 16 34 16q15 0 32 -14q16 -16 16 -34q0 -20 -14 -34t-34 -14q-15 0 -32 14q-16 13 -16 34zM12 572q0 15 14 32q13 16 34 16q15 0 32 -14q16 -16 16 -34q0 -20 -14 -34 t-34 -14q-15 0 -32 14q-16 13 -16 34zM12 700q0 15 14 32q13 16 34 16q15 0 32 -14q16 -16 16 -34q0 -20 -14 -34t-34 -14q-15 0 -32 14q-16 13 -16 34zM12 828q0 15 14 32q13 16 34 16q15 0 32 -14q16 -16 16 -34q0 -20 -14 -34t-34 -14q-15 0 -32 14q-16 13 -16 34z M140 60q0 15 14 32q13 16 34 16q15 0 32 -14q16 -16 16 -34q0 -20 -14 -34t-34 -14q-15 0 -32 14q-16 13 -16 34zM140 444q0 15 14 32q13 16 34 16q15 0 32 -14q16 -16 16 -34q0 -20 -14 -34t-34 -14q-15 0 -32 14q-16 13 -16 34zM140 828q0 15 14 32q13 16 34 16 q15 0 32 -14q16 -16 16 -34q0 -20 -14 -34t-34 -14q-15 0 -32 14q-16 13 -16 34zM268 60q0 15 14 32q13 16 34 16q15 0 32 -14q16 -16 16 -34q0 -20 -14 -34t-34 -14q-15 0 -32 14q-16 13 -16 34zM268 444q0 15 14 32q13 16 34 16q15 0 32 -14q16 -16 16 -34q0 -20 -14 -34 t-34 -14q-15 0 -32 14q-16 13 -16 34zM268 828q0 15 14 32q13 16 34 16q15 0 32 -14q16 -16 16 -34q0 -20 -14 -34t-34 -14q-15 0 -32 14q-16 13 -16 34zM396 60q0 15 14 32q13 16 34 16q15 0 32 -14q16 -16 16 -34q0 -20 -14 -34t-34 -14q-15 0 -32 14q-16 13 -16 34z M396 444q0 15 14 32q13 16 34 16q15 0 32 -14q16 -16 16 -34q0 -20 -14 -34t-34 -14q-15 0 -32 14q-16 13 -16 34zM396 828q0 15 14 32q13 16 34 16q15 0 32 -14q16 -16 16 -34q0 -20 -14 -34t-34 -14q-15 0 -32 14q-16 13 -16 34zM524 188q0 15 14 32q13 16 34 16 q15 0 32 -14q16 -16 16 -34q0 -20 -14 -34t-34 -14q-15 0 -32 14q-16 13 -16 34zM524 316q0 15 14 32q13 16 34 16q15 0 32 -14q16 -16 16 -34q0 -20 -14 -34t-34 -14q-15 0 -32 14q-16 13 -16 34zM524 572q0 15 14 32q13 16 34 16q15 0 32 -14q16 -16 16 -34q0 -20 -14 -34 t-34 -14q-15 0 -32 14q-16 13 -16 34zM524 700q0 15 14 32q13 16 34 16q15 0 32 -14q16 -16 16 -34q0 -20 -14 -34t-34 -14q-15 0 -32 14q-16 13 -16 34z" />
<glyph unicode="C" d="M12 188q0 15 14 32q13 16 34 16q15 0 32 -14q16 -16 16 -34q0 -20 -14 -34t-34 -14q-15 0 -32 14q-16 13 -16 34zM12 316q0 15 14 32q13 16 34 16q15 0 32 -14q16 -16 16 -34q0 -20 -14 -34t-34 -14q-15 0 -32 14q-16 13 -16 34zM12 444q0 15 14 32q13 16 34 16 q15 0 32 -14q16 -16 16 -34q0 -20 -14 -34t-34 -14q-15 0 -32 14q-16 13 -16 34zM12 572q0 15 14 32q13 16 34 16q15 0 32 -14q16 -16 16 -34q0 -20 -14 -34t-34 -14q-15 0 -32 14q-16 13 -16 34zM12 700q0 15 14 32q13 16 34 16q15 0 32 -14q16 -16 16 -34q0 -20 -14 -34 t-34 -14q-15 0 -32 14q-16 13 -16 34zM140 60q0 15 14 32q13 16 34 16q15 0 32 -14q16 -16 16 -34q0 -20 -14 -34t-34 -14q-15 0 -32 14q-16 13 -16 34zM140 828q0 15 14 32q13 16 34 16q15 0 32 -14q16 -16 16 -34q0 -20 -14 -34t-34 -14q-15 0 -32 14q-16 13 -16 34z M268 60q0 15 14 32q13 16 34 16q15 0 32 -14q16 -16 16 -34q0 -20 -14 -34t-34 -14q-15 0 -32 14q-16 13 -16 34zM268 828q0 15 14 32q13 16 34 16q15 0 32 -14q16 -16 16 -34q0 -20 -14 -34t-34 -14q-15 0 -32 14q-16 13 -16 34zM396 60q0 15 14 32q13 16 34 16 q15 0 32 -14q16 -16 16 -34q0 -20 -14 -34t-34 -14q-15 0 -32 14q-16 13 -16 34zM396 828q0 15 14 32q13 16 34 16q15 0 32 -14q16 -16 16 -34q0 -20 -14 -34t-34 -14q-15 0 -32 14q-16 13 -16 34zM524 188q0 15 14 32q13 16 34 16q15 0 32 -14q16 -16 16 -34q0 -20 -14 -34 t-34 -14q-15 0 -32 14q-16 13 -16 34zM524 700q0 15 14 32q13 16 34 16q15 0 32 -14q16 -16 16 -34q0 -20 -14 -34t-34 -14q-15 0 -32 14q-16 13 -16 34z" />
<glyph unicode="D" d="M12 60q0 15 14 32q13 16 34 16q15 0 32 -14q16 -16 16 -34q0 -20 -14 -34t-34 -14q-15 0 -32 14q-16 13 -16 34zM12 188q0 15 14 32q13 16 34 16q15 0 32 -14q16 -16 16 -34q0 -20 -14 -34t-34 -14q-15 0 -32 14q-16 13 -16 34zM12 316q0 15 14 32q13 16 34 16 q15 0 32 -14q16 -16 16 -34q0 -20 -14 -34t-34 -14q-15 0 -32 14q-16 13 -16 34zM12 444q0 15 14 32q13 16 34 16q15 0 32 -14q16 -16 16 -34q0 -20 -14 -34t-34 -14q-15 0 -32 14q-16 13 -16 34zM12 572q0 15 14 32q13 16 34 16q15 0 32 -14q16 -16 16 -34q0 -20 -14 -34 t-34 -14q-15 0 -32 14q-16 13 -16 34zM12 700q0 15 14 32q13 16 34 16q15 0 32 -14q16 -16 16 -34q0 -20 -14 -34t-34 -14q-15 0 -32 14q-16 13 -16 34zM12 828q0 15 14 32q13 16 34 16q15 0 32 -14q16 -16 16 -34q0 -20 -14 -34t-34 -14q-15 0 -32 14q-16 13 -16 34z M140 60q0 15 14 32q13 16 34 16q15 0 32 -14q16 -16 16 -34q0 -20 -14 -34t-34 -14q-15 0 -32 14q-16 13 -16 34zM140 828q0 15 14 32q13 16 34 16q15 0 32 -14q16 -16 16 -34q0 -20 -14 -34t-34 -14q-15 0 -32 14q-16 13 -16 34zM268 60q0 15 14 32q13 16 34 16 q15 0 32 -14q16 -16 16 -34q0 -20 -14 -34t-34 -14q-15 0 -32 14q-16 13 -16 34zM268 828q0 15 14 32q13 16 34 16q15 0 32 -14q16 -16 16 -34q0 -20 -14 -34t-34 -14q-15 0 -32 14q-16 13 -16 34zM396 60q0 15 14 32q13 16 34 16q15 0 32 -14q16 -16 16 -34q0 -20 -14 -34 t-34 -14q-15 0 -32 14q-16 13 -16 34zM396 828q0 15 14 32q13 16 34 16q15 0 32 -14q16 -16 16 -34q0 -20 -14 -34t-34 -14q-15 0 -32 14q-16 13 -16 34zM524 188q0 15 14 32q13 16 34 16q15 0 32 -14q16 -16 16 -34q0 -20 -14 -34t-34 -14q-15 0 -32 14q-16 13 -16 34z M524 316q0 15 14 32q13 16 34 16q15 0 32 -14q16 -16 16 -34q0 -20 -14 -34t-34 -14q-15 0 -32 14q-16 13 -16 34zM524 444q0 15 14 32q13 16 34 16q15 0 32 -14q16 -16 16 -34q0 -20 -14 -34t-34 -14q-15 0 -32 14q-16 13 -16 34zM524 572q0 15 14 32q13 16 34 16 q15 0 32 -14q16 -16 16 -34q0 -20 -14 -34t-34 -14q-15 0 -32 14q-16 13 -16 34zM524 700q0 15 14 32q13 16 34 16q15 0 32 -14q16 -16 16 -34q0 -20 -14 -34t-34 -14q-15 0 -32 14q-16 13 -16 34z" />
<glyph unicode="E" d="M12 60q0 15 14 32q13 16 34 16q15 0 32 -14q16 -16 16 -34q0 -20 -14 -34t-34 -14q-15 0 -32 14q-16 13 -16 34zM12 188q0 15 14 32q13 16 34 16q15 0 32 -14q16 -16 16 -34q0 -20 -14 -34t-34 -14q-15 0 -32 14q-16 13 -16 34zM12 316q0 15 14 32q13 16 34 16 q15 0 32 -14q16 -16 16 -34q0 -20 -14 -34t-34 -14q-15 0 -32 14q-16 13 -16 34zM12 444q0 15 14 32q13 16 34 16q15 0 32 -14q16 -16 16 -34q0 -20 -14 -34t-34 -14q-15 0 -32 14q-16 13 -16 34zM12 572q0 15 14 32q13 16 34 16q15 0 32 -14q16 -16 16 -34q0 -20 -14 -34 t-34 -14q-15 0 -32 14q-16 13 -16 34zM12 700q0 15 14 32q13 16 34 16q15 0 32 -14q16 -16 16 -34q0 -20 -14 -34t-34 -14q-15 0 -32 14q-16 13 -16 34zM12 828q0 15 14 32q13 16 34 16q15 0 32 -14q16 -16 16 -34q0 -20 -14 -34t-34 -14q-15 0 -32 14q-16 13 -16 34z M140 60q0 15 14 32q13 16 34 16q15 0 32 -14q16 -16 16 -34q0 -20 -14 -34t-34 -14q-15 0 -32 14q-16 13 -16 34zM140 444q0 15 14 32q13 16 34 16q15 0 32 -14q16 -16 16 -34q0 -20 -14 -34t-34 -14q-15 0 -32 14q-16 13 -16 34zM140 828q0 15 14 32q13 16 34 16 q15 0 32 -14q16 -16 16 -34q0 -20 -14 -34t-34 -14q-15 0 -32 14q-16 13 -16 34zM268 60q0 15 14 32q13 16 34 16q15 0 32 -14q16 -16 16 -34q0 -20 -14 -34t-34 -14q-15 0 -32 14q-16 13 -16 34zM268 444q0 15 14 32q13 16 34 16q15 0 32 -14q16 -16 16 -34q0 -20 -14 -34 t-34 -14q-15 0 -32 14q-16 13 -16 34zM268 828q0 15 14 32q13 16 34 16q15 0 32 -14q16 -16 16 -34q0 -20 -14 -34t-34 -14q-15 0 -32 14q-16 13 -16 34zM396 60q0 15 14 32q13 16 34 16q15 0 32 -14q16 -16 16 -34q0 -20 -14 -34t-34 -14q-15 0 -32 14q-16 13 -16 34z M396 444q0 15 14 32q13 16 34 16q15 0 32 -14q16 -16 16 -34q0 -20 -14 -34t-34 -14q-15 0 -32 14q-16 13 -16 34zM396 828q0 15 14 32q13 16 34 16q15 0 32 -14q16 -16 16 -34q0 -20 -14 -34t-34 -14q-15 0 -32 14q-16 13 -16 34zM524 60q0 15 14 32q13 16 34 16 q15 0 32 -14q16 -16 16 -34q0 -20 -14 -34t-34 -14q-15 0 -32 14q-16 13 -16 34zM524 828q0 15 14 32q13 16 34 16q15 0 32 -14q16 -16 16 -34q0 -20 -14 -34t-34 -14q-15 0 -32 14q-16 13 -16 34z" />
<glyph unicode="F" d="M12 60q0 15 14 32q13 16 34 16q15 0 32 -14q16 -16 16 -34q0 -20 -14 -34t-34 -14q-15 0 -32 14q-16 13 -16 34zM12 188q0 15 14 32q13 16 34 16q15 0 32 -14q16 -16 16 -34q0 -20 -14 -34t-34 -14q-15 0 -32 14q-16 13 -16 34zM12 316q0 15 14 32q13 16 34 16 q15 0 32 -14q16 -16 16 -34q0 -20 -14 -34t-34 -14q-15 0 -32 14q-16 13 -16 34zM12 444q0 15 14 32q13 16 34 16q15 0 32 -14q16 -16 16 -34q0 -20 -14 -34t-34 -14q-15 0 -32 14q-16 13 -16 34zM12 572q0 15 14 32q13 16 34 16q15 0 32 -14q16 -16 16 -34q0 -20 -14 -34 t-34 -14q-15 0 -32 14q-16 13 -16 34zM12 700q0 15 14 32q13 16 34 16q15 0 32 -14q16 -16 16 -34q0 -20 -14 -34t-34 -14q-15 0 -32 14q-16 13 -16 34zM12 828q0 15 14 32q13 16 34 16q15 0 32 -14q16 -16 16 -34q0 -20 -14 -34t-34 -14q-15 0 -32 14q-16 13 -16 34z M140 444q0 15 14 32q13 16 34 16q15 0 32 -14q16 -16 16 -34q0 -20 -14 -34t-34 -14q-15 0 -32 14q-16 13 -16 34zM140 828q0 15 14 32q13 16 34 16q15 0 32 -14q16 -16 16 -34q0 -20 -14 -34t-34 -14q-15 0 -32 14q-16 13 -16 34zM268 444q0 15 14 32q13 16 34 16 q15 0 32 -14q16 -16 16 -34q0 -20 -14 -34t-34 -14q-15 0 -32 14q-16 13 -16 34zM268 828q0 15 14 32q13 16 34 16q15 0 32 -14q16 -16 16 -34q0 -20 -14 -34t-34 -14q-15 0 -32 14q-16 13 -16 34zM396 444q0 15 14 32q13 16 34 16q15 0 32 -14q16 -16 16 -34q0 -20 -14 -34 t-34 -14q-15 0 -32 14q-16 13 -16 34zM396 828q0 15 14 32q13 16 34 16q15 0 32 -14q16 -16 16 -34q0 -20 -14 -34t-34 -14q-15 0 -32 14q-16 13 -16 34zM524 828q0 15 14 32q13 16 34 16q15 0 32 -14q16 -16 16 -34q0 -20 -14 -34t-34 -14q-15 0 -32 14q-16 13 -16 34z" />
<glyph unicode="G" d="M12 188q0 15 14 32q13 16 34 16q15 0 32 -14q16 -16 16 -34q0 -20 -14 -34t-34 -14q-15 0 -32 14q-16 13 -16 34zM12 316q0 15 14 32q13 16 34 16q15 0 32 -14q16 -16 16 -34q0 -20 -14 -34t-34 -14q-15 0 -32 14q-16 13 -16 34zM12 444q0 15 14 32q13 16 34 16 q15 0 32 -14q16 -16 16 -34q0 -20 -14 -34t-34 -14q-15 0 -32 14q-16 13 -16 34zM12 572q0 15 14 32q13 16 34 16q15 0 32 -14q16 -16 16 -34q0 -20 -14 -34t-34 -14q-15 0 -32 14q-16 13 -16 34zM12 700q0 15 14 32q13 16 34 16q15 0 32 -14q16 -16 16 -34q0 -20 -14 -34 t-34 -14q-15 0 -32 14q-16 13 -16 34zM140 60q0 15 14 32q13 16 34 16q15 0 32 -14q16 -16 16 -34q0 -20 -14 -34t-34 -14q-15 0 -32 14q-16 13 -16 34zM140 828q0 15 14 32q13 16 34 16q15 0 32 -14q16 -16 16 -34q0 -20 -14 -34t-34 -14q-15 0 -32 14q-16 13 -16 34z M268 60q0 15 14 32q13 16 34 16q15 0 32 -14q16 -16 16 -34q0 -20 -14 -34t-34 -14q-15 0 -32 14q-16 13 -16 34zM268 444q0 15 14 32q13 16 34 16q15 0 32 -14q16 -16 16 -34q0 -20 -14 -34t-34 -14q-15 0 -32 14q-16 13 -16 34zM268 828q0 15 14 32q13 16 34 16 q15 0 32 -14q16 -16 16 -34q0 -20 -14 -34t-34 -14q-15 0 -32 14q-16 13 -16 34zM396 60q0 15 14 32q13 16 34 16q15 0 32 -14q16 -16 16 -34q0 -20 -14 -34t-34 -14q-15 0 -32 14q-16 13 -16 34zM396 444q0 15 14 32q13 16 34 16q15 0 32 -14q16 -16 16 -34q0 -20 -14 -34 t-34 -14q-15 0 -32 14q-16 13 -16 34zM396 828q0 15 14 32q13 16 34 16q15 0 32 -14q16 -16 16 -34q0 -20 -14 -34t-34 -14q-15 0 -32 14q-16 13 -16 34zM524 188q0 15 14 32q13 16 34 16q15 0 32 -14q16 -16 16 -34q0 -20 -14 -34t-34 -14q-15 0 -32 14q-16 13 -16 34z M524 316q0 15 14 32q13 16 34 16q15 0 32 -14q16 -16 16 -34q0 -20 -14 -34t-34 -14q-15 0 -32 14q-16 13 -16 34zM524 444q0 15 14 32q13 16 34 16q15 0 32 -14q16 -16 16 -34q0 -20 -14 -34t-34 -14q-15 0 -32 14q-16 13 -16 34zM524 700q0 15 14 32q13 16 34 16 q15 0 32 -14q16 -16 16 -34q0 -20 -14 -34t-34 -14q-15 0 -32 14q-16 13 -16 34z" />
<glyph unicode="H" d="M12 60q0 15 14 32q13 16 34 16q15 0 32 -14q16 -16 16 -34q0 -20 -14 -34t-34 -14q-15 0 -32 14q-16 13 -16 34zM12 188q0 15 14 32q13 16 34 16q15 0 32 -14q16 -16 16 -34q0 -20 -14 -34t-34 -14q-15 0 -32 14q-16 13 -16 34zM12 316q0 15 14 32q13 16 34 16 q15 0 32 -14q16 -16 16 -34q0 -20 -14 -34t-34 -14q-15 0 -32 14q-16 13 -16 34zM12 444q0 15 14 32q13 16 34 16q15 0 32 -14q16 -16 16 -34q0 -20 -14 -34t-34 -14q-15 0 -32 14q-16 13 -16 34zM12 572q0 15 14 32q13 16 34 16q15 0 32 -14q16 -16 16 -34q0 -20 -14 -34 t-34 -14q-15 0 -32 14q-16 13 -16 34zM12 700q0 15 14 32q13 16 34 16q15 0 32 -14q16 -16 16 -34q0 -20 -14 -34t-34 -14q-15 0 -32 14q-16 13 -16 34zM12 828q0 15 14 32q13 16 34 16q15 0 32 -14q16 -16 16 -34q0 -20 -14 -34t-34 -14q-15 0 -32 14q-16 13 -16 34z M140 444q0 15 14 32q13 16 34 16q15 0 32 -14q16 -16 16 -34q0 -20 -14 -34t-34 -14q-15 0 -32 14q-16 13 -16 34zM268 444q0 15 14 32q13 16 34 16q15 0 32 -14q16 -16 16 -34q0 -20 -14 -34t-34 -14q-15 0 -32 14q-16 13 -16 34zM396 444q0 15 14 32q13 16 34 16 q15 0 32 -14q16 -16 16 -34q0 -20 -14 -34t-34 -14q-15 0 -32 14q-16 13 -16 34zM524 60q0 15 14 32q13 16 34 16q15 0 32 -14q16 -16 16 -34q0 -20 -14 -34t-34 -14q-15 0 -32 14q-16 13 -16 34zM524 188q0 15 14 32q13 16 34 16q15 0 32 -14q16 -16 16 -34q0 -20 -14 -34 t-34 -14q-15 0 -32 14q-16 13 -16 34zM524 316q0 15 14 32q13 16 34 16q15 0 32 -14q16 -16 16 -34q0 -20 -14 -34t-34 -14q-15 0 -32 14q-16 13 -16 34zM524 444q0 15 14 32q13 16 34 16q15 0 32 -14q16 -16 16 -34q0 -20 -14 -34t-34 -14q-15 0 -32 14q-16 13 -16 34z M524 572q0 15 14 32q13 16 34 16q15 0 32 -14q16 -16 16 -34q0 -20 -14 -34t-34 -14q-15 0 -32 14q-16 13 -16 34zM524 700q0 15 14 32q13 16 34 16q15 0 32 -14q16 -16 16 -34q0 -20 -14 -34t-34 -14q-15 0 -32 14q-16 13 -16 34zM524 828q0 15 14 32q13 16 34 16 q15 0 32 -14q16 -16 16 -34q0 -20 -14 -34t-34 -14q-15 0 -32 14q-16 13 -16 34z" />
<glyph unicode="I" horiz-adv-x="768" d="M140 60q0 15 14 32q13 16 34 16q15 0 32 -14q16 -16 16 -34q0 -20 -14 -34t-34 -14q-15 0 -32 14q-16 13 -16 34zM140 828q0 15 14 32q13 16 34 16q15 0 32 -14q16 -16 16 -34q0 -20 -14 -34t-34 -14q-15 0 -32 14q-16 13 -16 34zM268 60q0 15 14 32q13 16 34 16 q15 0 32 -14q16 -16 16 -34q0 -20 -14 -34t-34 -14q-15 0 -32 14q-16 13 -16 34zM268 188q0 15 14 32q13 16 34 16q15 0 32 -14q16 -16 16 -34q0 -20 -14 -34t-34 -14q-15 0 -32 14q-16 13 -16 34zM268 316q0 15 14 32q13 16 34 16q15 0 32 -14q16 -16 16 -34q0 -20 -14 -34 t-34 -14q-15 0 -32 14q-16 13 -16 34zM268 444q0 15 14 32q13 16 34 16q15 0 32 -14q16 -16 16 -34q0 -20 -14 -34t-34 -14q-15 0 -32 14q-16 13 -16 34zM268 572q0 15 14 32q13 16 34 16q15 0 32 -14q16 -16 16 -34q0 -20 -14 -34t-34 -14q-15 0 -32 14q-16 13 -16 34z M268 700q0 15 14 32q13 16 34 16q15 0 32 -14q16 -16 16 -34q0 -20 -14 -34t-34 -14q-15 0 -32 14q-16 13 -16 34zM268 828q0 15 14 32q13 16 34 16q15 0 32 -14q16 -16 16 -34q0 -20 -14 -34t-34 -14q-15 0 -32 14q-16 13 -16 34zM396 60q0 15 14 32q13 16 34 16 q15 0 32 -14q16 -16 16 -34q0 -20 -14 -34t-34 -14q-15 0 -32 14q-16 13 -16 34zM396 828q0 15 14 32q13 16 34 16q15 0 32 -14q16 -16 16 -34q0 -20 -14 -34t-34 -14q-15 0 -32 14q-16 13 -16 34z" />
<glyph unicode="J" d="M12 188q0 15 14 32q13 16 34 16q15 0 32 -14q16 -16 16 -34q0 -20 -14 -34t-34 -14q-15 0 -32 14q-16 13 -16 34zM140 60q0 15 14 32q13 16 34 16q15 0 32 -14q16 -16 16 -34q0 -20 -14 -34t-34 -14q-15 0 -32 14q-16 13 -16 34zM140 828q0 15 14 32q13 16 34 16 q15 0 32 -14q16 -16 16 -34q0 -20 -14 -34t-34 -14q-15 0 -32 14q-16 13 -16 34zM268 60q0 15 14 32q13 16 34 16q15 0 32 -14q16 -16 16 -34q0 -20 -14 -34t-34 -14q-15 0 -32 14q-16 13 -16 34zM268 828q0 15 14 32q13 16 34 16q15 0 32 -14q16 -16 16 -34q0 -20 -14 -34 t-34 -14q-15 0 -32 14q-16 13 -16 34zM396 188q0 15 14 32q13 16 34 16q15 0 32 -14q16 -16 16 -34q0 -20 -14 -34t-34 -14q-15 0 -32 14q-16 13 -16 34zM396 316q0 15 14 32q13 16 34 16q15 0 32 -14q16 -16 16 -34q0 -20 -14 -34t-34 -14q-15 0 -32 14q-16 13 -16 34z M396 444q0 15 14 32q13 16 34 16q15 0 32 -14q16 -16 16 -34q0 -20 -14 -34t-34 -14q-15 0 -32 14q-16 13 -16 34zM396 572q0 15 14 32q13 16 34 16q15 0 32 -14q16 -16 16 -34q0 -20 -14 -34t-34 -14q-15 0 -32 14q-16 13 -16 34zM396 700q0 15 14 32q13 16 34 16 q15 0 32 -14q16 -16 16 -34q0 -20 -14 -34t-34 -14q-15 0 -32 14q-16 13 -16 34zM396 828q0 15 14 32q13 16 34 16q15 0 32 -14q16 -16 16 -34q0 -20 -14 -34t-34 -14q-15 0 -32 14q-16 13 -16 34zM524 828q0 15 14 32q13 16 34 16q15 0 32 -14q16 -16 16 -34q0 -20 -14 -34 t-34 -14q-15 0 -32 14q-16 13 -16 34z" />
<glyph unicode="K" d="M12 60q0 15 14 32q13 16 34 16q15 0 32 -14q16 -16 16 -34q0 -20 -14 -34t-34 -14q-15 0 -32 14q-16 13 -16 34zM12 188q0 15 14 32q13 16 34 16q15 0 32 -14q16 -16 16 -34q0 -20 -14 -34t-34 -14q-15 0 -32 14q-16 13 -16 34zM12 316q0 15 14 32q13 16 34 16 q15 0 32 -14q16 -16 16 -34q0 -20 -14 -34t-34 -14q-15 0 -32 14q-16 13 -16 34zM12 444q0 15 14 32q13 16 34 16q15 0 32 -14q16 -16 16 -34q0 -20 -14 -34t-34 -14q-15 0 -32 14q-16 13 -16 34zM12 572q0 15 14 32q13 16 34 16q15 0 32 -14q16 -16 16 -34q0 -20 -14 -34 t-34 -14q-15 0 -32 14q-16 13 -16 34zM12 700q0 15 14 32q13 16 34 16q15 0 32 -14q16 -16 16 -34q0 -20 -14 -34t-34 -14q-15 0 -32 14q-16 13 -16 34zM12 828q0 15 14 32q13 16 34 16q15 0 32 -14q16 -16 16 -34q0 -20 -14 -34t-34 -14q-15 0 -32 14q-16 13 -16 34z M140 444q0 15 14 32q13 16 34 16q15 0 32 -14q16 -16 16 -34q0 -20 -14 -34t-34 -14q-15 0 -32 14q-16 13 -16 34zM268 316q0 15 14 32q13 16 34 16q15 0 32 -14q16 -16 16 -34q0 -20 -14 -34t-34 -14q-15 0 -32 14q-16 13 -16 34zM268 572q0 15 14 32q13 16 34 16 q15 0 32 -14q16 -16 16 -34q0 -20 -14 -34t-34 -14q-15 0 -32 14q-16 13 -16 34zM396 188q0 15 14 32q13 16 34 16q15 0 32 -14q16 -16 16 -34q0 -20 -14 -34t-34 -14q-15 0 -32 14q-16 13 -16 34zM396 700q0 15 14 32q13 16 34 16q15 0 32 -14q16 -16 16 -34q0 -20 -14 -34 t-34 -14q-15 0 -32 14q-16 13 -16 34zM524 60q0 15 14 32q13 16 34 16q15 0 32 -14q16 -16 16 -34q0 -20 -14 -34t-34 -14q-15 0 -32 14q-16 13 -16 34zM524 828q0 15 14 32q13 16 34 16q15 0 32 -14q16 -16 16 -34q0 -20 -14 -34t-34 -14q-15 0 -32 14q-16 13 -16 34z" />
<glyph unicode="L" d="M12 60q0 15 14 32q13 16 34 16q15 0 32 -14q16 -16 16 -34q0 -20 -14 -34t-34 -14q-15 0 -32 14q-16 13 -16 34zM12 188q0 15 14 32q13 16 34 16q15 0 32 -14q16 -16 16 -34q0 -20 -14 -34t-34 -14q-15 0 -32 14q-16 13 -16 34zM12 316q0 15 14 32q13 16 34 16 q15 0 32 -14q16 -16 16 -34q0 -20 -14 -34t-34 -14q-15 0 -32 14q-16 13 -16 34zM12 444q0 15 14 32q13 16 34 16q15 0 32 -14q16 -16 16 -34q0 -20 -14 -34t-34 -14q-15 0 -32 14q-16 13 -16 34zM12 572q0 15 14 32q13 16 34 16q15 0 32 -14q16 -16 16 -34q0 -20 -14 -34 t-34 -14q-15 0 -32 14q-16 13 -16 34zM12 700q0 15 14 32q13 16 34 16q15 0 32 -14q16 -16 16 -34q0 -20 -14 -34t-34 -14q-15 0 -32 14q-16 13 -16 34zM12 828q0 15 14 32q13 16 34 16q15 0 32 -14q16 -16 16 -34q0 -20 -14 -34t-34 -14q-15 0 -32 14q-16 13 -16 34z M140 60q0 15 14 32q13 16 34 16q15 0 32 -14q16 -16 16 -34q0 -20 -14 -34t-34 -14q-15 0 -32 14q-16 13 -16 34zM268 60q0 15 14 32q13 16 34 16q15 0 32 -14q16 -16 16 -34q0 -20 -14 -34t-34 -14q-15 0 -32 14q-16 13 -16 34zM396 60q0 15 14 32q13 16 34 16q15 0 32 -14 q16 -16 16 -34q0 -20 -14 -34t-34 -14q-15 0 -32 14q-16 13 -16 34zM524 60q0 15 14 32q13 16 34 16q15 0 32 -14q16 -16 16 -34q0 -20 -14 -34t-34 -14q-15 0 -32 14q-16 13 -16 34z" />
<glyph unicode="M" d="M12 60q0 15 14 32q13 16 34 16q15 0 32 -14q16 -16 16 -34q0 -20 -14 -34t-34 -14q-15 0 -32 14q-16 13 -16 34zM12 188q0 15 14 32q13 16 34 16q15 0 32 -14q16 -16 16 -34q0 -20 -14 -34t-34 -14q-15 0 -32 14q-16 13 -16 34zM12 316q0 15 14 32q13 16 34 16 q15 0 32 -14q16 -16 16 -34q0 -20 -14 -34t-34 -14q-15 0 -32 14q-16 13 -16 34zM12 444q0 15 14 32q13 16 34 16q15 0 32 -14q16 -16 16 -34q0 -20 -14 -34t-34 -14q-15 0 -32 14q-16 13 -16 34zM12 572q0 15 14 32q13 16 34 16q15 0 32 -14q16 -16 16 -34q0 -20 -14 -34 t-34 -14q-15 0 -32 14q-16 13 -16 34zM12 700q0 15 14 32q13 16 34 16q15 0 32 -14q16 -16 16 -34q0 -20 -14 -34t-34 -14q-15 0 -32 14q-16 13 -16 34zM12 828q0 15 14 32q13 16 34 16q15 0 32 -14q16 -16 16 -34q0 -20 -14 -34t-34 -14q-15 0 -32 14q-16 13 -16 34z M140 700q0 15 14 32q13 16 34 16q15 0 32 -14q16 -16 16 -34q0 -20 -14 -34t-34 -14q-15 0 -32 14q-16 13 -16 34zM268 444q0 15 14 32q13 16 34 16q15 0 32 -14q16 -16 16 -34q0 -20 -14 -34t-34 -14q-15 0 -32 14q-16 13 -16 34zM268 572q0 15 14 32q13 16 34 16 q15 0 32 -14q16 -16 16 -34q0 -20 -14 -34t-34 -14q-15 0 -32 14q-16 13 -16 34zM396 700q0 15 14 32q13 16 34 16q15 0 32 -14q16 -16 16 -34q0 -20 -14 -34t-34 -14q-15 0 -32 14q-16 13 -16 34zM524 60q0 15 14 32q13 16 34 16q15 0 32 -14q16 -16 16 -34q0 -20 -14 -34 t-34 -14q-15 0 -32 14q-16 13 -16 34zM524 188q0 15 14 32q13 16 34 16q15 0 32 -14q16 -16 16 -34q0 -20 -14 -34t-34 -14q-15 0 -32 14q-16 13 -16 34zM524 316q0 15 14 32q13 16 34 16q15 0 32 -14q16 -16 16 -34q0 -20 -14 -34t-34 -14q-15 0 -32 14q-16 13 -16 34z M524 444q0 15 14 32q13 16 34 16q15 0 32 -14q16 -16 16 -34q0 -20 -14 -34t-34 -14q-15 0 -32 14q-16 13 -16 34zM524 572q0 15 14 32q13 16 34 16q15 0 32 -14q16 -16 16 -34q0 -20 -14 -34t-34 -14q-15 0 -32 14q-16 13 -16 34zM524 700q0 15 14 32q13 16 34 16 q15 0 32 -14q16 -16 16 -34q0 -20 -14 -34t-34 -14q-15 0 -32 14q-16 13 -16 34zM524 828q0 15 14 32q13 16 34 16q15 0 32 -14q16 -16 16 -34q0 -20 -14 -34t-34 -14q-15 0 -32 14q-16 13 -16 34z" />
<glyph unicode="N" d="M12 60q0 15 14 32q13 16 34 16q15 0 32 -14q16 -16 16 -34q0 -20 -14 -34t-34 -14q-15 0 -32 14q-16 13 -16 34zM12 188q0 15 14 32q13 16 34 16q15 0 32 -14q16 -16 16 -34q0 -20 -14 -34t-34 -14q-15 0 -32 14q-16 13 -16 34zM12 316q0 15 14 32q13 16 34 16 q15 0 32 -14q16 -16 16 -34q0 -20 -14 -34t-34 -14q-15 0 -32 14q-16 13 -16 34zM12 444q0 15 14 32q13 16 34 16q15 0 32 -14q16 -16 16 -34q0 -20 -14 -34t-34 -14q-15 0 -32 14q-16 13 -16 34zM12 572q0 15 14 32q13 16 34 16q15 0 32 -14q16 -16 16 -34q0 -20 -14 -34 t-34 -14q-15 0 -32 14q-16 13 -16 34zM12 700q0 15 14 32q13 16 34 16q15 0 32 -14q16 -16 16 -34q0 -20 -14 -34t-34 -14q-15 0 -32 14q-16 13 -16 34zM12 828q0 15 14 32q13 16 34 16q15 0 32 -14q16 -16 16 -34q0 -20 -14 -34t-34 -14q-15 0 -32 14q-16 13 -16 34z M140 700q0 15 14 32q13 16 34 16q15 0 32 -14q16 -16 16 -34q0 -20 -14 -34t-34 -14q-15 0 -32 14q-16 13 -16 34zM268 572q0 15 14 32q13 16 34 16q15 0 32 -14q16 -16 16 -34q0 -20 -14 -34t-34 -14q-15 0 -32 14q-16 13 -16 34zM396 444q0 15 14 32q13 16 34 16 q15 0 32 -14q16 -16 16 -34q0 -20 -14 -34t-34 -14q-15 0 -32 14q-16 13 -16 34zM524 60q0 15 14 32q13 16 34 16q15 0 32 -14q16 -16 16 -34q0 -20 -14 -34t-34 -14q-15 0 -32 14q-16 13 -16 34zM524 188q0 15 14 32q13 16 34 16q15 0 32 -14q16 -16 16 -34q0 -20 -14 -34 t-34 -14q-15 0 -32 14q-16 13 -16 34zM524 316q0 15 14 32q13 16 34 16q15 0 32 -14q16 -16 16 -34q0 -20 -14 -34t-34 -14q-15 0 -32 14q-16 13 -16 34zM524 444q0 15 14 32q13 16 34 16q15 0 32 -14q16 -16 16 -34q0 -20 -14 -34t-34 -14q-15 0 -32 14q-16 13 -16 34z M524 572q0 15 14 32q13 16 34 16q15 0 32 -14q16 -16 16 -34q0 -20 -14 -34t-34 -14q-15 0 -32 14q-16 13 -16 34zM524 700q0 15 14 32q13 16 34 16q15 0 32 -14q16 -16 16 -34q0 -20 -14 -34t-34 -14q-15 0 -32 14q-16 13 -16 34zM524 828q0 15 14 32q13 16 34 16 q15 0 32 -14q16 -16 16 -34q0 -20 -14 -34t-34 -14q-15 0 -32 14q-16 13 -16 34z" />
<glyph unicode="O" d="M12 188q0 15 14 32q13 16 34 16q15 0 32 -14q16 -16 16 -34q0 -20 -14 -34t-34 -14q-15 0 -32 14q-16 13 -16 34zM12 316q0 15 14 32q13 16 34 16q15 0 32 -14q16 -16 16 -34q0 -20 -14 -34t-34 -14q-15 0 -32 14q-16 13 -16 34zM12 444q0 15 14 32q13 16 34 16 q15 0 32 -14q16 -16 16 -34q0 -20 -14 -34t-34 -14q-15 0 -32 14q-16 13 -16 34zM12 572q0 15 14 32q13 16 34 16q15 0 32 -14q16 -16 16 -34q0 -20 -14 -34t-34 -14q-15 0 -32 14q-16 13 -16 34zM12 700q0 15 14 32q13 16 34 16q15 0 32 -14q16 -16 16 -34q0 -20 -14 -34 t-34 -14q-15 0 -32 14q-16 13 -16 34zM140 60q0 15 14 32q13 16 34 16q15 0 32 -14q16 -16 16 -34q0 -20 -14 -34t-34 -14q-15 0 -32 14q-16 13 -16 34zM140 828q0 15 14 32q13 16 34 16q15 0 32 -14q16 -16 16 -34q0 -20 -14 -34t-34 -14q-15 0 -32 14q-16 13 -16 34z M268 60q0 15 14 32q13 16 34 16q15 0 32 -14q16 -16 16 -34q0 -20 -14 -34t-34 -14q-15 0 -32 14q-16 13 -16 34zM268 828q0 15 14 32q13 16 34 16q15 0 32 -14q16 -16 16 -34q0 -20 -14 -34t-34 -14q-15 0 -32 14q-16 13 -16 34zM396 60q0 15 14 32q13 16 34 16 q15 0 32 -14q16 -16 16 -34q0 -20 -14 -34t-34 -14q-15 0 -32 14q-16 13 -16 34zM396 828q0 15 14 32q13 16 34 16q15 0 32 -14q16 -16 16 -34q0 -20 -14 -34t-34 -14q-15 0 -32 14q-16 13 -16 34zM524 188q0 15 14 32q13 16 34 16q15 0 32 -14q16 -16 16 -34q0 -20 -14 -34 t-34 -14q-15 0 -32 14q-16 13 -16 34zM524 316q0 15 14 32q13 16 34 16q15 0 32 -14q16 -16 16 -34q0 -20 -14 -34t-34 -14q-15 0 -32 14q-16 13 -16 34zM524 444q0 15 14 32q13 16 34 16q15 0 32 -14q16 -16 16 -34q0 -20 -14 -34t-34 -14q-15 0 -32 14q-16 13 -16 34z M524 572q0 15 14 32q13 16 34 16q15 0 32 -14q16 -16 16 -34q0 -20 -14 -34t-34 -14q-15 0 -32 14q-16 13 -16 34zM524 700q0 15 14 32q13 16 34 16q15 0 32 -14q16 -16 16 -34q0 -20 -14 -34t-34 -14q-15 0 -32 14q-16 13 -16 34z" />
<glyph unicode="P" d="M12 60q0 15 14 32q13 16 34 16q15 0 32 -14q16 -16 16 -34q0 -20 -14 -34t-34 -14q-15 0 -32 14q-16 13 -16 34zM12 188q0 15 14 32q13 16 34 16q15 0 32 -14q16 -16 16 -34q0 -20 -14 -34t-34 -14q-15 0 -32 14q-16 13 -16 34zM12 316q0 15 14 32q13 16 34 16 q15 0 32 -14q16 -16 16 -34q0 -20 -14 -34t-34 -14q-15 0 -32 14q-16 13 -16 34zM12 444q0 15 14 32q13 16 34 16q15 0 32 -14q16 -16 16 -34q0 -20 -14 -34t-34 -14q-15 0 -32 14q-16 13 -16 34zM12 572q0 15 14 32q13 16 34 16q15 0 32 -14q16 -16 16 -34q0 -20 -14 -34 t-34 -14q-15 0 -32 14q-16 13 -16 34zM12 700q0 15 14 32q13 16 34 16q15 0 32 -14q16 -16 16 -34q0 -20 -14 -34t-34 -14q-15 0 -32 14q-16 13 -16 34zM12 828q0 15 14 32q13 16 34 16q15 0 32 -14q16 -16 16 -34q0 -20 -14 -34t-34 -14q-15 0 -32 14q-16 13 -16 34z M140 444q0 15 14 32q13 16 34 16q15 0 32 -14q16 -16 16 -34q0 -20 -14 -34t-34 -14q-15 0 -32 14q-16 13 -16 34zM140 828q0 15 14 32q13 16 34 16q15 0 32 -14q16 -16 16 -34q0 -20 -14 -34t-34 -14q-15 0 -32 14q-16 13 -16 34zM268 444q0 15 14 32q13 16 34 16 q15 0 32 -14q16 -16 16 -34q0 -20 -14 -34t-34 -14q-15 0 -32 14q-16 13 -16 34zM268 828q0 15 14 32q13 16 34 16q15 0 32 -14q16 -16 16 -34q0 -20 -14 -34t-34 -14q-15 0 -32 14q-16 13 -16 34zM396 444q0 15 14 32q13 16 34 16q15 0 32 -14q16 -16 16 -34q0 -20 -14 -34 t-34 -14q-15 0 -32 14q-16 13 -16 34zM396 828q0 15 14 32q13 16 34 16q15 0 32 -14q16 -16 16 -34q0 -20 -14 -34t-34 -14q-15 0 -32 14q-16 13 -16 34zM524 572q0 15 14 32q13 16 34 16q15 0 32 -14q16 -16 16 -34q0 -20 -14 -34t-34 -14q-15 0 -32 14q-16 13 -16 34z M524 700q0 15 14 32q13 16 34 16q15 0 32 -14q16 -16 16 -34q0 -20 -14 -34t-34 -14q-15 0 -32 14q-16 13 -16 34z" />
<glyph unicode="Q" d="M12 188q0 15 14 32q13 16 34 16q15 0 32 -14q16 -16 16 -34q0 -20 -14 -34t-34 -14q-15 0 -32 14q-16 13 -16 34zM12 316q0 15 14 32q13 16 34 16q15 0 32 -14q16 -16 16 -34q0 -20 -14 -34t-34 -14q-15 0 -32 14q-16 13 -16 34zM12 444q0 15 14 32q13 16 34 16 q15 0 32 -14q16 -16 16 -34q0 -20 -14 -34t-34 -14q-15 0 -32 14q-16 13 -16 34zM12 572q0 15 14 32q13 16 34 16q15 0 32 -14q16 -16 16 -34q0 -20 -14 -34t-34 -14q-15 0 -32 14q-16 13 -16 34zM12 700q0 15 14 32q13 16 34 16q15 0 32 -14q16 -16 16 -34q0 -20 -14 -34 t-34 -14q-15 0 -32 14q-16 13 -16 34zM140 60q0 15 14 32q13 16 34 16q15 0 32 -14q16 -16 16 -34q0 -20 -14 -34t-34 -14q-15 0 -32 14q-16 13 -16 34zM140 828q0 15 14 32q13 16 34 16q15 0 32 -14q16 -16 16 -34q0 -20 -14 -34t-34 -14q-15 0 -32 14q-16 13 -16 34z M268 60q0 15 14 32q13 16 34 16q15 0 32 -14q16 -16 16 -34q0 -20 -14 -34t-34 -14q-15 0 -32 14q-16 13 -16 34zM268 828q0 15 14 32q13 16 34 16q15 0 32 -14q16 -16 16 -34q0 -20 -14 -34t-34 -14q-15 0 -32 14q-16 13 -16 34zM396 60q0 15 14 32q13 16 34 16 q15 0 32 -14q16 -16 16 -34q0 -20 -14 -34t-34 -14q-15 0 -32 14q-16 13 -16 34zM396 -66q0 15 14 32q13 16 34 16q15 0 32 -14q16 -16 16 -34q0 -20 -14 -34t-34 -14q-15 0 -32 14q-16 13 -16 34zM396 828q0 15 14 32q13 16 34 16q15 0 32 -14q16 -16 16 -34q0 -20 -14 -34 t-34 -14q-15 0 -32 14q-16 13 -16 34zM524 188q0 15 14 32q13 16 34 16q15 0 32 -14q16 -16 16 -34q0 -20 -14 -34t-34 -14q-15 0 -32 14q-16 13 -16 34zM524 -194q0 15 14 32q13 16 34 16q15 0 32 -14q16 -16 16 -34q0 -20 -14 -34t-34 -14q-15 0 -32 14q-16 13 -16 34z M524 316q0 15 14 32q13 16 34 16q15 0 32 -14q16 -16 16 -34q0 -20 -14 -34t-34 -14q-15 0 -32 14q-16 13 -16 34zM524 444q0 15 14 32q13 16 34 16q15 0 32 -14q16 -16 16 -34q0 -20 -14 -34t-34 -14q-15 0 -32 14q-16 13 -16 34zM524 572q0 15 14 32q13 16 34 16 q15 0 32 -14q16 -16 16 -34q0 -20 -14 -34t-34 -14q-15 0 -32 14q-16 13 -16 34zM524 700q0 15 14 32q13 16 34 16q15 0 32 -14q16 -16 16 -34q0 -20 -14 -34t-34 -14q-15 0 -32 14q-16 13 -16 34z" />
<glyph unicode="R" d="M12 60q0 15 14 32q13 16 34 16q15 0 32 -14q16 -16 16 -34q0 -20 -14 -34t-34 -14q-15 0 -32 14q-16 13 -16 34zM12 188q0 15 14 32q13 16 34 16q15 0 32 -14q16 -16 16 -34q0 -20 -14 -34t-34 -14q-15 0 -32 14q-16 13 -16 34zM12 316q0 15 14 32q13 16 34 16 q15 0 32 -14q16 -16 16 -34q0 -20 -14 -34t-34 -14q-15 0 -32 14q-16 13 -16 34zM12 444q0 15 14 32q13 16 34 16q15 0 32 -14q16 -16 16 -34q0 -20 -14 -34t-34 -14q-15 0 -32 14q-16 13 -16 34zM12 572q0 15 14 32q13 16 34 16q15 0 32 -14q16 -16 16 -34q0 -20 -14 -34 t-34 -14q-15 0 -32 14q-16 13 -16 34zM12 700q0 15 14 32q13 16 34 16q15 0 32 -14q16 -16 16 -34q0 -20 -14 -34t-34 -14q-15 0 -32 14q-16 13 -16 34zM12 828q0 15 14 32q13 16 34 16q15 0 32 -14q16 -16 16 -34q0 -20 -14 -34t-34 -14q-15 0 -32 14q-16 13 -16 34z M140 444q0 15 14 32q13 16 34 16q15 0 32 -14q16 -16 16 -34q0 -20 -14 -34t-34 -14q-15 0 -32 14q-16 13 -16 34zM140 828q0 15 14 32q13 16 34 16q15 0 32 -14q16 -16 16 -34q0 -20 -14 -34t-34 -14q-15 0 -32 14q-16 13 -16 34zM268 316q0 15 14 32q13 16 34 16 q15 0 32 -14q16 -16 16 -34q0 -20 -14 -34t-34 -14q-15 0 -32 14q-16 13 -16 34zM268 444q0 15 14 32q13 16 34 16q15 0 32 -14q16 -16 16 -34q0 -20 -14 -34t-34 -14q-15 0 -32 14q-16 13 -16 34zM268 828q0 15 14 32q13 16 34 16q15 0 32 -14q16 -16 16 -34q0 -20 -14 -34 t-34 -14q-15 0 -32 14q-16 13 -16 34zM396 188q0 15 14 32q13 16 34 16q15 0 32 -14q16 -16 16 -34q0 -20 -14 -34t-34 -14q-15 0 -32 14q-16 13 -16 34zM396 444q0 15 14 32q13 16 34 16q15 0 32 -14q16 -16 16 -34q0 -20 -14 -34t-34 -14q-15 0 -32 14q-16 13 -16 34z M396 828q0 15 14 32q13 16 34 16q15 0 32 -14q16 -16 16 -34q0 -20 -14 -34t-34 -14q-15 0 -32 14q-16 13 -16 34zM524 60q0 15 14 32q13 16 34 16q15 0 32 -14q16 -16 16 -34q0 -20 -14 -34t-34 -14q-15 0 -32 14q-16 13 -16 34zM524 572q0 15 14 32q13 16 34 16 q15 0 32 -14q16 -16 16 -34q0 -20 -14 -34t-34 -14q-15 0 -32 14q-16 13 -16 34zM524 700q0 15 14 32q13 16 34 16q15 0 32 -14q16 -16 16 -34q0 -20 -14 -34t-34 -14q-15 0 -32 14q-16 13 -16 34z" />
<glyph unicode="S" d="M12 188q0 15 14 32q13 16 34 16q15 0 32 -14q16 -16 16 -34q0 -20 -14 -34t-34 -14q-15 0 -32 14q-16 13 -16 34zM12 572q0 15 14 32q13 16 34 16q15 0 32 -14q16 -16 16 -34q0 -20 -14 -34t-34 -14q-15 0 -32 14q-16 13 -16 34zM12 700q0 15 14 32q13 16 34 16 q15 0 32 -14q16 -16 16 -34q0 -20 -14 -34t-34 -14q-15 0 -32 14q-16 13 -16 34zM140 60q0 15 14 32q13 16 34 16q15 0 32 -14q16 -16 16 -34q0 -20 -14 -34t-34 -14q-15 0 -32 14q-16 13 -16 34zM140 444q0 15 14 32q13 16 34 16q15 0 32 -14q16 -16 16 -34q0 -20 -14 -34 t-34 -14q-15 0 -32 14q-16 13 -16 34zM140 828q0 15 14 32q13 16 34 16q15 0 32 -14q16 -16 16 -34q0 -20 -14 -34t-34 -14q-15 0 -32 14q-16 13 -16 34zM268 60q0 15 14 32q13 16 34 16q15 0 32 -14q16 -16 16 -34q0 -20 -14 -34t-34 -14q-15 0 -32 14q-16 13 -16 34z M268 444q0 15 14 32q13 16 34 16q15 0 32 -14q16 -16 16 -34q0 -20 -14 -34t-34 -14q-15 0 -32 14q-16 13 -16 34zM268 828q0 15 14 32q13 16 34 16q15 0 32 -14q16 -16 16 -34q0 -20 -14 -34t-34 -14q-15 0 -32 14q-16 13 -16 34zM396 60q0 15 14 32q13 16 34 16 q15 0 32 -14q16 -16 16 -34q0 -20 -14 -34t-34 -14q-15 0 -32 14q-16 13 -16 34zM396 444q0 15 14 32q13 16 34 16q15 0 32 -14q16 -16 16 -34q0 -20 -14 -34t-34 -14q-15 0 -32 14q-16 13 -16 34zM396 828q0 15 14 32q13 16 34 16q15 0 32 -14q16 -16 16 -34q0 -20 -14 -34 t-34 -14q-15 0 -32 14q-16 13 -16 34zM524 188q0 15 14 32q13 16 34 16q15 0 32 -14q16 -16 16 -34q0 -20 -14 -34t-34 -14q-15 0 -32 14q-16 13 -16 34zM524 316q0 15 14 32q13 16 34 16q15 0 32 -14q16 -16 16 -34q0 -20 -14 -34t-34 -14q-15 0 -32 14q-16 13 -16 34z M524 700q0 15 14 32q13 16 34 16q15 0 32 -14q16 -16 16 -34q0 -20 -14 -34t-34 -14q-15 0 -32 14q-16 13 -16 34z" />
<glyph unicode="T" d="M12 828q0 15 14 32q13 16 34 16q15 0 32 -14q16 -16 16 -34q0 -20 -14 -34t-34 -14q-15 0 -32 14q-16 13 -16 34zM140 828q0 15 14 32q13 16 34 16q15 0 32 -14q16 -16 16 -34q0 -20 -14 -34t-34 -14q-15 0 -32 14q-16 13 -16 34zM268 60q0 15 14 32q13 16 34 16 q15 0 32 -14q16 -16 16 -34q0 -20 -14 -34t-34 -14q-15 0 -32 14q-16 13 -16 34zM268 188q0 15 14 32q13 16 34 16q15 0 32 -14q16 -16 16 -34q0 -20 -14 -34t-34 -14q-15 0 -32 14q-16 13 -16 34zM268 316q0 15 14 32q13 16 34 16q15 0 32 -14q16 -16 16 -34q0 -20 -14 -34 t-34 -14q-15 0 -32 14q-16 13 -16 34zM268 444q0 15 14 32q13 16 34 16q15 0 32 -14q16 -16 16 -34q0 -20 -14 -34t-34 -14q-15 0 -32 14q-16 13 -16 34zM268 572q0 15 14 32q13 16 34 16q15 0 32 -14q16 -16 16 -34q0 -20 -14 -34t-34 -14q-15 0 -32 14q-16 13 -16 34z M268 700q0 15 14 32q13 16 34 16q15 0 32 -14q16 -16 16 -34q0 -20 -14 -34t-34 -14q-15 0 -32 14q-16 13 -16 34zM268 828q0 15 14 32q13 16 34 16q15 0 32 -14q16 -16 16 -34q0 -20 -14 -34t-34 -14q-15 0 -32 14q-16 13 -16 34zM396 828q0 15 14 32q13 16 34 16 q15 0 32 -14q16 -16 16 -34q0 -20 -14 -34t-34 -14q-15 0 -32 14q-16 13 -16 34zM524 828q0 15 14 32q13 16 34 16q15 0 32 -14q16 -16 16 -34q0 -20 -14 -34t-34 -14q-15 0 -32 14q-16 13 -16 34z" />
<glyph unicode="U" d="M12 188q0 15 14 32q13 16 34 16q15 0 32 -14q16 -16 16 -34q0 -20 -14 -34t-34 -14q-15 0 -32 14q-16 13 -16 34zM12 316q0 15 14 32q13 16 34 16q15 0 32 -14q16 -16 16 -34q0 -20 -14 -34t-34 -14q-15 0 -32 14q-16 13 -16 34zM12 444q0 15 14 32q13 16 34 16 q15 0 32 -14q16 -16 16 -34q0 -20 -14 -34t-34 -14q-15 0 -32 14q-16 13 -16 34zM12 572q0 15 14 32q13 16 34 16q15 0 32 -14q16 -16 16 -34q0 -20 -14 -34t-34 -14q-15 0 -32 14q-16 13 -16 34zM12 700q0 15 14 32q13 16 34 16q15 0 32 -14q16 -16 16 -34q0 -20 -14 -34 t-34 -14q-15 0 -32 14q-16 13 -16 34zM12 828q0 15 14 32q13 16 34 16q15 0 32 -14q16 -16 16 -34q0 -20 -14 -34t-34 -14q-15 0 -32 14q-16 13 -16 34zM140 60q0 15 14 32q13 16 34 16q15 0 32 -14q16 -16 16 -34q0 -20 -14 -34t-34 -14q-15 0 -32 14q-16 13 -16 34z M268 60q0 15 14 32q13 16 34 16q15 0 32 -14q16 -16 16 -34q0 -20 -14 -34t-34 -14q-15 0 -32 14q-16 13 -16 34zM396 60q0 15 14 32q13 16 34 16q15 0 32 -14q16 -16 16 -34q0 -20 -14 -34t-34 -14q-15 0 -32 14q-16 13 -16 34zM524 188q0 15 14 32q13 16 34 16 q15 0 32 -14q16 -16 16 -34q0 -20 -14 -34t-34 -14q-15 0 -32 14q-16 13 -16 34zM524 316q0 15 14 32q13 16 34 16q15 0 32 -14q16 -16 16 -34q0 -20 -14 -34t-34 -14q-15 0 -32 14q-16 13 -16 34zM524 444q0 15 14 32q13 16 34 16q15 0 32 -14q16 -16 16 -34q0 -20 -14 -34 t-34 -14q-15 0 -32 14q-16 13 -16 34zM524 572q0 15 14 32q13 16 34 16q15 0 32 -14q16 -16 16 -34q0 -20 -14 -34t-34 -14q-15 0 -32 14q-16 13 -16 34zM524 700q0 15 14 32q13 16 34 16q15 0 32 -14q16 -16 16 -34q0 -20 -14 -34t-34 -14q-15 0 -32 14q-16 13 -16 34z M524 828q0 15 14 32q13 16 34 16q15 0 32 -14q16 -16 16 -34q0 -20 -14 -34t-34 -14q-15 0 -32 14q-16 13 -16 34z" />
<glyph unicode="V" d="M12 316q0 15 14 32q13 16 34 16q15 0 32 -14q16 -16 16 -34q0 -20 -14 -34t-34 -14q-15 0 -32 14q-16 13 -16 34zM12 444q0 15 14 32q13 16 34 16q15 0 32 -14q16 -16 16 -34q0 -20 -14 -34t-34 -14q-15 0 -32 14q-16 13 -16 34zM12 572q0 15 14 32q13 16 34 16 q15 0 32 -14q16 -16 16 -34q0 -20 -14 -34t-34 -14q-15 0 -32 14q-16 13 -16 34zM12 700q0 15 14 32q13 16 34 16q15 0 32 -14q16 -16 16 -34q0 -20 -14 -34t-34 -14q-15 0 -32 14q-16 13 -16 34zM12 828q0 15 14 32q13 16 34 16q15 0 32 -14q16 -16 16 -34q0 -20 -14 -34 t-34 -14q-15 0 -32 14q-16 13 -16 34zM140 188q0 15 14 32q13 16 34 16q15 0 32 -14q16 -16 16 -34q0 -20 -14 -34t-34 -14q-15 0 -32 14q-16 13 -16 34zM268 60q0 15 14 32q13 16 34 16q15 0 32 -14q16 -16 16 -34q0 -20 -14 -34t-34 -14q-15 0 -32 14q-16 13 -16 34z M396 188q0 15 14 32q13 16 34 16q15 0 32 -14q16 -16 16 -34q0 -20 -14 -34t-34 -14q-15 0 -32 14q-16 13 -16 34zM524 316q0 15 14 32q13 16 34 16q15 0 32 -14q16 -16 16 -34q0 -20 -14 -34t-34 -14q-15 0 -32 14q-16 13 -16 34zM524 444q0 15 14 32q13 16 34 16 q15 0 32 -14q16 -16 16 -34q0 -20 -14 -34t-34 -14q-15 0 -32 14q-16 13 -16 34zM524 572q0 15 14 32q13 16 34 16q15 0 32 -14q16 -16 16 -34q0 -20 -14 -34t-34 -14q-15 0 -32 14q-16 13 -16 34zM524 700q0 15 14 32q13 16 34 16q15 0 32 -14q16 -16 16 -34q0 -20 -14 -34 t-34 -14q-15 0 -32 14q-16 13 -16 34zM524 828q0 15 14 32q13 16 34 16q15 0 32 -14q16 -16 16 -34q0 -20 -14 -34t-34 -14q-15 0 -32 14q-16 13 -16 34z" />
<glyph unicode="W" d="M12 188q0 15 14 32q13 16 34 16q15 0 32 -14q16 -16 16 -34q0 -20 -14 -34t-34 -14q-15 0 -32 14q-16 13 -16 34zM12 316q0 15 14 32q13 16 34 16q15 0 32 -14q16 -16 16 -34q0 -20 -14 -34t-34 -14q-15 0 -32 14q-16 13 -16 34zM12 444q0 15 14 32q13 16 34 16 q15 0 32 -14q16 -16 16 -34q0 -20 -14 -34t-34 -14q-15 0 -32 14q-16 13 -16 34zM12 572q0 15 14 32q13 16 34 16q15 0 32 -14q16 -16 16 -34q0 -20 -14 -34t-34 -14q-15 0 -32 14q-16 13 -16 34zM12 700q0 15 14 32q13 16 34 16q15 0 32 -14q16 -16 16 -34q0 -20 -14 -34 t-34 -14q-15 0 -32 14q-16 13 -16 34zM12 828q0 15 14 32q13 16 34 16q15 0 32 -14q16 -16 16 -34q0 -20 -14 -34t-34 -14q-15 0 -32 14q-16 13 -16 34zM140 60q0 15 14 32q13 16 34 16q15 0 32 -14q16 -16 16 -34q0 -20 -14 -34t-34 -14q-15 0 -32 14q-16 13 -16 34z M268 188q0 15 14 32q13 16 34 16q15 0 32 -14q16 -16 16 -34q0 -20 -14 -34t-34 -14q-15 0 -32 14q-16 13 -16 34zM268 316q0 15 14 32q13 16 34 16q15 0 32 -14q16 -16 16 -34q0 -20 -14 -34t-34 -14q-15 0 -32 14q-16 13 -16 34zM396 60q0 15 14 32q13 16 34 16 q15 0 32 -14q16 -16 16 -34q0 -20 -14 -34t-34 -14q-15 0 -32 14q-16 13 -16 34zM524 188q0 15 14 32q13 16 34 16q15 0 32 -14q16 -16 16 -34q0 -20 -14 -34t-34 -14q-15 0 -32 14q-16 13 -16 34zM524 316q0 15 14 32q13 16 34 16q15 0 32 -14q16 -16 16 -34q0 -20 -14 -34 t-34 -14q-15 0 -32 14q-16 13 -16 34zM524 444q0 15 14 32q13 16 34 16q15 0 32 -14q16 -16 16 -34q0 -20 -14 -34t-34 -14q-15 0 -32 14q-16 13 -16 34zM524 572q0 15 14 32q13 16 34 16q15 0 32 -14q16 -16 16 -34q0 -20 -14 -34t-34 -14q-15 0 -32 14q-16 13 -16 34z M524 700q0 15 14 32q13 16 34 16q15 0 32 -14q16 -16 16 -34q0 -20 -14 -34t-34 -14q-15 0 -32 14q-16 13 -16 34zM524 828q0 15 14 32q13 16 34 16q15 0 32 -14q16 -16 16 -34q0 -20 -14 -34t-34 -14q-15 0 -32 14q-16 13 -16 34z" />
<glyph unicode="X" d="M12 60q0 15 14 32q13 16 34 16q15 0 32 -14q16 -16 16 -34q0 -20 -14 -34t-34 -14q-15 0 -32 14q-16 13 -16 34zM12 188q0 15 14 32q13 16 34 16q15 0 32 -14q16 -16 16 -34q0 -20 -14 -34t-34 -14q-15 0 -32 14q-16 13 -16 34zM12 700q0 15 14 32q13 16 34 16 q15 0 32 -14q16 -16 16 -34q0 -20 -14 -34t-34 -14q-15 0 -32 14q-16 13 -16 34zM12 828q0 15 14 32q13 16 34 16q15 0 32 -14q16 -16 16 -34q0 -20 -14 -34t-34 -14q-15 0 -32 14q-16 13 -16 34zM140 316q0 15 14 32q13 16 34 16q15 0 32 -14q16 -16 16 -34q0 -20 -14 -34 t-34 -14q-15 0 -32 14q-16 13 -16 34zM140 572q0 15 14 32q13 16 34 16q15 0 32 -14q16 -16 16 -34q0 -20 -14 -34t-34 -14q-15 0 -32 14q-16 13 -16 34zM268 444q0 15 14 32q13 16 34 16q15 0 32 -14q16 -16 16 -34q0 -20 -14 -34t-34 -14q-15 0 -32 14q-16 13 -16 34z M396 316q0 15 14 32q13 16 34 16q15 0 32 -14q16 -16 16 -34q0 -20 -14 -34t-34 -14q-15 0 -32 14q-16 13 -16 34zM396 572q0 15 14 32q13 16 34 16q15 0 32 -14q16 -16 16 -34q0 -20 -14 -34t-34 -14q-15 0 -32 14q-16 13 -16 34zM524 60q0 15 14 32q13 16 34 16 q15 0 32 -14q16 -16 16 -34q0 -20 -14 -34t-34 -14q-15 0 -32 14q-16 13 -16 34zM524 188q0 15 14 32q13 16 34 16q15 0 32 -14q16 -16 16 -34q0 -20 -14 -34t-34 -14q-15 0 -32 14q-16 13 -16 34zM524 700q0 15 14 32q13 16 34 16q15 0 32 -14q16 -16 16 -34q0 -20 -14 -34 t-34 -14q-15 0 -32 14q-16 13 -16 34zM524 828q0 15 14 32q13 16 34 16q15 0 32 -14q16 -16 16 -34q0 -20 -14 -34t-34 -14q-15 0 -32 14q-16 13 -16 34z" />
<glyph unicode="Y" d="M12 700q0 15 14 32q13 16 34 16q15 0 32 -14q16 -16 16 -34q0 -20 -14 -34t-34 -14q-15 0 -32 14q-16 13 -16 34zM12 828q0 15 14 32q13 16 34 16q15 0 32 -14q16 -16 16 -34q0 -20 -14 -34t-34 -14q-15 0 -32 14q-16 13 -16 34zM140 572q0 15 14 32q13 16 34 16 q15 0 32 -14q16 -16 16 -34q0 -20 -14 -34t-34 -14q-15 0 -32 14q-16 13 -16 34zM268 60q0 15 14 32q13 16 34 16q15 0 32 -14q16 -16 16 -34q0 -20 -14 -34t-34 -14q-15 0 -32 14q-16 13 -16 34zM268 188q0 15 14 32q13 16 34 16q15 0 32 -14q16 -16 16 -34q0 -20 -14 -34 t-34 -14q-15 0 -32 14q-16 13 -16 34zM268 316q0 15 14 32q13 16 34 16q15 0 32 -14q16 -16 16 -34q0 -20 -14 -34t-34 -14q-15 0 -32 14q-16 13 -16 34zM268 444q0 15 14 32q13 16 34 16q15 0 32 -14q16 -16 16 -34q0 -20 -14 -34t-34 -14q-15 0 -32 14q-16 13 -16 34z M396 572q0 15 14 32q13 16 34 16q15 0 32 -14q16 -16 16 -34q0 -20 -14 -34t-34 -14q-15 0 -32 14q-16 13 -16 34zM524 700q0 15 14 32q13 16 34 16q15 0 32 -14q16 -16 16 -34q0 -20 -14 -34t-34 -14q-15 0 -32 14q-16 13 -16 34zM524 828q0 15 14 32q13 16 34 16 q15 0 32 -14q16 -16 16 -34q0 -20 -14 -34t-34 -14q-15 0 -32 14q-16 13 -16 34z" />
<glyph unicode="Z" d="M12 60q0 15 14 32q13 16 34 16q15 0 32 -14q16 -16 16 -34q0 -20 -14 -34t-34 -14q-15 0 -32 14q-16 13 -16 34zM12 188q0 15 14 32q13 16 34 16q15 0 32 -14q16 -16 16 -34q0 -20 -14 -34t-34 -14q-15 0 -32 14q-16 13 -16 34zM12 828q0 15 14 32q13 16 34 16 q15 0 32 -14q16 -16 16 -34q0 -20 -14 -34t-34 -14q-15 0 -32 14q-16 13 -16 34zM140 60q0 15 14 32q13 16 34 16q15 0 32 -14q16 -16 16 -34q0 -20 -14 -34t-34 -14q-15 0 -32 14q-16 13 -16 34zM140 316q0 15 14 32q13 16 34 16q15 0 32 -14q16 -16 16 -34q0 -20 -14 -34 t-34 -14q-15 0 -32 14q-16 13 -16 34zM140 828q0 15 14 32q13 16 34 16q15 0 32 -14q16 -16 16 -34q0 -20 -14 -34t-34 -14q-15 0 -32 14q-16 13 -16 34zM268 60q0 15 14 32q13 16 34 16q15 0 32 -14q16 -16 16 -34q0 -20 -14 -34t-34 -14q-15 0 -32 14q-16 13 -16 34z M268 444q0 15 14 32q13 16 34 16q15 0 32 -14q16 -16 16 -34q0 -20 -14 -34t-34 -14q-15 0 -32 14q-16 13 -16 34zM268 828q0 15 14 32q13 16 34 16q15 0 32 -14q16 -16 16 -34q0 -20 -14 -34t-34 -14q-15 0 -32 14q-16 13 -16 34zM396 60q0 15 14 32q13 16 34 16 q15 0 32 -14q16 -16 16 -34q0 -20 -14 -34t-34 -14q-15 0 -32 14q-16 13 -16 34zM396 572q0 15 14 32q13 16 34 16q15 0 32 -14q16 -16 16 -34q0 -20 -14 -34t-34 -14q-15 0 -32 14q-16 13 -16 34zM396 828q0 15 14 32q13 16 34 16q15 0 32 -14q16 -16 16 -34q0 -20 -14 -34 t-34 -14q-15 0 -32 14q-16 13 -16 34zM524 60q0 15 14 32q13 16 34 16q15 0 32 -14q16 -16 16 -34q0 -20 -14 -34t-34 -14q-15 0 -32 14q-16 13 -16 34zM524 700q0 15 14 32q13 16 34 16q15 0 32 -14q16 -16 16 -34q0 -20 -14 -34t-34 -14q-15 0 -32 14q-16 13 -16 34z M524 828q0 15 14 32q13 16 34 16q15 0 32 -14q16 -16 16 -34q0 -20 -14 -34t-34 -14q-15 0 -32 14q-16 13 -16 34z" />
<glyph unicode="[" horiz-adv-x="382" d="M12 60q0 15 14 32q13 16 34 16q15 0 32 -14q16 -16 16 -34q0 -20 -14 -34t-34 -14q-15 0 -32 14q-16 13 -16 34zM12 188q0 15 14 32q13 16 34 16q15 0 32 -14q16 -16 16 -34q0 -20 -14 -34t-34 -14q-15 0 -32 14q-16 13 -16 34zM12 316q0 15 14 32q13 16 34 16 q15 0 32 -14q16 -16 16 -34q0 -20 -14 -34t-34 -14q-15 0 -32 14q-16 13 -16 34zM12 444q0 15 14 32q13 16 34 16q15 0 32 -14q16 -16 16 -34q0 -20 -14 -34t-34 -14q-15 0 -32 14q-16 13 -16 34zM12 572q0 15 14 32q13 16 34 16q15 0 32 -14q16 -16 16 -34q0 -20 -14 -34 t-34 -14q-15 0 -32 14q-16 13 -16 34zM12 700q0 15 14 32q13 16 34 16q15 0 32 -14q16 -16 16 -34q0 -20 -14 -34t-34 -14q-15 0 -32 14q-16 13 -16 34zM12 828q0 15 14 32q13 16 34 16q15 0 32 -14q16 -16 16 -34q0 -20 -14 -34t-34 -14q-15 0 -32 14q-16 13 -16 34z M140 60q0 15 14 32q13 16 34 16q15 0 32 -14q16 -16 16 -34q0 -20 -14 -34t-34 -14q-15 0 -32 14q-16 13 -16 34zM140 828q0 15 14 32q13 16 34 16q15 0 32 -14q16 -16 16 -34q0 -20 -14 -34t-34 -14q-15 0 -32 14q-16 13 -16 34z" />
<glyph unicode="\" d="M12 700q0 15 14 32q13 16 34 16q15 0 32 -14q16 -16 16 -34q0 -20 -14 -34t-34 -14q-15 0 -32 14q-16 13 -16 34zM12 828q0 15 14 32q13 16 34 16q15 0 32 -14q16 -16 16 -34q0 -20 -14 -34t-34 -14q-15 0 -32 14q-16 13 -16 34zM140 572q0 15 14 32q13 16 34 16 q15 0 32 -14q16 -16 16 -34q0 -20 -14 -34t-34 -14q-15 0 -32 14q-16 13 -16 34zM268 444q0 15 14 32q13 16 34 16q15 0 32 -14q16 -16 16 -34q0 -20 -14 -34t-34 -14q-15 0 -32 14q-16 13 -16 34zM396 316q0 15 14 32q13 16 34 16q15 0 32 -14q16 -16 16 -34q0 -20 -14 -34 t-34 -14q-15 0 -32 14q-16 13 -16 34zM524 60q0 15 14 32q13 16 34 16q15 0 32 -14q16 -16 16 -34q0 -20 -14 -34t-34 -14q-15 0 -32 14q-16 13 -16 34zM524 188q0 15 14 32q13 16 34 16q15 0 32 -14q16 -16 16 -34q0 -20 -14 -34t-34 -14q-15 0 -32 14q-16 13 -16 34z" />
<glyph unicode="]" horiz-adv-x="382" d="M12 60q0 15 14 32q13 16 34 16q15 0 32 -14q16 -16 16 -34q0 -20 -14 -34t-34 -14q-15 0 -32 14q-16 13 -16 34zM12 828q0 15 14 32q13 16 34 16q15 0 32 -14q16 -16 16 -34q0 -20 -14 -34t-34 -14q-15 0 -32 14q-16 13 -16 34zM140 60q0 15 14 32q13 16 34 16 q15 0 32 -14q16 -16 16 -34q0 -20 -14 -34t-34 -14q-15 0 -32 14q-16 13 -16 34zM140 188q0 15 14 32q13 16 34 16q15 0 32 -14q16 -16 16 -34q0 -20 -14 -34t-34 -14q-15 0 -32 14q-16 13 -16 34zM140 316q0 15 14 32q13 16 34 16q15 0 32 -14q16 -16 16 -34q0 -20 -14 -34 t-34 -14q-15 0 -32 14q-16 13 -16 34zM140 444q0 15 14 32q13 16 34 16q15 0 32 -14q16 -16 16 -34q0 -20 -14 -34t-34 -14q-15 0 -32 14q-16 13 -16 34zM140 572q0 15 14 32q13 16 34 16q15 0 32 -14q16 -16 16 -34q0 -20 -14 -34t-34 -14q-15 0 -32 14q-16 13 -16 34z M140 700q0 15 14 32q13 16 34 16q15 0 32 -14q16 -16 16 -34q0 -20 -14 -34t-34 -14q-15 0 -32 14q-16 13 -16 34zM140 828q0 15 14 32q13 16 34 16q15 0 32 -14q16 -16 16 -34q0 -20 -14 -34t-34 -14q-15 0 -32 14q-16 13 -16 34z" />
<glyph unicode="^" horiz-adv-x="768" d="M140 700q0 15 14 32q13 16 34 16q15 0 32 -14q16 -16 16 -34q0 -20 -14 -34t-34 -14q-15 0 -32 14q-16 13 -16 34zM268 828q0 15 14 32q13 16 34 16q15 0 32 -14q16 -16 16 -34q0 -20 -14 -34t-34 -14q-15 0 -32 14q-16 13 -16 34zM396 700q0 15 14 32q13 16 34 16 q15 0 32 -14q16 -16 16 -34q0 -20 -14 -34t-34 -14q-15 0 -32 14q-16 13 -16 34z" />
<glyph unicode="_" d="M12 60q0 15 14 32q13 16 34 16q15 0 32 -14q16 -16 16 -34q0 -20 -14 -34t-34 -14q-15 0 -32 14q-16 13 -16 34zM140 60q0 15 14 32q13 16 34 16q15 0 32 -14q16 -16 16 -34q0 -20 -14 -34t-34 -14q-15 0 -32 14q-16 13 -16 34zM268 60q0 15 14 32q13 16 34 16 q15 0 32 -14q16 -16 16 -34q0 -20 -14 -34t-34 -14q-15 0 -32 14q-16 13 -16 34zM396 60q0 15 14 32q13 16 34 16q15 0 32 -14q16 -16 16 -34q0 -20 -14 -34t-34 -14q-15 0 -32 14q-16 13 -16 34zM524 60q0 15 14 32q13 16 34 16q15 0 32 -14q16 -16 16 -34q0 -20 -14 -34 t-34 -14q-15 0 -32 14q-16 13 -16 34z" />
<glyph unicode="`" horiz-adv-x="768" d="M268 828q0 15 14 32q13 16 34 16q15 0 32 -14q16 -16 16 -34q0 -20 -14 -34t-34 -14q-15 0 -32 14q-16 13 -16 34zM396 700q0 15 14 32q13 16 34 16q15 0 32 -14q16 -16 16 -34q0 -20 -14 -34t-34 -14q-15 0 -32 14q-16 13 -16 34z" />
<glyph unicode="a" d="M12 188q0 15 14 32q13 16 34 16q15 0 32 -14q16 -16 16 -34q0 -20 -14 -34t-34 -14q-15 0 -32 14q-16 13 -16 34zM140 60q0 15 14 32q13 16 34 16q15 0 32 -14q16 -16 16 -34q0 -20 -14 -34t-34 -14q-15 0 -32 14q-16 13 -16 34zM140 316q0 15 14 32q13 16 34 16 q15 0 32 -14q16 -16 16 -34q0 -20 -14 -34t-34 -14q-15 0 -32 14q-16 13 -16 34zM140 572q0 15 14 32q13 16 34 16q15 0 32 -14q16 -16 16 -34q0 -20 -14 -34t-34 -14q-15 0 -32 14q-16 13 -16 34zM268 60q0 15 14 32q13 16 34 16q15 0 32 -14q16 -16 16 -34q0 -20 -14 -34 t-34 -14q-15 0 -32 14q-16 13 -16 34zM268 316q0 15 14 32q13 16 34 16q15 0 32 -14q16 -16 16 -34q0 -20 -14 -34t-34 -14q-15 0 -32 14q-16 13 -16 34zM268 572q0 15 14 32q13 16 34 16q15 0 32 -14q16 -16 16 -34q0 -20 -14 -34t-34 -14q-15 0 -32 14q-16 13 -16 34z M396 60q0 15 14 32q13 16 34 16q15 0 32 -14q16 -16 16 -34q0 -20 -14 -34t-34 -14q-15 0 -32 14q-16 13 -16 34zM396 316q0 15 14 32q13 16 34 16q15 0 32 -14q16 -16 16 -34q0 -20 -14 -34t-34 -14q-15 0 -32 14q-16 13 -16 34zM396 572q0 15 14 32q13 16 34 16 q15 0 32 -14q16 -16 16 -34q0 -20 -14 -34t-34 -14q-15 0 -32 14q-16 13 -16 34zM524 60q0 15 14 32q13 16 34 16q15 0 32 -14q16 -16 16 -34q0 -20 -14 -34t-34 -14q-15 0 -32 14q-16 13 -16 34zM524 188q0 15 14 32q13 16 34 16q15 0 32 -14q16 -16 16 -34q0 -20 -14 -34 t-34 -14q-15 0 -32 14q-16 13 -16 34zM524 316q0 15 14 32q13 16 34 16q15 0 32 -14q16 -16 16 -34q0 -20 -14 -34t-34 -14q-15 0 -32 14q-16 13 -16 34zM524 444q0 15 14 32q13 16 34 16q15 0 32 -14q16 -16 16 -34q0 -20 -14 -34t-34 -14q-15 0 -32 14q-16 13 -16 34z" />
<glyph unicode="b" d="M12 60q0 15 14 32q13 16 34 16q15 0 32 -14q16 -16 16 -34q0 -20 -14 -34t-34 -14q-15 0 -32 14q-16 13 -16 34zM12 188q0 15 14 32q13 16 34 16q15 0 32 -14q16 -16 16 -34q0 -20 -14 -34t-34 -14q-15 0 -32 14q-16 13 -16 34zM12 316q0 15 14 32q13 16 34 16 q15 0 32 -14q16 -16 16 -34q0 -20 -14 -34t-34 -14q-15 0 -32 14q-16 13 -16 34zM12 444q0 15 14 32q13 16 34 16q15 0 32 -14q16 -16 16 -34q0 -20 -14 -34t-34 -14q-15 0 -32 14q-16 13 -16 34zM12 572q0 15 14 32q13 16 34 16q15 0 32 -14q16 -16 16 -34q0 -20 -14 -34 t-34 -14q-15 0 -32 14q-16 13 -16 34zM12 700q0 15 14 32q13 16 34 16q15 0 32 -14q16 -16 16 -34q0 -20 -14 -34t-34 -14q-15 0 -32 14q-16 13 -16 34zM12 828q0 15 14 32q13 16 34 16q15 0 32 -14q16 -16 16 -34q0 -20 -14 -34t-34 -14q-15 0 -32 14q-16 13 -16 34z M140 60q0 15 14 32q13 16 34 16q15 0 32 -14q16 -16 16 -34q0 -20 -14 -34t-34 -14q-15 0 -32 14q-16 13 -16 34zM140 572q0 15 14 32q13 16 34 16q15 0 32 -14q16 -16 16 -34q0 -20 -14 -34t-34 -14q-15 0 -32 14q-16 13 -16 34zM268 60q0 15 14 32q13 16 34 16 q15 0 32 -14q16 -16 16 -34q0 -20 -14 -34t-34 -14q-15 0 -32 14q-16 13 -16 34zM268 572q0 15 14 32q13 16 34 16q15 0 32 -14q16 -16 16 -34q0 -20 -14 -34t-34 -14q-15 0 -32 14q-16 13 -16 34zM396 60q0 15 14 32q13 16 34 16q15 0 32 -14q16 -16 16 -34q0 -20 -14 -34 t-34 -14q-15 0 -32 14q-16 13 -16 34zM396 572q0 15 14 32q13 16 34 16q15 0 32 -14q16 -16 16 -34q0 -20 -14 -34t-34 -14q-15 0 -32 14q-16 13 -16 34zM524 188q0 15 14 32q13 16 34 16q15 0 32 -14q16 -16 16 -34q0 -20 -14 -34t-34 -14q-15 0 -32 14q-16 13 -16 34z M524 316q0 15 14 32q13 16 34 16q15 0 32 -14q16 -16 16 -34q0 -20 -14 -34t-34 -14q-15 0 -32 14q-16 13 -16 34zM524 444q0 15 14 32q13 16 34 16q15 0 32 -14q16 -16 16 -34q0 -20 -14 -34t-34 -14q-15 0 -32 14q-16 13 -16 34z" />
<glyph unicode="c" d="M12 188q0 15 14 32q13 16 34 16q15 0 32 -14q16 -16 16 -34q0 -20 -14 -34t-34 -14q-15 0 -32 14q-16 13 -16 34zM12 316q0 15 14 32q13 16 34 16q15 0 32 -14q16 -16 16 -34q0 -20 -14 -34t-34 -14q-15 0 -32 14q-16 13 -16 34zM12 444q0 15 14 32q13 16 34 16 q15 0 32 -14q16 -16 16 -34q0 -20 -14 -34t-34 -14q-15 0 -32 14q-16 13 -16 34zM140 60q0 15 14 32q13 16 34 16q15 0 32 -14q16 -16 16 -34q0 -20 -14 -34t-34 -14q-15 0 -32 14q-16 13 -16 34zM140 572q0 15 14 32q13 16 34 16q15 0 32 -14q16 -16 16 -34q0 -20 -14 -34 t-34 -14q-15 0 -32 14q-16 13 -16 34zM268 60q0 15 14 32q13 16 34 16q15 0 32 -14q16 -16 16 -34q0 -20 -14 -34t-34 -14q-15 0 -32 14q-16 13 -16 34zM268 572q0 15 14 32q13 16 34 16q15 0 32 -14q16 -16 16 -34q0 -20 -14 -34t-34 -14q-15 0 -32 14q-16 13 -16 34z M396 60q0 15 14 32q13 16 34 16q15 0 32 -14q16 -16 16 -34q0 -20 -14 -34t-34 -14q-15 0 -32 14q-16 13 -16 34zM396 572q0 15 14 32q13 16 34 16q15 0 32 -14q16 -16 16 -34q0 -20 -14 -34t-34 -14q-15 0 -32 14q-16 13 -16 34zM524 188q0 15 14 32q13 16 34 16 q15 0 32 -14q16 -16 16 -34q0 -20 -14 -34t-34 -14q-15 0 -32 14q-16 13 -16 34zM524 444q0 15 14 32q13 16 34 16q15 0 32 -14q16 -16 16 -34q0 -20 -14 -34t-34 -14q-15 0 -32 14q-16 13 -16 34z" />
<glyph unicode="d" d="M12 188q0 15 14 32q13 16 34 16q15 0 32 -14q16 -16 16 -34q0 -20 -14 -34t-34 -14q-15 0 -32 14q-16 13 -16 34zM12 316q0 15 14 32q13 16 34 16q15 0 32 -14q16 -16 16 -34q0 -20 -14 -34t-34 -14q-15 0 -32 14q-16 13 -16 34zM12 444q0 15 14 32q13 16 34 16 q15 0 32 -14q16 -16 16 -34q0 -20 -14 -34t-34 -14q-15 0 -32 14q-16 13 -16 34zM140 60q0 15 14 32q13 16 34 16q15 0 32 -14q16 -16 16 -34q0 -20 -14 -34t-34 -14q-15 0 -32 14q-16 13 -16 34zM140 572q0 15 14 32q13 16 34 16q15 0 32 -14q16 -16 16 -34q0 -20 -14 -34 t-34 -14q-15 0 -32 14q-16 13 -16 34zM268 60q0 15 14 32q13 16 34 16q15 0 32 -14q16 -16 16 -34q0 -20 -14 -34t-34 -14q-15 0 -32 14q-16 13 -16 34zM268 572q0 15 14 32q13 16 34 16q15 0 32 -14q16 -16 16 -34q0 -20 -14 -34t-34 -14q-15 0 -32 14q-16 13 -16 34z M396 60q0 15 14 32q13 16 34 16q15 0 32 -14q16 -16 16 -34q0 -20 -14 -34t-34 -14q-15 0 -32 14q-16 13 -16 34zM396 572q0 15 14 32q13 16 34 16q15 0 32 -14q16 -16 16 -34q0 -20 -14 -34t-34 -14q-15 0 -32 14q-16 13 -16 34zM524 60q0 15 14 32q13 16 34 16 q15 0 32 -14q16 -16 16 -34q0 -20 -14 -34t-34 -14q-15 0 -32 14q-16 13 -16 34zM524 188q0 15 14 32q13 16 34 16q15 0 32 -14q16 -16 16 -34q0 -20 -14 -34t-34 -14q-15 0 -32 14q-16 13 -16 34zM524 316q0 15 14 32q13 16 34 16q15 0 32 -14q16 -16 16 -34q0 -20 -14 -34 t-34 -14q-15 0 -32 14q-16 13 -16 34zM524 444q0 15 14 32q13 16 34 16q15 0 32 -14q16 -16 16 -34q0 -20 -14 -34t-34 -14q-15 0 -32 14q-16 13 -16 34zM524 572q0 15 14 32q13 16 34 16q15 0 32 -14q16 -16 16 -34q0 -20 -14 -34t-34 -14q-15 0 -32 14q-16 13 -16 34z M524 700q0 15 14 32q13 16 34 16q15 0 32 -14q16 -16 16 -34q0 -20 -14 -34t-34 -14q-15 0 -32 14q-16 13 -16 34zM524 828q0 15 14 32q13 16 34 16q15 0 32 -14q16 -16 16 -34q0 -20 -14 -34t-34 -14q-15 0 -32 14q-16 13 -16 34z" />
<glyph unicode="e" d="M12 188q0 15 14 32q13 16 34 16q15 0 32 -14q16 -16 16 -34q0 -20 -14 -34t-34 -14q-15 0 -32 14q-16 13 -16 34zM12 316q0 15 14 32q13 16 34 16q15 0 32 -14q16 -16 16 -34q0 -20 -14 -34t-34 -14q-15 0 -32 14q-16 13 -16 34zM12 444q0 15 14 32q13 16 34 16 q15 0 32 -14q16 -16 16 -34q0 -20 -14 -34t-34 -14q-15 0 -32 14q-16 13 -16 34zM140 60q0 15 14 32q13 16 34 16q15 0 32 -14q16 -16 16 -34q0 -20 -14 -34t-34 -14q-15 0 -32 14q-16 13 -16 34zM140 316q0 15 14 32q13 16 34 16q15 0 32 -14q16 -16 16 -34q0 -20 -14 -34 t-34 -14q-15 0 -32 14q-16 13 -16 34zM140 572q0 15 14 32q13 16 34 16q15 0 32 -14q16 -16 16 -34q0 -20 -14 -34t-34 -14q-15 0 -32 14q-16 13 -16 34zM268 60q0 15 14 32q13 16 34 16q15 0 32 -14q16 -16 16 -34q0 -20 -14 -34t-34 -14q-15 0 -32 14q-16 13 -16 34z M268 316q0 15 14 32q13 16 34 16q15 0 32 -14q16 -16 16 -34q0 -20 -14 -34t-34 -14q-15 0 -32 14q-16 13 -16 34zM268 572q0 15 14 32q13 16 34 16q15 0 32 -14q16 -16 16 -34q0 -20 -14 -34t-34 -14q-15 0 -32 14q-16 13 -16 34zM396 60q0 15 14 32q13 16 34 16 q15 0 32 -14q16 -16 16 -34q0 -20 -14 -34t-34 -14q-15 0 -32 14q-16 13 -16 34zM396 316q0 15 14 32q13 16 34 16q15 0 32 -14q16 -16 16 -34q0 -20 -14 -34t-34 -14q-15 0 -32 14q-16 13 -16 34zM396 572q0 15 14 32q13 16 34 16q15 0 32 -14q16 -16 16 -34q0 -20 -14 -34 t-34 -14q-15 0 -32 14q-16 13 -16 34zM524 316q0 15 14 32q13 16 34 16q15 0 32 -14q16 -16 16 -34q0 -20 -14 -34t-34 -14q-15 0 -32 14q-16 13 -16 34zM524 444q0 15 14 32q13 16 34 16q15 0 32 -14q16 -16 16 -34q0 -20 -14 -34t-34 -14q-15 0 -32 14q-16 13 -16 34z" />
<glyph unicode="f" d="M12 444q0 15 14 32q13 16 34 16q15 0 32 -14q16 -16 16 -34q0 -20 -14 -34t-34 -14q-15 0 -32 14q-16 13 -16 34zM140 60q0 15 14 32q13 16 34 16q15 0 32 -14q16 -16 16 -34q0 -20 -14 -34t-34 -14q-15 0 -32 14q-16 13 -16 34zM140 188q0 15 14 32q13 16 34 16 q15 0 32 -14q16 -16 16 -34q0 -20 -14 -34t-34 -14q-15 0 -32 14q-16 13 -16 34zM140 316q0 15 14 32q13 16 34 16q15 0 32 -14q16 -16 16 -34q0 -20 -14 -34t-34 -14q-15 0 -32 14q-16 13 -16 34zM140 444q0 15 14 32q13 16 34 16q15 0 32 -14q16 -16 16 -34q0 -20 -14 -34 t-34 -14q-15 0 -32 14q-16 13 -16 34zM140 572q0 15 14 32q13 16 34 16q15 0 32 -14q16 -16 16 -34q0 -20 -14 -34t-34 -14q-15 0 -32 14q-16 13 -16 34zM140 700q0 15 14 32q13 16 34 16q15 0 32 -14q16 -16 16 -34q0 -20 -14 -34t-34 -14q-15 0 -32 14q-16 13 -16 34z M268 444q0 15 14 32q13 16 34 16q15 0 32 -14q16 -16 16 -34q0 -20 -14 -34t-34 -14q-15 0 -32 14q-16 13 -16 34zM268 828q0 15 14 32q13 16 34 16q15 0 32 -14q16 -16 16 -34q0 -20 -14 -34t-34 -14q-15 0 -32 14q-16 13 -16 34zM396 828q0 15 14 32q13 16 34 16 q15 0 32 -14q16 -16 16 -34q0 -20 -14 -34t-34 -14q-15 0 -32 14q-16 13 -16 34zM524 700q0 15 14 32q13 16 34 16q15 0 32 -14q16 -16 16 -34q0 -20 -14 -34t-34 -14q-15 0 -32 14q-16 13 -16 34z" />
<glyph unicode="g" d="M12 188q0 15 14 32q13 16 34 16q15 0 32 -14q16 -16 16 -34q0 -20 -14 -34t-34 -14q-15 0 -32 14q-16 13 -16 34zM12 -194q0 15 14 32q13 16 34 16q15 0 32 -14q16 -16 16 -34q0 -20 -14 -34t-34 -14q-15 0 -32 14q-16 13 -16 34zM12 316q0 15 14 32q13 16 34 16 q15 0 32 -14q16 -16 16 -34q0 -20 -14 -34t-34 -14q-15 0 -32 14q-16 13 -16 34zM12 444q0 15 14 32q13 16 34 16q15 0 32 -14q16 -16 16 -34q0 -20 -14 -34t-34 -14q-15 0 -32 14q-16 13 -16 34zM140 60q0 15 14 32q13 16 34 16q15 0 32 -14q16 -16 16 -34q0 -20 -14 -34 t-34 -14q-15 0 -32 14q-16 13 -16 34zM140 -322q0 15 14 32q13 16 34 16q15 0 32 -14q16 -16 16 -34q0 -20 -14 -34t-34 -14q-15 0 -32 14q-16 13 -16 34zM140 572q0 15 14 32q13 16 34 16q15 0 32 -14q16 -16 16 -34q0 -20 -14 -34t-34 -14q-15 0 -32 14q-16 13 -16 34z M268 60q0 15 14 32q13 16 34 16q15 0 32 -14q16 -16 16 -34q0 -20 -14 -34t-34 -14q-15 0 -32 14q-16 13 -16 34zM268 -322q0 15 14 32q13 16 34 16q15 0 32 -14q16 -16 16 -34q0 -20 -14 -34t-34 -14q-15 0 -32 14q-16 13 -16 34zM268 572q0 15 14 32q13 16 34 16 q15 0 32 -14q16 -16 16 -34q0 -20 -14 -34t-34 -14q-15 0 -32 14q-16 13 -16 34zM396 60q0 15 14 32q13 16 34 16q15 0 32 -14q16 -16 16 -34q0 -20 -14 -34t-34 -14q-15 0 -32 14q-16 13 -16 34zM396 -322q0 15 14 32q13 16 34 16q15 0 32 -14q16 -16 16 -34q0 -20 -14 -34 t-34 -14q-15 0 -32 14q-16 13 -16 34zM396 572q0 15 14 32q13 16 34 16q15 0 32 -14q16 -16 16 -34q0 -20 -14 -34t-34 -14q-15 0 -32 14q-16 13 -16 34zM524 60q0 15 14 32q13 16 34 16q15 0 32 -14q16 -16 16 -34q0 -20 -14 -34t-34 -14q-15 0 -32 14q-16 13 -16 34z M524 -66q0 15 14 32q13 16 34 16q15 0 32 -14q16 -16 16 -34q0 -20 -14 -34t-34 -14q-15 0 -32 14q-16 13 -16 34zM524 188q0 15 14 32q13 16 34 16q15 0 32 -14q16 -16 16 -34q0 -20 -14 -34t-34 -14q-15 0 -32 14q-16 13 -16 34zM524 -194q0 15 14 32q13 16 34 16 q15 0 32 -14q16 -16 16 -34q0 -20 -14 -34t-34 -14q-15 0 -32 14q-16 13 -16 34zM524 316q0 15 14 32q13 16 34 16q15 0 32 -14q16 -16 16 -34q0 -20 -14 -34t-34 -14q-15 0 -32 14q-16 13 -16 34zM524 444q0 15 14 32q13 16 34 16q15 0 32 -14q16 -16 16 -34q0 -20 -14 -34 t-34 -14q-15 0 -32 14q-16 13 -16 34z" />
<glyph unicode="h" d="M12 60q0 15 14 32q13 16 34 16q15 0 32 -14q16 -16 16 -34q0 -20 -14 -34t-34 -14q-15 0 -32 14q-16 13 -16 34zM12 188q0 15 14 32q13 16 34 16q15 0 32 -14q16 -16 16 -34q0 -20 -14 -34t-34 -14q-15 0 -32 14q-16 13 -16 34zM12 316q0 15 14 32q13 16 34 16 q15 0 32 -14q16 -16 16 -34q0 -20 -14 -34t-34 -14q-15 0 -32 14q-16 13 -16 34zM12 444q0 15 14 32q13 16 34 16q15 0 32 -14q16 -16 16 -34q0 -20 -14 -34t-34 -14q-15 0 -32 14q-16 13 -16 34zM12 572q0 15 14 32q13 16 34 16q15 0 32 -14q16 -16 16 -34q0 -20 -14 -34 t-34 -14q-15 0 -32 14q-16 13 -16 34zM12 700q0 15 14 32q13 16 34 16q15 0 32 -14q16 -16 16 -34q0 -20 -14 -34t-34 -14q-15 0 -32 14q-16 13 -16 34zM12 828q0 15 14 32q13 16 34 16q15 0 32 -14q16 -16 16 -34q0 -20 -14 -34t-34 -14q-15 0 -32 14q-16 13 -16 34z M140 444q0 15 14 32q13 16 34 16q15 0 32 -14q16 -16 16 -34q0 -20 -14 -34t-34 -14q-15 0 -32 14q-16 13 -16 34zM268 572q0 15 14 32q13 16 34 16q15 0 32 -14q16 -16 16 -34q0 -20 -14 -34t-34 -14q-15 0 -32 14q-16 13 -16 34zM396 572q0 15 14 32q13 16 34 16 q15 0 32 -14q16 -16 16 -34q0 -20 -14 -34t-34 -14q-15 0 -32 14q-16 13 -16 34zM524 60q0 15 14 32q13 16 34 16q15 0 32 -14q16 -16 16 -34q0 -20 -14 -34t-34 -14q-15 0 -32 14q-16 13 -16 34zM524 188q0 15 14 32q13 16 34 16q15 0 32 -14q16 -16 16 -34q0 -20 -14 -34 t-34 -14q-15 0 -32 14q-16 13 -16 34zM524 316q0 15 14 32q13 16 34 16q15 0 32 -14q16 -16 16 -34q0 -20 -14 -34t-34 -14q-15 0 -32 14q-16 13 -16 34zM524 444q0 15 14 32q13 16 34 16q15 0 32 -14q16 -16 16 -34q0 -20 -14 -34t-34 -14q-15 0 -32 14q-16 13 -16 34z" />
<glyph unicode="i" horiz-adv-x="768" d="M140 60q0 15 14 32q13 16 34 16q15 0 32 -14q16 -16 16 -34q0 -20 -14 -34t-34 -14q-15 0 -32 14q-16 13 -16 34zM140 572q0 15 14 32q13 16 34 16q15 0 32 -14q16 -16 16 -34q0 -20 -14 -34t-34 -14q-15 0 -32 14q-16 13 -16 34zM268 60q0 15 14 32q13 16 34 16 q15 0 32 -14q16 -16 16 -34q0 -20 -14 -34t-34 -14q-15 0 -32 14q-16 13 -16 34zM268 188q0 15 14 32q13 16 34 16q15 0 32 -14q16 -16 16 -34q0 -20 -14 -34t-34 -14q-15 0 -32 14q-16 13 -16 34zM268 316q0 15 14 32q13 16 34 16q15 0 32 -14q16 -16 16 -34q0 -20 -14 -34 t-34 -14q-15 0 -32 14q-16 13 -16 34zM268 444q0 15 14 32q13 16 34 16q15 0 32 -14q16 -16 16 -34q0 -20 -14 -34t-34 -14q-15 0 -32 14q-16 13 -16 34zM268 572q0 15 14 32q13 16 34 16q15 0 32 -14q16 -16 16 -34q0 -20 -14 -34t-34 -14q-15 0 -32 14q-16 13 -16 34z M268 828q0 15 14 32q13 16 34 16q15 0 32 -14q16 -16 16 -34q0 -20 -14 -34t-34 -14q-15 0 -32 14q-16 13 -16 34zM396 60q0 15 14 32q13 16 34 16q15 0 32 -14q16 -16 16 -34q0 -20 -14 -34t-34 -14q-15 0 -32 14q-16 13 -16 34z" />
<glyph unicode="j" horiz-adv-x="768" d="M140 -194q0 15 14 32q13 16 34 16q15 0 32 -14q16 -16 16 -34q0 -20 -14 -34t-34 -14q-15 0 -32 14q-16 13 -16 34zM268 -322q0 15 14 32q13 16 34 16q15 0 32 -14q16 -16 16 -34q0 -20 -14 -34t-34 -14q-15 0 -32 14q-16 13 -16 34zM268 572q0 15 14 32q13 16 34 16 q15 0 32 -14q16 -16 16 -34q0 -20 -14 -34t-34 -14q-15 0 -32 14q-16 13 -16 34zM396 60q0 15 14 32q13 16 34 16q15 0 32 -14q16 -16 16 -34q0 -20 -14 -34t-34 -14q-15 0 -32 14q-16 13 -16 34zM396 -66q0 15 14 32q13 16 34 16q15 0 32 -14q16 -16 16 -34q0 -20 -14 -34 t-34 -14q-15 0 -32 14q-16 13 -16 34zM396 188q0 15 14 32q13 16 34 16q15 0 32 -14q16 -16 16 -34q0 -20 -14 -34t-34 -14q-15 0 -32 14q-16 13 -16 34zM396 -194q0 15 14 32q13 16 34 16q15 0 32 -14q16 -16 16 -34q0 -20 -14 -34t-34 -14q-15 0 -32 14q-16 13 -16 34z M396 316q0 15 14 32q13 16 34 16q15 0 32 -14q16 -16 16 -34q0 -20 -14 -34t-34 -14q-15 0 -32 14q-16 13 -16 34zM396 444q0 15 14 32q13 16 34 16q15 0 32 -14q16 -16 16 -34q0 -20 -14 -34t-34 -14q-15 0 -32 14q-16 13 -16 34zM396 572q0 15 14 32q13 16 34 16 q15 0 32 -14q16 -16 16 -34q0 -20 -14 -34t-34 -14q-15 0 -32 14q-16 13 -16 34zM396 828q0 15 14 32q13 16 34 16q15 0 32 -14q16 -16 16 -34q0 -20 -14 -34t-34 -14q-15 0 -32 14q-16 13 -16 34z" />
<glyph unicode="k" d="M12 60q0 15 14 32q13 16 34 16q15 0 32 -14q16 -16 16 -34q0 -20 -14 -34t-34 -14q-15 0 -32 14q-16 13 -16 34zM12 188q0 15 14 32q13 16 34 16q15 0 32 -14q16 -16 16 -34q0 -20 -14 -34t-34 -14q-15 0 -32 14q-16 13 -16 34zM12 316q0 15 14 32q13 16 34 16 q15 0 32 -14q16 -16 16 -34q0 -20 -14 -34t-34 -14q-15 0 -32 14q-16 13 -16 34zM12 444q0 15 14 32q13 16 34 16q15 0 32 -14q16 -16 16 -34q0 -20 -14 -34t-34 -14q-15 0 -32 14q-16 13 -16 34zM12 572q0 15 14 32q13 16 34 16q15 0 32 -14q16 -16 16 -34q0 -20 -14 -34 t-34 -14q-15 0 -32 14q-16 13 -16 34zM12 700q0 15 14 32q13 16 34 16q15 0 32 -14q16 -16 16 -34q0 -20 -14 -34t-34 -14q-15 0 -32 14q-16 13 -16 34zM12 828q0 15 14 32q13 16 34 16q15 0 32 -14q16 -16 16 -34q0 -20 -14 -34t-34 -14q-15 0 -32 14q-16 13 -16 34z M140 316q0 15 14 32q13 16 34 16q15 0 32 -14q16 -16 16 -34q0 -20 -14 -34t-34 -14q-15 0 -32 14q-16 13 -16 34zM268 316q0 15 14 32q13 16 34 16q15 0 32 -14q16 -16 16 -34q0 -20 -14 -34t-34 -14q-15 0 -32 14q-16 13 -16 34zM268 444q0 15 14 32q13 16 34 16 q15 0 32 -14q16 -16 16 -34q0 -20 -14 -34t-34 -14q-15 0 -32 14q-16 13 -16 34zM396 188q0 15 14 32q13 16 34 16q15 0 32 -14q16 -16 16 -34q0 -20 -14 -34t-34 -14q-15 0 -32 14q-16 13 -16 34zM396 572q0 15 14 32q13 16 34 16q15 0 32 -14q16 -16 16 -34q0 -20 -14 -34 t-34 -14q-15 0 -32 14q-16 13 -16 34zM524 60q0 15 14 32q13 16 34 16q15 0 32 -14q16 -16 16 -34q0 -20 -14 -34t-34 -14q-15 0 -32 14q-16 13 -16 34z" />
<glyph unicode="l" horiz-adv-x="768" d="M140 60q0 15 14 32q13 16 34 16q15 0 32 -14q16 -16 16 -34q0 -20 -14 -34t-34 -14q-15 0 -32 14q-16 13 -16 34zM140 828q0 15 14 32q13 16 34 16q15 0 32 -14q16 -16 16 -34q0 -20 -14 -34t-34 -14q-15 0 -32 14q-16 13 -16 34zM268 60q0 15 14 32q13 16 34 16 q15 0 32 -14q16 -16 16 -34q0 -20 -14 -34t-34 -14q-15 0 -32 14q-16 13 -16 34zM268 188q0 15 14 32q13 16 34 16q15 0 32 -14q16 -16 16 -34q0 -20 -14 -34t-34 -14q-15 0 -32 14q-16 13 -16 34zM268 316q0 15 14 32q13 16 34 16q15 0 32 -14q16 -16 16 -34q0 -20 -14 -34 t-34 -14q-15 0 -32 14q-16 13 -16 34zM268 444q0 15 14 32q13 16 34 16q15 0 32 -14q16 -16 16 -34q0 -20 -14 -34t-34 -14q-15 0 -32 14q-16 13 -16 34zM268 572q0 15 14 32q13 16 34 16q15 0 32 -14q16 -16 16 -34q0 -20 -14 -34t-34 -14q-15 0 -32 14q-16 13 -16 34z M268 700q0 15 14 32q13 16 34 16q15 0 32 -14q16 -16 16 -34q0 -20 -14 -34t-34 -14q-15 0 -32 14q-16 13 -16 34zM268 828q0 15 14 32q13 16 34 16q15 0 32 -14q16 -16 16 -34q0 -20 -14 -34t-34 -14q-15 0 -32 14q-16 13 -16 34zM396 60q0 15 14 32q13 16 34 16 q15 0 32 -14q16 -16 16 -34q0 -20 -14 -34t-34 -14q-15 0 -32 14q-16 13 -16 34z" />
<glyph unicode="m" d="M12 60q0 15 14 32q13 16 34 16q15 0 32 -14q16 -16 16 -34q0 -20 -14 -34t-34 -14q-15 0 -32 14q-16 13 -16 34zM12 188q0 15 14 32q13 16 34 16q15 0 32 -14q16 -16 16 -34q0 -20 -14 -34t-34 -14q-15 0 -32 14q-16 13 -16 34zM12 316q0 15 14 32q13 16 34 16 q15 0 32 -14q16 -16 16 -34q0 -20 -14 -34t-34 -14q-15 0 -32 14q-16 13 -16 34zM12 444q0 15 14 32q13 16 34 16q15 0 32 -14q16 -16 16 -34q0 -20 -14 -34t-34 -14q-15 0 -32 14q-16 13 -16 34zM12 572q0 15 14 32q13 16 34 16q15 0 32 -14q16 -16 16 -34q0 -20 -14 -34 t-34 -14q-15 0 -32 14q-16 13 -16 34zM140 572q0 15 14 32q13 16 34 16q15 0 32 -14q16 -16 16 -34q0 -20 -14 -34t-34 -14q-15 0 -32 14q-16 13 -16 34zM268 60q0 15 14 32q13 16 34 16q15 0 32 -14q16 -16 16 -34q0 -20 -14 -34t-34 -14q-15 0 -32 14q-16 13 -16 34z M268 188q0 15 14 32q13 16 34 16q15 0 32 -14q16 -16 16 -34q0 -20 -14 -34t-34 -14q-15 0 -32 14q-16 13 -16 34zM268 316q0 15 14 32q13 16 34 16q15 0 32 -14q16 -16 16 -34q0 -20 -14 -34t-34 -14q-15 0 -32 14q-16 13 -16 34zM268 444q0 15 14 32q13 16 34 16 q15 0 32 -14q16 -16 16 -34q0 -20 -14 -34t-34 -14q-15 0 -32 14q-16 13 -16 34zM396 572q0 15 14 32q13 16 34 16q15 0 32 -14q16 -16 16 -34q0 -20 -14 -34t-34 -14q-15 0 -32 14q-16 13 -16 34zM524 60q0 15 14 32q13 16 34 16q15 0 32 -14q16 -16 16 -34q0 -20 -14 -34 t-34 -14q-15 0 -32 14q-16 13 -16 34zM524 188q0 15 14 32q13 16 34 16q15 0 32 -14q16 -16 16 -34q0 -20 -14 -34t-34 -14q-15 0 -32 14q-16 13 -16 34zM524 316q0 15 14 32q13 16 34 16q15 0 32 -14q16 -16 16 -34q0 -20 -14 -34t-34 -14q-15 0 -32 14q-16 13 -16 34z M524 444q0 15 14 32q13 16 34 16q15 0 32 -14q16 -16 16 -34q0 -20 -14 -34t-34 -14q-15 0 -32 14q-16 13 -16 34z" />
<glyph unicode="n" d="M12 60q0 15 14 32q13 16 34 16q15 0 32 -14q16 -16 16 -34q0 -20 -14 -34t-34 -14q-15 0 -32 14q-16 13 -16 34zM12 188q0 15 14 32q13 16 34 16q15 0 32 -14q16 -16 16 -34q0 -20 -14 -34t-34 -14q-15 0 -32 14q-16 13 -16 34zM12 316q0 15 14 32q13 16 34 16 q15 0 32 -14q16 -16 16 -34q0 -20 -14 -34t-34 -14q-15 0 -32 14q-16 13 -16 34zM12 444q0 15 14 32q13 16 34 16q15 0 32 -14q16 -16 16 -34q0 -20 -14 -34t-34 -14q-15 0 -32 14q-16 13 -16 34zM12 572q0 15 14 32q13 16 34 16q15 0 32 -14q16 -16 16 -34q0 -20 -14 -34 t-34 -14q-15 0 -32 14q-16 13 -16 34zM140 444q0 15 14 32q13 16 34 16q15 0 32 -14q16 -16 16 -34q0 -20 -14 -34t-34 -14q-15 0 -32 14q-16 13 -16 34zM268 572q0 15 14 32q13 16 34 16q15 0 32 -14q16 -16 16 -34q0 -20 -14 -34t-34 -14q-15 0 -32 14q-16 13 -16 34z M396 572q0 15 14 32q13 16 34 16q15 0 32 -14q16 -16 16 -34q0 -20 -14 -34t-34 -14q-15 0 -32 14q-16 13 -16 34zM524 60q0 15 14 32q13 16 34 16q15 0 32 -14q16 -16 16 -34q0 -20 -14 -34t-34 -14q-15 0 -32 14q-16 13 -16 34zM524 188q0 15 14 32q13 16 34 16 q15 0 32 -14q16 -16 16 -34q0 -20 -14 -34t-34 -14q-15 0 -32 14q-16 13 -16 34zM524 316q0 15 14 32q13 16 34 16q15 0 32 -14q16 -16 16 -34q0 -20 -14 -34t-34 -14q-15 0 -32 14q-16 13 -16 34zM524 444q0 15 14 32q13 16 34 16q15 0 32 -14q16 -16 16 -34q0 -20 -14 -34 t-34 -14q-15 0 -32 14q-16 13 -16 34z" />
<glyph unicode="o" d="M12 188q0 15 14 32q13 16 34 16q15 0 32 -14q16 -16 16 -34q0 -20 -14 -34t-34 -14q-15 0 -32 14q-16 13 -16 34zM12 316q0 15 14 32q13 16 34 16q15 0 32 -14q16 -16 16 -34q0 -20 -14 -34t-34 -14q-15 0 -32 14q-16 13 -16 34zM12 444q0 15 14 32q13 16 34 16 q15 0 32 -14q16 -16 16 -34q0 -20 -14 -34t-34 -14q-15 0 -32 14q-16 13 -16 34zM140 60q0 15 14 32q13 16 34 16q15 0 32 -14q16 -16 16 -34q0 -20 -14 -34t-34 -14q-15 0 -32 14q-16 13 -16 34zM140 572q0 15 14 32q13 16 34 16q15 0 32 -14q16 -16 16 -34q0 -20 -14 -34 t-34 -14q-15 0 -32 14q-16 13 -16 34zM268 60q0 15 14 32q13 16 34 16q15 0 32 -14q16 -16 16 -34q0 -20 -14 -34t-34 -14q-15 0 -32 14q-16 13 -16 34zM268 572q0 15 14 32q13 16 34 16q15 0 32 -14q16 -16 16 -34q0 -20 -14 -34t-34 -14q-15 0 -32 14q-16 13 -16 34z M396 60q0 15 14 32q13 16 34 16q15 0 32 -14q16 -16 16 -34q0 -20 -14 -34t-34 -14q-15 0 -32 14q-16 13 -16 34zM396 572q0 15 14 32q13 16 34 16q15 0 32 -14q16 -16 16 -34q0 -20 -14 -34t-34 -14q-15 0 -32 14q-16 13 -16 34zM524 188q0 15 14 32q13 16 34 16 q15 0 32 -14q16 -16 16 -34q0 -20 -14 -34t-34 -14q-15 0 -32 14q-16 13 -16 34zM524 316q0 15 14 32q13 16 34 16q15 0 32 -14q16 -16 16 -34q0 -20 -14 -34t-34 -14q-15 0 -32 14q-16 13 -16 34zM524 444q0 15 14 32q13 16 34 16q15 0 32 -14q16 -16 16 -34q0 -20 -14 -34 t-34 -14q-15 0 -32 14q-16 13 -16 34z" />
<glyph unicode="p" d="M12 60q0 15 14 32q13 16 34 16q15 0 32 -14q16 -16 16 -34q0 -20 -14 -34t-34 -14q-15 0 -32 14q-16 13 -16 34zM12 -66q0 15 14 32q13 16 34 16q15 0 32 -14q16 -16 16 -34q0 -20 -14 -34t-34 -14q-15 0 -32 14q-16 13 -16 34zM12 188q0 15 14 32q13 16 34 16 q15 0 32 -14q16 -16 16 -34q0 -20 -14 -34t-34 -14q-15 0 -32 14q-16 13 -16 34zM12 -194q0 15 14 32q13 16 34 16q15 0 32 -14q16 -16 16 -34q0 -20 -14 -34t-34 -14q-15 0 -32 14q-16 13 -16 34zM12 316q0 15 14 32q13 16 34 16q15 0 32 -14q16 -16 16 -34q0 -20 -14 -34 t-34 -14q-15 0 -32 14q-16 13 -16 34zM12 -322q0 15 14 32q13 16 34 16q15 0 32 -14q16 -16 16 -34q0 -20 -14 -34t-34 -14q-15 0 -32 14q-16 13 -16 34zM12 444q0 15 14 32q13 16 34 16q15 0 32 -14q16 -16 16 -34q0 -20 -14 -34t-34 -14q-15 0 -32 14q-16 13 -16 34z M140 60q0 15 14 32q13 16 34 16q15 0 32 -14q16 -16 16 -34q0 -20 -14 -34t-34 -14q-15 0 -32 14q-16 13 -16 34zM140 572q0 15 14 32q13 16 34 16q15 0 32 -14q16 -16 16 -34q0 -20 -14 -34t-34 -14q-15 0 -32 14q-16 13 -16 34zM268 60q0 15 14 32q13 16 34 16 q15 0 32 -14q16 -16 16 -34q0 -20 -14 -34t-34 -14q-15 0 -32 14q-16 13 -16 34zM268 572q0 15 14 32q13 16 34 16q15 0 32 -14q16 -16 16 -34q0 -20 -14 -34t-34 -14q-15 0 -32 14q-16 13 -16 34zM396 60q0 15 14 32q13 16 34 16q15 0 32 -14q16 -16 16 -34q0 -20 -14 -34 t-34 -14q-15 0 -32 14q-16 13 -16 34zM396 572q0 15 14 32q13 16 34 16q15 0 32 -14q16 -16 16 -34q0 -20 -14 -34t-34 -14q-15 0 -32 14q-16 13 -16 34zM524 188q0 15 14 32q13 16 34 16q15 0 32 -14q16 -16 16 -34q0 -20 -14 -34t-34 -14q-15 0 -32 14q-16 13 -16 34z M524 316q0 15 14 32q13 16 34 16q15 0 32 -14q16 -16 16 -34q0 -20 -14 -34t-34 -14q-15 0 -32 14q-16 13 -16 34zM524 444q0 15 14 32q13 16 34 16q15 0 32 -14q16 -16 16 -34q0 -20 -14 -34t-34 -14q-15 0 -32 14q-16 13 -16 34z" />
<glyph unicode="q" d="M12 188q0 15 14 32q13 16 34 16q15 0 32 -14q16 -16 16 -34q0 -20 -14 -34t-34 -14q-15 0 -32 14q-16 13 -16 34zM12 316q0 15 14 32q13 16 34 16q15 0 32 -14q16 -16 16 -34q0 -20 -14 -34t-34 -14q-15 0 -32 14q-16 13 -16 34zM12 444q0 15 14 32q13 16 34 16 q15 0 32 -14q16 -16 16 -34q0 -20 -14 -34t-34 -14q-15 0 -32 14q-16 13 -16 34zM140 60q0 15 14 32q13 16 34 16q15 0 32 -14q16 -16 16 -34q0 -20 -14 -34t-34 -14q-15 0 -32 14q-16 13 -16 34zM140 572q0 15 14 32q13 16 34 16q15 0 32 -14q16 -16 16 -34q0 -20 -14 -34 t-34 -14q-15 0 -32 14q-16 13 -16 34zM268 60q0 15 14 32q13 16 34 16q15 0 32 -14q16 -16 16 -34q0 -20 -14 -34t-34 -14q-15 0 -32 14q-16 13 -16 34zM268 572q0 15 14 32q13 16 34 16q15 0 32 -14q16 -16 16 -34q0 -20 -14 -34t-34 -14q-15 0 -32 14q-16 13 -16 34z M396 60q0 15 14 32q13 16 34 16q15 0 32 -14q16 -16 16 -34q0 -20 -14 -34t-34 -14q-15 0 -32 14q-16 13 -16 34zM396 572q0 15 14 32q13 16 34 16q15 0 32 -14q16 -16 16 -34q0 -20 -14 -34t-34 -14q-15 0 -32 14q-16 13 -16 34zM524 60q0 15 14 32q13 16 34 16 q15 0 32 -14q16 -16 16 -34q0 -20 -14 -34t-34 -14q-15 0 -32 14q-16 13 -16 34zM524 -66q0 15 14 32q13 16 34 16q15 0 32 -14q16 -16 16 -34q0 -20 -14 -34t-34 -14q-15 0 -32 14q-16 13 -16 34zM524 188q0 15 14 32q13 16 34 16q15 0 32 -14q16 -16 16 -34q0 -20 -14 -34 t-34 -14q-15 0 -32 14q-16 13 -16 34zM524 -194q0 15 14 32q13 16 34 16q15 0 32 -14q16 -16 16 -34q0 -20 -14 -34t-34 -14q-15 0 -32 14q-16 13 -16 34zM524 316q0 15 14 32q13 16 34 16q15 0 32 -14q16 -16 16 -34q0 -20 -14 -34t-34 -14q-15 0 -32 14q-16 13 -16 34z M524 -322q0 15 14 32q13 16 34 16q15 0 32 -14q16 -16 16 -34q0 -20 -14 -34t-34 -14q-15 0 -32 14q-16 13 -16 34zM524 444q0 15 14 32q13 16 34 16q15 0 32 -14q16 -16 16 -34q0 -20 -14 -34t-34 -14q-15 0 -32 14q-16 13 -16 34z" />
<glyph unicode="r" d="M12 60q0 15 14 32q13 16 34 16q15 0 32 -14q16 -16 16 -34q0 -20 -14 -34t-34 -14q-15 0 -32 14q-16 13 -16 34zM12 188q0 15 14 32q13 16 34 16q15 0 32 -14q16 -16 16 -34q0 -20 -14 -34t-34 -14q-15 0 -32 14q-16 13 -16 34zM12 316q0 15 14 32q13 16 34 16 q15 0 32 -14q16 -16 16 -34q0 -20 -14 -34t-34 -14q-15 0 -32 14q-16 13 -16 34zM12 444q0 15 14 32q13 16 34 16q15 0 32 -14q16 -16 16 -34q0 -20 -14 -34t-34 -14q-15 0 -32 14q-16 13 -16 34zM12 572q0 15 14 32q13 16 34 16q15 0 32 -14q16 -16 16 -34q0 -20 -14 -34 t-34 -14q-15 0 -32 14q-16 13 -16 34zM140 444q0 15 14 32q13 16 34 16q15 0 32 -14q16 -16 16 -34q0 -20 -14 -34t-34 -14q-15 0 -32 14q-16 13 -16 34zM268 572q0 15 14 32q13 16 34 16q15 0 32 -14q16 -16 16 -34q0 -20 -14 -34t-34 -14q-15 0 -32 14q-16 13 -16 34z M396 572q0 15 14 32q13 16 34 16q15 0 32 -14q16 -16 16 -34q0 -20 -14 -34t-34 -14q-15 0 -32 14q-16 13 -16 34zM524 444q0 15 14 32q13 16 34 16q15 0 32 -14q16 -16 16 -34q0 -20 -14 -34t-34 -14q-15 0 -32 14q-16 13 -16 34z" />
<glyph unicode="s" d="M12 60q0 15 14 32q13 16 34 16q15 0 32 -14q16 -16 16 -34q0 -20 -14 -34t-34 -14q-15 0 -32 14q-16 13 -16 34zM12 444q0 15 14 32q13 16 34 16q15 0 32 -14q16 -16 16 -34q0 -20 -14 -34t-34 -14q-15 0 -32 14q-16 13 -16 34zM140 60q0 15 14 32q13 16 34 16 q15 0 32 -14q16 -16 16 -34q0 -20 -14 -34t-34 -14q-15 0 -32 14q-16 13 -16 34zM140 316q0 15 14 32q13 16 34 16q15 0 32 -14q16 -16 16 -34q0 -20 -14 -34t-34 -14q-15 0 -32 14q-16 13 -16 34zM140 572q0 15 14 32q13 16 34 16q15 0 32 -14q16 -16 16 -34q0 -20 -14 -34 t-34 -14q-15 0 -32 14q-16 13 -16 34zM268 60q0 15 14 32q13 16 34 16q15 0 32 -14q16 -16 16 -34q0 -20 -14 -34t-34 -14q-15 0 -32 14q-16 13 -16 34zM268 316q0 15 14 32q13 16 34 16q15 0 32 -14q16 -16 16 -34q0 -20 -14 -34t-34 -14q-15 0 -32 14q-16 13 -16 34z M268 572q0 15 14 32q13 16 34 16q15 0 32 -14q16 -16 16 -34q0 -20 -14 -34t-34 -14q-15 0 -32 14q-16 13 -16 34zM396 60q0 15 14 32q13 16 34 16q15 0 32 -14q16 -16 16 -34q0 -20 -14 -34t-34 -14q-15 0 -32 14q-16 13 -16 34zM396 316q0 15 14 32q13 16 34 16 q15 0 32 -14q16 -16 16 -34q0 -20 -14 -34t-34 -14q-15 0 -32 14q-16 13 -16 34zM396 572q0 15 14 32q13 16 34 16q15 0 32 -14q16 -16 16 -34q0 -20 -14 -34t-34 -14q-15 0 -32 14q-16 13 -16 34zM524 188q0 15 14 32q13 16 34 16q15 0 32 -14q16 -16 16 -34q0 -20 -14 -34 t-34 -14q-15 0 -32 14q-16 13 -16 34zM524 572q0 15 14 32q13 16 34 16q15 0 32 -14q16 -16 16 -34q0 -20 -14 -34t-34 -14q-15 0 -32 14q-16 13 -16 34z" />
<glyph unicode="t" horiz-adv-x="768" d="M140 572q0 15 14 32q13 16 34 16q15 0 32 -14q16 -16 16 -34q0 -20 -14 -34t-34 -14q-15 0 -32 14q-16 13 -16 34zM268 188q0 15 14 32q13 16 34 16q15 0 32 -14q16 -16 16 -34q0 -20 -14 -34t-34 -14q-15 0 -32 14q-16 13 -16 34zM268 316q0 15 14 32q13 16 34 16 q15 0 32 -14q16 -16 16 -34q0 -20 -14 -34t-34 -14q-15 0 -32 14q-16 13 -16 34zM268 444q0 15 14 32q13 16 34 16q15 0 32 -14q16 -16 16 -34q0 -20 -14 -34t-34 -14q-15 0 -32 14q-16 13 -16 34zM268 572q0 15 14 32q13 16 34 16q15 0 32 -14q16 -16 16 -34q0 -20 -14 -34 t-34 -14q-15 0 -32 14q-16 13 -16 34zM268 700q0 15 14 32q13 16 34 16q15 0 32 -14q16 -16 16 -34q0 -20 -14 -34t-34 -14q-15 0 -32 14q-16 13 -16 34zM268 828q0 15 14 32q13 16 34 16q15 0 32 -14q16 -16 16 -34q0 -20 -14 -34t-34 -14q-15 0 -32 14q-16 13 -16 34z M396 60q0 15 14 32q13 16 34 16q15 0 32 -14q16 -16 16 -34q0 -20 -14 -34t-34 -14q-15 0 -32 14q-16 13 -16 34zM396 572q0 15 14 32q13 16 34 16q15 0 32 -14q16 -16 16 -34q0 -20 -14 -34t-34 -14q-15 0 -32 14q-16 13 -16 34zM524 60q0 15 14 32q13 16 34 16 q15 0 32 -14q16 -16 16 -34q0 -20 -14 -34t-34 -14q-15 0 -32 14q-16 13 -16 34zM524 572q0 15 14 32q13 16 34 16q15 0 32 -14q16 -16 16 -34q0 -20 -14 -34t-34 -14q-15 0 -32 14q-16 13 -16 34z" />
<glyph unicode="u" d="M12 188q0 15 14 32q13 16 34 16q15 0 32 -14q16 -16 16 -34q0 -20 -14 -34t-34 -14q-15 0 -32 14q-16 13 -16 34zM12 316q0 15 14 32q13 16 34 16q15 0 32 -14q16 -16 16 -34q0 -20 -14 -34t-34 -14q-15 0 -32 14q-16 13 -16 34zM12 444q0 15 14 32q13 16 34 16 q15 0 32 -14q16 -16 16 -34q0 -20 -14 -34t-34 -14q-15 0 -32 14q-16 13 -16 34zM12 572q0 15 14 32q13 16 34 16q15 0 32 -14q16 -16 16 -34q0 -20 -14 -34t-34 -14q-15 0 -32 14q-16 13 -16 34zM140 60q0 15 14 32q13 16 34 16q15 0 32 -14q16 -16 16 -34q0 -20 -14 -34 t-34 -14q-15 0 -32 14q-16 13 -16 34zM268 60q0 15 14 32q13 16 34 16q15 0 32 -14q16 -16 16 -34q0 -20 -14 -34t-34 -14q-15 0 -32 14q-16 13 -16 34zM396 188q0 15 14 32q13 16 34 16q15 0 32 -14q16 -16 16 -34q0 -20 -14 -34t-34 -14q-15 0 -32 14q-16 13 -16 34z M524 60q0 15 14 32q13 16 34 16q15 0 32 -14q16 -16 16 -34q0 -20 -14 -34t-34 -14q-15 0 -32 14q-16 13 -16 34zM524 188q0 15 14 32q13 16 34 16q15 0 32 -14q16 -16 16 -34q0 -20 -14 -34t-34 -14q-15 0 -32 14q-16 13 -16 34zM524 316q0 15 14 32q13 16 34 16 q15 0 32 -14q16 -16 16 -34q0 -20 -14 -34t-34 -14q-15 0 -32 14q-16 13 -16 34zM524 444q0 15 14 32q13 16 34 16q15 0 32 -14q16 -16 16 -34q0 -20 -14 -34t-34 -14q-15 0 -32 14q-16 13 -16 34zM524 572q0 15 14 32q13 16 34 16q15 0 32 -14q16 -16 16 -34q0 -20 -14 -34 t-34 -14q-15 0 -32 14q-16 13 -16 34z" />
<glyph unicode="v" d="M12 316q0 15 14 32q13 16 34 16q15 0 32 -14q16 -16 16 -34q0 -20 -14 -34t-34 -14q-15 0 -32 14q-16 13 -16 34zM12 444q0 15 14 32q13 16 34 16q15 0 32 -14q16 -16 16 -34q0 -20 -14 -34t-34 -14q-15 0 -32 14q-16 13 -16 34zM12 572q0 15 14 32q13 16 34 16 q15 0 32 -14q16 -16 16 -34q0 -20 -14 -34t-34 -14q-15 0 -32 14q-16 13 -16 34zM140 188q0 15 14 32q13 16 34 16q15 0 32 -14q16 -16 16 -34q0 -20 -14 -34t-34 -14q-15 0 -32 14q-16 13 -16 34zM268 60q0 15 14 32q13 16 34 16q15 0 32 -14q16 -16 16 -34q0 -20 -14 -34 t-34 -14q-15 0 -32 14q-16 13 -16 34zM396 188q0 15 14 32q13 16 34 16q15 0 32 -14q16 -16 16 -34q0 -20 -14 -34t-34 -14q-15 0 -32 14q-16 13 -16 34zM524 316q0 15 14 32q13 16 34 16q15 0 32 -14q16 -16 16 -34q0 -20 -14 -34t-34 -14q-15 0 -32 14q-16 13 -16 34z M524 444q0 15 14 32q13 16 34 16q15 0 32 -14q16 -16 16 -34q0 -20 -14 -34t-34 -14q-15 0 -32 14q-16 13 -16 34zM524 572q0 15 14 32q13 16 34 16q15 0 32 -14q16 -16 16 -34q0 -20 -14 -34t-34 -14q-15 0 -32 14q-16 13 -16 34z" />
<glyph unicode="w" d="M12 188q0 15 14 32q13 16 34 16q15 0 32 -14q16 -16 16 -34q0 -20 -14 -34t-34 -14q-15 0 -32 14q-16 13 -16 34zM12 316q0 15 14 32q13 16 34 16q15 0 32 -14q16 -16 16 -34q0 -20 -14 -34t-34 -14q-15 0 -32 14q-16 13 -16 34zM12 444q0 15 14 32q13 16 34 16 q15 0 32 -14q16 -16 16 -34q0 -20 -14 -34t-34 -14q-15 0 -32 14q-16 13 -16 34zM12 572q0 15 14 32q13 16 34 16q15 0 32 -14q16 -16 16 -34q0 -20 -14 -34t-34 -14q-15 0 -32 14q-16 13 -16 34zM140 60q0 15 14 32q13 16 34 16q15 0 32 -14q16 -16 16 -34q0 -20 -14 -34 t-34 -14q-15 0 -32 14q-16 13 -16 34zM268 188q0 15 14 32q13 16 34 16q15 0 32 -14q16 -16 16 -34q0 -20 -14 -34t-34 -14q-15 0 -32 14q-16 13 -16 34zM268 316q0 15 14 32q13 16 34 16q15 0 32 -14q16 -16 16 -34q0 -20 -14 -34t-34 -14q-15 0 -32 14q-16 13 -16 34z M396 60q0 15 14 32q13 16 34 16q15 0 32 -14q16 -16 16 -34q0 -20 -14 -34t-34 -14q-15 0 -32 14q-16 13 -16 34zM524 188q0 15 14 32q13 16 34 16q15 0 32 -14q16 -16 16 -34q0 -20 -14 -34t-34 -14q-15 0 -32 14q-16 13 -16 34zM524 316q0 15 14 32q13 16 34 16 q15 0 32 -14q16 -16 16 -34q0 -20 -14 -34t-34 -14q-15 0 -32 14q-16 13 -16 34zM524 444q0 15 14 32q13 16 34 16q15 0 32 -14q16 -16 16 -34q0 -20 -14 -34t-34 -14q-15 0 -32 14q-16 13 -16 34zM524 572q0 15 14 32q13 16 34 16q15 0 32 -14q16 -16 16 -34q0 -20 -14 -34 t-34 -14q-15 0 -32 14q-16 13 -16 34z" />
<glyph unicode="x" d="M12 60q0 15 14 32q13 16 34 16q15 0 32 -14q16 -16 16 -34q0 -20 -14 -34t-34 -14q-15 0 -32 14q-16 13 -16 34zM12 572q0 15 14 32q13 16 34 16q15 0 32 -14q16 -16 16 -34q0 -20 -14 -34t-34 -14q-15 0 -32 14q-16 13 -16 34zM140 188q0 15 14 32q13 16 34 16 q15 0 32 -14q16 -16 16 -34q0 -20 -14 -34t-34 -14q-15 0 -32 14q-16 13 -16 34zM140 444q0 15 14 32q13 16 34 16q15 0 32 -14q16 -16 16 -34q0 -20 -14 -34t-34 -14q-15 0 -32 14q-16 13 -16 34zM268 316q0 15 14 32q13 16 34 16q15 0 32 -14q16 -16 16 -34q0 -20 -14 -34 t-34 -14q-15 0 -32 14q-16 13 -16 34zM396 188q0 15 14 32q13 16 34 16q15 0 32 -14q16 -16 16 -34q0 -20 -14 -34t-34 -14q-15 0 -32 14q-16 13 -16 34zM396 444q0 15 14 32q13 16 34 16q15 0 32 -14q16 -16 16 -34q0 -20 -14 -34t-34 -14q-15 0 -32 14q-16 13 -16 34z M524 60q0 15 14 32q13 16 34 16q15 0 32 -14q16 -16 16 -34q0 -20 -14 -34t-34 -14q-15 0 -32 14q-16 13 -16 34zM524 572q0 15 14 32q13 16 34 16q15 0 32 -14q16 -16 16 -34q0 -20 -14 -34t-34 -14q-15 0 -32 14q-16 13 -16 34z" />
<glyph unicode="y" d="M12 188q0 15 14 32q13 16 34 16q15 0 32 -14q16 -16 16 -34q0 -20 -14 -34t-34 -14q-15 0 -32 14q-16 13 -16 34zM12 -194q0 15 14 32q13 16 34 16q15 0 32 -14q16 -16 16 -34q0 -20 -14 -34t-34 -14q-15 0 -32 14q-16 13 -16 34zM12 316q0 15 14 32q13 16 34 16 q15 0 32 -14q16 -16 16 -34q0 -20 -14 -34t-34 -14q-15 0 -32 14q-16 13 -16 34zM12 444q0 15 14 32q13 16 34 16q15 0 32 -14q16 -16 16 -34q0 -20 -14 -34t-34 -14q-15 0 -32 14q-16 13 -16 34zM12 572q0 15 14 32q13 16 34 16q15 0 32 -14q16 -16 16 -34q0 -20 -14 -34 t-34 -14q-15 0 -32 14q-16 13 -16 34zM140 60q0 15 14 32q13 16 34 16q15 0 32 -14q16 -16 16 -34q0 -20 -14 -34t-34 -14q-15 0 -32 14q-16 13 -16 34zM140 -322q0 15 14 32q13 16 34 16q15 0 32 -14q16 -16 16 -34q0 -20 -14 -34t-34 -14q-15 0 -32 14q-16 13 -16 34z M268 60q0 15 14 32q13 16 34 16q15 0 32 -14q16 -16 16 -34q0 -20 -14 -34t-34 -14q-15 0 -32 14q-16 13 -16 34zM268 -322q0 15 14 32q13 16 34 16q15 0 32 -14q16 -16 16 -34q0 -20 -14 -34t-34 -14q-15 0 -32 14q-16 13 -16 34zM396 188q0 15 14 32q13 16 34 16 q15 0 32 -14q16 -16 16 -34q0 -20 -14 -34t-34 -14q-15 0 -32 14q-16 13 -16 34zM396 -322q0 15 14 32q13 16 34 16q15 0 32 -14q16 -16 16 -34q0 -20 -14 -34t-34 -14q-15 0 -32 14q-16 13 -16 34zM524 60q0 15 14 32q13 16 34 16q15 0 32 -14q16 -16 16 -34q0 -20 -14 -34 t-34 -14q-15 0 -32 14q-16 13 -16 34zM524 -66q0 15 14 32q13 16 34 16q15 0 32 -14q16 -16 16 -34q0 -20 -14 -34t-34 -14q-15 0 -32 14q-16 13 -16 34zM524 188q0 15 14 32q13 16 34 16q15 0 32 -14q16 -16 16 -34q0 -20 -14 -34t-34 -14q-15 0 -32 14q-16 13 -16 34z M524 -194q0 15 14 32q13 16 34 16q15 0 32 -14q16 -16 16 -34q0 -20 -14 -34t-34 -14q-15 0 -32 14q-16 13 -16 34zM524 316q0 15 14 32q13 16 34 16q15 0 32 -14q16 -16 16 -34q0 -20 -14 -34t-34 -14q-15 0 -32 14q-16 13 -16 34zM524 444q0 15 14 32q13 16 34 16 q15 0 32 -14q16 -16 16 -34q0 -20 -14 -34t-34 -14q-15 0 -32 14q-16 13 -16 34zM524 572q0 15 14 32q13 16 34 16q15 0 32 -14q16 -16 16 -34q0 -20 -14 -34t-34 -14q-15 0 -32 14q-16 13 -16 34z" />
<glyph unicode="z" d="M12 60q0 15 14 32q13 16 34 16q15 0 32 -14q16 -16 16 -34q0 -20 -14 -34t-34 -14q-15 0 -32 14q-16 13 -16 34zM12 572q0 15 14 32q13 16 34 16q15 0 32 -14q16 -16 16 -34q0 -20 -14 -34t-34 -14q-15 0 -32 14q-16 13 -16 34zM140 60q0 15 14 32q13 16 34 16 q15 0 32 -14q16 -16 16 -34q0 -20 -14 -34t-34 -14q-15 0 -32 14q-16 13 -16 34zM140 188q0 15 14 32q13 16 34 16q15 0 32 -14q16 -16 16 -34q0 -20 -14 -34t-34 -14q-15 0 -32 14q-16 13 -16 34zM140 572q0 15 14 32q13 16 34 16q15 0 32 -14q16 -16 16 -34q0 -20 -14 -34 t-34 -14q-15 0 -32 14q-16 13 -16 34zM268 60q0 15 14 32q13 16 34 16q15 0 32 -14q16 -16 16 -34q0 -20 -14 -34t-34 -14q-15 0 -32 14q-16 13 -16 34zM268 316q0 15 14 32q13 16 34 16q15 0 32 -14q16 -16 16 -34q0 -20 -14 -34t-34 -14q-15 0 -32 14q-16 13 -16 34z M268 572q0 15 14 32q13 16 34 16q15 0 32 -14q16 -16 16 -34q0 -20 -14 -34t-34 -14q-15 0 -32 14q-16 13 -16 34zM396 60q0 15 14 32q13 16 34 16q15 0 32 -14q16 -16 16 -34q0 -20 -14 -34t-34 -14q-15 0 -32 14q-16 13 -16 34zM396 444q0 15 14 32q13 16 34 16 q15 0 32 -14q16 -16 16 -34q0 -20 -14 -34t-34 -14q-15 0 -32 14q-16 13 -16 34zM396 572q0 15 14 32q13 16 34 16q15 0 32 -14q16 -16 16 -34q0 -20 -14 -34t-34 -14q-15 0 -32 14q-16 13 -16 34zM524 60q0 15 14 32q13 16 34 16q15 0 32 -14q16 -16 16 -34q0 -20 -14 -34 t-34 -14q-15 0 -32 14q-16 13 -16 34zM524 572q0 15 14 32q13 16 34 16q15 0 32 -14q16 -16 16 -34q0 -20 -14 -34t-34 -14q-15 0 -32 14q-16 13 -16 34z" />
<glyph unicode="{" horiz-adv-x="510" d="M12 444q0 15 14 32q13 16 34 16q15 0 32 -14q16 -16 16 -34q0 -20 -14 -34t-34 -14q-15 0 -32 14q-16 13 -16 34zM140 188q0 15 14 32q13 16 34 16q15 0 32 -14q16 -16 16 -34q0 -20 -14 -34t-34 -14q-15 0 -32 14q-16 13 -16 34zM140 316q0 15 14 32q13 16 34 16 q15 0 32 -14q16 -16 16 -34q0 -20 -14 -34t-34 -14q-15 0 -32 14q-16 13 -16 34zM140 444q0 15 14 32q13 16 34 16q15 0 32 -14q16 -16 16 -34q0 -20 -14 -34t-34 -14q-15 0 -32 14q-16 13 -16 34zM140 572q0 15 14 32q13 16 34 16q15 0 32 -14q16 -16 16 -34q0 -20 -14 -34 t-34 -14q-15 0 -32 14q-16 13 -16 34zM140 700q0 15 14 32q13 16 34 16q15 0 32 -14q16 -16 16 -34q0 -20 -14 -34t-34 -14q-15 0 -32 14q-16 13 -16 34zM268 60q0 15 14 32q13 16 34 16q15 0 32 -14q16 -16 16 -34q0 -20 -14 -34t-34 -14q-15 0 -32 14q-16 13 -16 34z M268 828q0 15 14 32q13 16 34 16q15 0 32 -14q16 -16 16 -34q0 -20 -14 -34t-34 -14q-15 0 -32 14q-16 13 -16 34z" />
<glyph unicode="|" horiz-adv-x="254" d="M12 60q0 15 14 32q13 16 34 16q15 0 32 -14q16 -16 16 -34q0 -20 -14 -34t-34 -14q-15 0 -32 14q-16 13 -16 34zM12 188q0 15 14 32q13 16 34 16q15 0 32 -14q16 -16 16 -34q0 -20 -14 -34t-34 -14q-15 0 -32 14q-16 13 -16 34zM12 316q0 15 14 32q13 16 34 16 q15 0 32 -14q16 -16 16 -34q0 -20 -14 -34t-34 -14q-15 0 -32 14q-16 13 -16 34zM12 444q0 15 14 32q13 16 34 16q15 0 32 -14q16 -16 16 -34q0 -20 -14 -34t-34 -14q-15 0 -32 14q-16 13 -16 34zM12 572q0 15 14 32q13 16 34 16q15 0 32 -14q16 -16 16 -34q0 -20 -14 -34 t-34 -14q-15 0 -32 14q-16 13 -16 34zM12 700q0 15 14 32q13 16 34 16q15 0 32 -14q16 -16 16 -34q0 -20 -14 -34t-34 -14q-15 0 -32 14q-16 13 -16 34zM12 828q0 15 14 32q13 16 34 16q15 0 32 -14q16 -16 16 -34q0 -20 -14 -34t-34 -14q-15 0 -32 14q-16 13 -16 34z" />
<glyph unicode="}" horiz-adv-x="510" d="M12 60q0 15 14 32q13 16 34 16q15 0 32 -14q16 -16 16 -34q0 -20 -14 -34t-34 -14q-15 0 -32 14q-16 13 -16 34zM12 828q0 15 14 32q13 16 34 16q15 0 32 -14q16 -16 16 -34q0 -20 -14 -34t-34 -14q-15 0 -32 14q-16 13 -16 34zM140 188q0 15 14 32q13 16 34 16 q15 0 32 -14q16 -16 16 -34q0 -20 -14 -34t-34 -14q-15 0 -32 14q-16 13 -16 34zM140 316q0 15 14 32q13 16 34 16q15 0 32 -14q16 -16 16 -34q0 -20 -14 -34t-34 -14q-15 0 -32 14q-16 13 -16 34zM140 444q0 15 14 32q13 16 34 16q15 0 32 -14q16 -16 16 -34q0 -20 -14 -34 t-34 -14q-15 0 -32 14q-16 13 -16 34zM140 572q0 15 14 32q13 16 34 16q15 0 32 -14q16 -16 16 -34q0 -20 -14 -34t-34 -14q-15 0 -32 14q-16 13 -16 34zM140 700q0 15 14 32q13 16 34 16q15 0 32 -14q16 -16 16 -34q0 -20 -14 -34t-34 -14q-15 0 -32 14q-16 13 -16 34z M268 444q0 15 14 32q13 16 34 16q15 0 32 -14q16 -16 16 -34q0 -20 -14 -34t-34 -14q-15 0 -32 14q-16 13 -16 34z" />
<glyph unicode="~" horiz-adv-x="638" d="M12 444q0 15 14 32q13 16 34 16q15 0 32 -14q16 -16 16 -34q0 -20 -14 -34t-34 -14q-15 0 -32 14q-16 13 -16 34zM140 572q0 15 14 32q13 16 34 16q15 0 32 -14q16 -16 16 -34q0 -20 -14 -34t-34 -14q-15 0 -32 14q-16 13 -16 34zM268 444q0 15 14 32q13 16 34 16 q15 0 32 -14q16 -16 16 -34q0 -20 -14 -34t-34 -14q-15 0 -32 14q-16 13 -16 34zM396 572q0 15 14 32q13 16 34 16q15 0 32 -14q16 -16 16 -34q0 -20 -14 -34t-34 -14q-15 0 -32 14q-16 13 -16 34z" />
<glyph unicode="&#xa1;" horiz-adv-x="512" d="M268 60q0 15 14 32q13 16 34 16q15 0 32 -14q16 -16 16 -34q0 -20 -14 -34t-34 -14q-15 0 -32 14q-16 13 -16 34zM268 188q0 15 14 32q13 16 34 16q15 0 32 -14q16 -16 16 -34q0 -20 -14 -34t-34 -14q-15 0 -32 14q-16 13 -16 34zM268 316q0 15 14 32q13 16 34 16 q15 0 32 -14q16 -16 16 -34q0 -20 -14 -34t-34 -14q-15 0 -32 14q-16 13 -16 34zM268 444q0 15 14 32q13 16 34 16q15 0 32 -14q16 -16 16 -34q0 -20 -14 -34t-34 -14q-15 0 -32 14q-16 13 -16 34zM268 572q0 15 14 32q13 16 34 16q15 0 32 -14q16 -16 16 -34q0 -20 -14 -34 t-34 -14q-15 0 -32 14q-16 13 -16 34zM268 828q0 15 14 32q13 16 34 16q15 0 32 -14q16 -16 16 -34q0 -20 -14 -34t-34 -14q-15 0 -32 14q-16 13 -16 34z" />
<glyph unicode="&#xa2;" d="M12 188q0 15 14 32q13 16 34 16q15 0 32 -14q16 -16 16 -34q0 -20 -14 -34t-34 -14q-15 0 -32 14q-16 13 -16 34zM12 316q0 15 14 32q13 16 34 16q15 0 32 -14q16 -16 16 -34q0 -20 -14 -34t-34 -14q-15 0 -32 14q-16 13 -16 34zM12 444q0 15 14 32q13 16 34 16 q15 0 32 -14q16 -16 16 -34q0 -20 -14 -34t-34 -14q-15 0 -32 14q-16 13 -16 34zM140 60q0 15 14 32q13 16 34 16q15 0 32 -14q16 -16 16 -34q0 -20 -14 -34t-34 -14q-15 0 -32 14q-16 13 -16 34zM140 572q0 15 14 32q13 16 34 16q15 0 32 -14q16 -16 16 -34q0 -20 -14 -34 t-34 -14q-15 0 -32 14q-16 13 -16 34zM268 60q0 15 14 32q13 16 34 16q15 0 32 -14q16 -16 16 -34q0 -20 -14 -34t-34 -14q-15 0 -32 14q-16 13 -16 34zM268 572q0 15 14 32q13 16 34 16q15 0 32 -14q16 -16 16 -34q0 -20 -14 -34t-34 -14q-15 0 -32 14q-16 13 -16 34z M280 -66q0 13 10 24q12 12 26 12q13 0 24 -10q12 -12 12 -26q0 -16 -10 -26q-11 -10 -26 -10q-13 0 -24 10q-12 12 -12 26zM280 188q0 13 10 24q12 12 26 12q13 0 24 -10q12 -12 12 -26q0 -16 -10 -26q-11 -10 -26 -10q-13 0 -24 10q-12 12 -12 26zM280 316q0 13 10 24 q12 12 26 12q13 0 24 -10q12 -12 12 -26q0 -16 -10 -26q-11 -10 -26 -10q-13 0 -24 10q-12 12 -12 26zM280 444q0 13 10 24q12 12 26 12q13 0 24 -10q12 -12 12 -26q0 -16 -10 -26q-11 -10 -26 -10q-13 0 -24 10q-12 12 -12 26zM280 700q0 13 10 24q12 12 26 12q13 0 24 -10 q12 -12 12 -26q0 -16 -10 -26q-11 -10 -26 -10q-13 0 -24 10q-12 12 -12 26zM396 60q0 15 14 32q13 16 34 16q15 0 32 -14q16 -16 16 -34q0 -20 -14 -34t-34 -14q-15 0 -32 14q-16 13 -16 34zM396 572q0 15 14 32q13 16 34 16q15 0 32 -14q16 -16 16 -34q0 -20 -14 -34 t-34 -14q-15 0 -32 14q-16 13 -16 34zM524 188q0 15 14 32q13 16 34 16q15 0 32 -14q16 -16 16 -34q0 -20 -14 -34t-34 -14q-15 0 -32 14q-16 13 -16 34zM524 444q0 15 14 32q13 16 34 16q15 0 32 -14q16 -16 16 -34q0 -20 -14 -34t-34 -14q-15 0 -32 14q-16 13 -16 34z" />
<glyph unicode="&#xa3;" d="M12 60q0 15 14 32q13 16 34 16q15 0 32 -14q16 -16 16 -34q0 -20 -14 -34t-34 -14q-15 0 -32 14q-16 13 -16 34zM12 444q0 15 14 32q13 16 34 16q15 0 32 -14q16 -16 16 -34q0 -20 -14 -34t-34 -14q-15 0 -32 14q-16 13 -16 34zM140 60q0 15 14 32q13 16 34 16 q15 0 32 -14q16 -16 16 -34q0 -20 -14 -34t-34 -14q-15 0 -32 14q-16 13 -16 34zM140 188q0 15 14 32q13 16 34 16q15 0 32 -14q16 -16 16 -34q0 -20 -14 -34t-34 -14q-15 0 -32 14q-16 13 -16 34zM140 316q0 15 14 32q13 16 34 16q15 0 32 -14q16 -16 16 -34q0 -20 -14 -34 t-34 -14q-15 0 -32 14q-16 13 -16 34zM140 444q0 15 14 32q13 16 34 16q15 0 32 -14q16 -16 16 -34q0 -20 -14 -34t-34 -14q-15 0 -32 14q-16 13 -16 34zM140 572q0 15 14 32q13 16 34 16q15 0 32 -14q16 -16 16 -34q0 -20 -14 -34t-34 -14q-15 0 -32 14q-16 13 -16 34z M140 700q0 15 14 32q13 16 34 16q15 0 32 -14q16 -16 16 -34q0 -20 -14 -34t-34 -14q-15 0 -32 14q-16 13 -16 34zM268 60q0 15 14 32q13 16 34 16q15 0 32 -14q16 -16 16 -34q0 -20 -14 -34t-34 -14q-15 0 -32 14q-16 13 -16 34zM268 444q0 15 14 32q13 16 34 16 q15 0 32 -14q16 -16 16 -34q0 -20 -14 -34t-34 -14q-15 0 -32 14q-16 13 -16 34zM268 828q0 15 14 32q13 16 34 16q15 0 32 -14q16 -16 16 -34q0 -20 -14 -34t-34 -14q-15 0 -32 14q-16 13 -16 34zM396 60q0 15 14 32q13 16 34 16q15 0 32 -14q16 -16 16 -34q0 -20 -14 -34 t-34 -14q-15 0 -32 14q-16 13 -16 34zM396 700q0 15 14 32q13 16 34 16q15 0 32 -14q16 -16 16 -34q0 -20 -14 -34t-34 -14q-15 0 -32 14q-16 13 -16 34zM524 188q0 15 14 32q13 16 34 16q15 0 32 -14q16 -16 16 -34q0 -20 -14 -34t-34 -14q-15 0 -32 14q-16 13 -16 34z" />
<glyph unicode="&#xa5;" d="M12 188q0 15 14 32q13 16 34 16q15 0 32 -14q16 -16 16 -34q0 -20 -14 -34t-34 -14q-15 0 -32 14q-16 13 -16 34zM12 444q0 15 14 32q13 16 34 16q15 0 32 -14q16 -16 16 -34q0 -20 -14 -34t-34 -14q-15 0 -32 14q-16 13 -16 34zM12 828q0 15 14 32q13 16 34 16 q15 0 32 -14q16 -16 16 -34q0 -20 -14 -34t-34 -14q-15 0 -32 14q-16 13 -16 34zM140 188q0 15 14 32q13 16 34 16q15 0 32 -14q16 -16 16 -34q0 -20 -14 -34t-34 -14q-15 0 -32 14q-16 13 -16 34zM140 444q0 15 14 32q13 16 34 16q15 0 32 -14q16 -16 16 -34q0 -20 -14 -34 t-34 -14q-15 0 -32 14q-16 13 -16 34zM140 700q0 15 14 32q13 16 34 16q15 0 32 -14q16 -16 16 -34q0 -20 -14 -34t-34 -14q-15 0 -32 14q-16 13 -16 34zM268 60q0 15 14 32q13 16 34 16q15 0 32 -14q16 -16 16 -34q0 -20 -14 -34t-34 -14q-15 0 -32 14q-16 13 -16 34z M268 188q0 15 14 32q13 16 34 16q15 0 32 -14q16 -16 16 -34q0 -20 -14 -34t-34 -14q-15 0 -32 14q-16 13 -16 34zM268 316q0 15 14 32q13 16 34 16q15 0 32 -14q16 -16 16 -34q0 -20 -14 -34t-34 -14q-15 0 -32 14q-16 13 -16 34zM268 444q0 15 14 32q13 16 34 16 q15 0 32 -14q16 -16 16 -34q0 -20 -14 -34t-34 -14q-15 0 -32 14q-16 13 -16 34zM268 572q0 15 14 32q13 16 34 16q15 0 32 -14q16 -16 16 -34q0 -20 -14 -34t-34 -14q-15 0 -32 14q-16 13 -16 34zM396 188q0 15 14 32q13 16 34 16q15 0 32 -14q16 -16 16 -34q0 -20 -14 -34 t-34 -14q-15 0 -32 14q-16 13 -16 34zM396 444q0 15 14 32q13 16 34 16q15 0 32 -14q16 -16 16 -34q0 -20 -14 -34t-34 -14q-15 0 -32 14q-16 13 -16 34zM396 700q0 15 14 32q13 16 34 16q15 0 32 -14q16 -16 16 -34q0 -20 -14 -34t-34 -14q-15 0 -32 14q-16 13 -16 34z M524 188q0 15 14 32q13 16 34 16q15 0 32 -14q16 -16 16 -34q0 -20 -14 -34t-34 -14q-15 0 -32 14q-16 13 -16 34zM524 444q0 15 14 32q13 16 34 16q15 0 32 -14q16 -16 16 -34q0 -20 -14 -34t-34 -14q-15 0 -32 14q-16 13 -16 34zM524 828q0 15 14 32q13 16 34 16 q15 0 32 -14q16 -16 16 -34q0 -20 -14 -34t-34 -14q-15 0 -32 14q-16 13 -16 34z" />
<glyph unicode="&#xa9;" horiz-adv-x="1022" d="M12 188q0 15 14 32q13 16 34 16q15 0 32 -14q16 -16 16 -34q0 -20 -14 -34t-34 -14q-15 0 -32 14q-16 13 -16 34zM12 316q0 15 14 32q13 16 34 16q15 0 32 -14q16 -16 16 -34q0 -20 -14 -34t-34 -14q-15 0 -32 14q-16 13 -16 34zM12 444q0 15 14 32q13 16 34 16 q15 0 32 -14q16 -16 16 -34q0 -20 -14 -34t-34 -14q-15 0 -32 14q-16 13 -16 34zM12 572q0 15 14 32q13 16 34 16q15 0 32 -14q16 -16 16 -34q0 -20 -14 -34t-34 -14q-15 0 -32 14q-16 13 -16 34zM12 700q0 15 14 32q13 16 34 16q15 0 32 -14q16 -16 16 -34q0 -20 -14 -34 t-34 -14q-15 0 -32 14q-16 13 -16 34zM12 828q0 15 14 32q13 16 34 16q15 0 32 -14q16 -16 16 -34q0 -20 -14 -34t-34 -14q-15 0 -32 14q-16 13 -16 34zM140 60q0 15 14 32q13 16 34 16q15 0 32 -14q16 -16 16 -34q0 -20 -14 -34t-34 -14q-15 0 -32 14q-16 13 -16 34z M140 956q0 15 14 32q13 16 34 16q15 0 32 -14q16 -16 16 -34q0 -20 -14 -34t-34 -14q-15 0 -32 14q-16 13 -16 34zM268 60q0 15 14 32q13 16 34 16q15 0 32 -14q16 -16 16 -34q0 -20 -14 -34t-34 -14q-15 0 -32 14q-16 13 -16 34zM268 316q0 15 14 32q13 16 34 16 q15 0 32 -14q16 -16 16 -34q0 -20 -14 -34t-34 -14q-15 0 -32 14q-16 13 -16 34zM268 444q0 15 14 32q13 16 34 16q15 0 32 -14q16 -16 16 -34q0 -20 -14 -34t-34 -14q-15 0 -32 14q-16 13 -16 34zM268 572q0 15 14 32q13 16 34 16q15 0 32 -14q16 -16 16 -34q0 -20 -14 -34 t-34 -14q-15 0 -32 14q-16 13 -16 34zM268 700q0 15 14 32q13 16 34 16q15 0 32 -14q16 -16 16 -34q0 -20 -14 -34t-34 -14q-15 0 -32 14q-16 13 -16 34zM268 956q0 15 14 32q13 16 34 16q15 0 32 -14q16 -16 16 -34q0 -20 -14 -34t-34 -14q-15 0 -32 14q-16 13 -16 34z M396 60q0 15 14 32q13 16 34 16q15 0 32 -14q16 -16 16 -34q0 -20 -14 -34t-34 -14q-15 0 -32 14q-16 13 -16 34zM396 316q0 15 14 32q13 16 34 16q15 0 32 -14q16 -16 16 -34q0 -20 -14 -34t-34 -14q-15 0 -32 14q-16 13 -16 34zM396 700q0 15 14 32q13 16 34 16 q15 0 32 -14q16 -16 16 -34q0 -20 -14 -34t-34 -14q-15 0 -32 14q-16 13 -16 34zM396 956q0 15 14 32q13 16 34 16q15 0 32 -14q16 -16 16 -34q0 -20 -14 -34t-34 -14q-15 0 -32 14q-16 13 -16 34zM524 60q0 15 14 32q13 16 34 16q15 0 32 -14q16 -16 16 -34q0 -20 -14 -34 t-34 -14q-15 0 -32 14q-16 13 -16 34zM524 316q0 15 14 32q13 16 34 16q15 0 32 -14q16 -16 16 -34q0 -20 -14 -34t-34 -14q-15 0 -32 14q-16 13 -16 34zM524 700q0 15 14 32q13 16 34 16q15 0 32 -14q16 -16 16 -34q0 -20 -14 -34t-34 -14q-15 0 -32 14q-16 13 -16 34z M524 956q0 15 14 32q13 16 34 16q15 0 32 -14q16 -16 16 -34q0 -20 -14 -34t-34 -14q-15 0 -32 14q-16 13 -16 34zM652 60q0 15 14 32q13 16 34 16q15 0 32 -14q16 -16 16 -34q0 -20 -14 -34t-34 -14q-15 0 -32 14q-16 13 -16 34zM652 956q0 15 14 32q13 16 34 16 q15 0 32 -14q16 -16 16 -34q0 -20 -14 -34t-34 -14q-15 0 -32 14q-16 13 -16 34zM780 188q0 15 14 32q13 16 34 16q15 0 32 -14q16 -16 16 -34q0 -20 -14 -34t-34 -14q-15 0 -32 14q-16 13 -16 34zM780 316q0 15 14 32q13 16 34 16q15 0 32 -14q16 -16 16 -34q0 -20 -14 -34 t-34 -14q-15 0 -32 14q-16 13 -16 34zM780 444q0 15 14 32q13 16 34 16q15 0 32 -14q16 -16 16 -34q0 -20 -14 -34t-34 -14q-15 0 -32 14q-16 13 -16 34zM780 572q0 15 14 32q13 16 34 16q15 0 32 -14q16 -16 16 -34q0 -20 -14 -34t-34 -14q-15 0 -32 14q-16 13 -16 34z M780 700q0 15 14 32q13 16 34 16q15 0 32 -14q16 -16 16 -34q0 -20 -14 -34t-34 -14q-15 0 -32 14q-16 13 -16 34zM780 828q0 15 14 32q13 16 34 16q15 0 32 -14q16 -16 16 -34q0 -20 -14 -34t-34 -14q-15 0 -32 14q-16 13 -16 34z" />
<glyph unicode="&#xab;" d="M12 316q0 15 14 32q13 16 34 16q15 0 32 -14q16 -16 16 -34q0 -20 -14 -34t-34 -14q-15 0 -32 14q-16 13 -16 34zM140 188q0 15 14 32q13 16 34 16q15 0 32 -14q16 -16 16 -34q0 -20 -14 -34t-34 -14q-15 0 -32 14q-16 13 -16 34zM140 444q0 15 14 32q13 16 34 16 q15 0 32 -14q16 -16 16 -34q0 -20 -14 -34t-34 -14q-15 0 -32 14q-16 13 -16 34zM268 60q0 15 14 32q13 16 34 16q15 0 32 -14q16 -16 16 -34q0 -20 -14 -34t-34 -14q-15 0 -32 14q-16 13 -16 34zM268 316q0 15 14 32q13 16 34 16q15 0 32 -14q16 -16 16 -34q0 -20 -14 -34 t-34 -14q-15 0 -32 14q-16 13 -16 34zM268 572q0 15 14 32q13 16 34 16q15 0 32 -14q16 -16 16 -34q0 -20 -14 -34t-34 -14q-15 0 -32 14q-16 13 -16 34zM396 188q0 15 14 32q13 16 34 16q15 0 32 -14q16 -16 16 -34q0 -20 -14 -34t-34 -14q-15 0 -32 14q-16 13 -16 34z M396 444q0 15 14 32q13 16 34 16q15 0 32 -14q16 -16 16 -34q0 -20 -14 -34t-34 -14q-15 0 -32 14q-16 13 -16 34zM524 60q0 15 14 32q13 16 34 16q15 0 32 -14q16 -16 16 -34q0 -20 -14 -34t-34 -14q-15 0 -32 14q-16 13 -16 34zM524 572q0 15 14 32q13 16 34 16 q15 0 32 -14q16 -16 16 -34q0 -20 -14 -34t-34 -14q-15 0 -32 14q-16 13 -16 34z" />
<glyph unicode="&#xbb;" d="M12 60q0 15 14 32q13 16 34 16q15 0 32 -14q16 -16 16 -34q0 -20 -14 -34t-34 -14q-15 0 -32 14q-16 13 -16 34zM12 572q0 15 14 32q13 16 34 16q15 0 32 -14q16 -16 16 -34q0 -20 -14 -34t-34 -14q-15 0 -32 14q-16 13 -16 34zM140 188q0 15 14 32q13 16 34 16 q15 0 32 -14q16 -16 16 -34q0 -20 -14 -34t-34 -14q-15 0 -32 14q-16 13 -16 34zM140 444q0 15 14 32q13 16 34 16q15 0 32 -14q16 -16 16 -34q0 -20 -14 -34t-34 -14q-15 0 -32 14q-16 13 -16 34zM268 60q0 15 14 32q13 16 34 16q15 0 32 -14q16 -16 16 -34q0 -20 -14 -34 t-34 -14q-15 0 -32 14q-16 13 -16 34zM268 316q0 15 14 32q13 16 34 16q15 0 32 -14q16 -16 16 -34q0 -20 -14 -34t-34 -14q-15 0 -32 14q-16 13 -16 34zM268 572q0 15 14 32q13 16 34 16q15 0 32 -14q16 -16 16 -34q0 -20 -14 -34t-34 -14q-15 0 -32 14q-16 13 -16 34z M396 188q0 15 14 32q13 16 34 16q15 0 32 -14q16 -16 16 -34q0 -20 -14 -34t-34 -14q-15 0 -32 14q-16 13 -16 34zM396 444q0 15 14 32q13 16 34 16q15 0 32 -14q16 -16 16 -34q0 -20 -14 -34t-34 -14q-15 0 -32 14q-16 13 -16 34zM524 316q0 15 14 32q13 16 34 16 q15 0 32 -14q16 -16 16 -34q0 -20 -14 -34t-34 -14q-15 0 -32 14q-16 13 -16 34z" />
<glyph unicode="&#xbf;" d="M12 188q0 15 14 32q13 16 34 16q15 0 32 -14q16 -16 16 -34q0 -20 -14 -34t-34 -14q-15 0 -32 14q-16 13 -16 34zM12 316q0 15 14 32q13 16 34 16q15 0 32 -14q16 -16 16 -34q0 -20 -14 -34t-34 -14q-15 0 -32 14q-16 13 -16 34zM140 60q0 15 14 32q13 16 34 16 q15 0 32 -14q16 -16 16 -34q0 -20 -14 -34t-34 -14q-15 0 -32 14q-16 13 -16 34zM140 444q0 15 14 32q13 16 34 16q15 0 32 -14q16 -16 16 -34q0 -20 -14 -34t-34 -14q-15 0 -32 14q-16 13 -16 34zM268 60q0 15 14 32q13 16 34 16q15 0 32 -14q16 -16 16 -34q0 -20 -14 -34 t-34 -14q-15 0 -32 14q-16 13 -16 34zM268 572q0 15 14 32q13 16 34 16q15 0 32 -14q16 -16 16 -34q0 -20 -14 -34t-34 -14q-15 0 -32 14q-16 13 -16 34zM268 828q0 15 14 32q13 16 34 16q15 0 32 -14q16 -16 16 -34q0 -20 -14 -34t-34 -14q-15 0 -32 14q-16 13 -16 34z M396 60q0 15 14 32q13 16 34 16q15 0 32 -14q16 -16 16 -34q0 -20 -14 -34t-34 -14q-15 0 -32 14q-16 13 -16 34zM524 188q0 15 14 32q13 16 34 16q15 0 32 -14q16 -16 16 -34q0 -20 -14 -34t-34 -14q-15 0 -32 14q-16 13 -16 34z" />
<glyph unicode="&#xc0;" d="M12 60q0 15 14 32q13 16 34 16q15 0 32 -14q16 -16 16 -34q0 -20 -14 -34t-34 -14q-15 0 -32 14q-16 13 -16 34zM12 188q0 15 14 32q13 16 34 16q15 0 32 -14q16 -16 16 -34q0 -20 -14 -34t-34 -14q-15 0 -32 14q-16 13 -16 34zM12 316q0 15 14 32q13 16 34 16 q15 0 32 -14q16 -16 16 -34q0 -20 -14 -34t-34 -14q-15 0 -32 14q-16 13 -16 34zM12 444q0 15 14 32q13 16 34 16q15 0 32 -14q16 -16 16 -34q0 -20 -14 -34t-34 -14q-15 0 -32 14q-16 13 -16 34zM12 572q0 15 14 32q13 16 34 16q15 0 32 -14q16 -16 16 -34q0 -20 -14 -34 t-34 -14q-15 0 -32 14q-16 13 -16 34zM140 316q0 15 14 32q13 16 34 16q15 0 32 -14q16 -16 16 -34q0 -20 -14 -34t-34 -14q-15 0 -32 14q-16 13 -16 34zM140 700q0 15 14 32q13 16 34 16q15 0 32 -14q16 -16 16 -34q0 -20 -14 -34t-34 -14q-15 0 -32 14q-16 13 -16 34z M152 1212q0 13 10 24q12 12 26 12q13 0 24 -10q12 -12 12 -26q0 -16 -10 -26q-11 -10 -26 -10q-13 0 -24 10q-12 12 -12 26zM268 316q0 15 14 32q13 16 34 16q15 0 32 -14q16 -16 16 -34q0 -20 -14 -34t-34 -14q-15 0 -32 14q-16 13 -16 34zM268 828q0 15 14 32q13 16 34 16 q15 0 32 -14q16 -16 16 -34q0 -20 -14 -34t-34 -14q-15 0 -32 14q-16 13 -16 34zM280 1084q0 13 10 24q12 12 26 12q13 0 24 -10q12 -12 12 -26q0 -16 -10 -26q-11 -10 -26 -10q-13 0 -24 10q-12 12 -12 26zM396 316q0 15 14 32q13 16 34 16q15 0 32 -14q16 -16 16 -34 q0 -20 -14 -34t-34 -14q-15 0 -32 14q-16 13 -16 34zM396 700q0 15 14 32q13 16 34 16q15 0 32 -14q16 -16 16 -34q0 -20 -14 -34t-34 -14q-15 0 -32 14q-16 13 -16 34zM524 60q0 15 14 32q13 16 34 16q15 0 32 -14q16 -16 16 -34q0 -20 -14 -34t-34 -14q-15 0 -32 14 q-16 13 -16 34zM524 188q0 15 14 32q13 16 34 16q15 0 32 -14q16 -16 16 -34q0 -20 -14 -34t-34 -14q-15 0 -32 14q-16 13 -16 34zM524 316q0 15 14 32q13 16 34 16q15 0 32 -14q16 -16 16 -34q0 -20 -14 -34t-34 -14q-15 0 -32 14q-16 13 -16 34zM524 444q0 15 14 32 q13 16 34 16q15 0 32 -14q16 -16 16 -34q0 -20 -14 -34t-34 -14q-15 0 -32 14q-16 13 -16 34zM524 572q0 15 14 32q13 16 34 16q15 0 32 -14q16 -16 16 -34q0 -20 -14 -34t-34 -14q-15 0 -32 14q-16 13 -16 34z" />
<glyph unicode="&#xc1;" d="M12 60q0 15 14 32q13 16 34 16q15 0 32 -14q16 -16 16 -34q0 -20 -14 -34t-34 -14q-15 0 -32 14q-16 13 -16 34zM12 188q0 15 14 32q13 16 34 16q15 0 32 -14q16 -16 16 -34q0 -20 -14 -34t-34 -14q-15 0 -32 14q-16 13 -16 34zM12 316q0 15 14 32q13 16 34 16 q15 0 32 -14q16 -16 16 -34q0 -20 -14 -34t-34 -14q-15 0 -32 14q-16 13 -16 34zM12 444q0 15 14 32q13 16 34 16q15 0 32 -14q16 -16 16 -34q0 -20 -14 -34t-34 -14q-15 0 -32 14q-16 13 -16 34zM12 572q0 15 14 32q13 16 34 16q15 0 32 -14q16 -16 16 -34q0 -20 -14 -34 t-34 -14q-15 0 -32 14q-16 13 -16 34zM140 316q0 15 14 32q13 16 34 16q15 0 32 -14q16 -16 16 -34q0 -20 -14 -34t-34 -14q-15 0 -32 14q-16 13 -16 34zM140 700q0 15 14 32q13 16 34 16q15 0 32 -14q16 -16 16 -34q0 -20 -14 -34t-34 -14q-15 0 -32 14q-16 13 -16 34z M268 316q0 15 14 32q13 16 34 16q15 0 32 -14q16 -16 16 -34q0 -20 -14 -34t-34 -14q-15 0 -32 14q-16 13 -16 34zM268 828q0 15 14 32q13 16 34 16q15 0 32 -14q16 -16 16 -34q0 -20 -14 -34t-34 -14q-15 0 -32 14q-16 13 -16 34zM280 1084q0 13 10 24q12 12 26 12 q13 0 24 -10q12 -12 12 -26q0 -16 -10 -26q-11 -10 -26 -10q-13 0 -24 10q-12 12 -12 26zM396 316q0 15 14 32q13 16 34 16q15 0 32 -14q16 -16 16 -34q0 -20 -14 -34t-34 -14q-15 0 -32 14q-16 13 -16 34zM396 700q0 15 14 32q13 16 34 16q15 0 32 -14q16 -16 16 -34 q0 -20 -14 -34t-34 -14q-15 0 -32 14q-16 13 -16 34zM408 1212q0 13 10 24q12 12 26 12q13 0 24 -10q12 -12 12 -26q0 -16 -10 -26q-11 -10 -26 -10q-13 0 -24 10q-12 12 -12 26zM524 60q0 15 14 32q13 16 34 16q15 0 32 -14q16 -16 16 -34q0 -20 -14 -34t-34 -14 q-15 0 -32 14q-16 13 -16 34zM524 188q0 15 14 32q13 16 34 16q15 0 32 -14q16 -16 16 -34q0 -20 -14 -34t-34 -14q-15 0 -32 14q-16 13 -16 34zM524 316q0 15 14 32q13 16 34 16q15 0 32 -14q16 -16 16 -34q0 -20 -14 -34t-34 -14q-15 0 -32 14q-16 13 -16 34zM524 444 q0 15 14 32q13 16 34 16q15 0 32 -14q16 -16 16 -34q0 -20 -14 -34t-34 -14q-15 0 -32 14q-16 13 -16 34zM524 572q0 15 14 32q13 16 34 16q15 0 32 -14q16 -16 16 -34q0 -20 -14 -34t-34 -14q-15 0 -32 14q-16 13 -16 34z" />
<glyph unicode="&#xc2;" d="M12 60q0 15 14 32q13 16 34 16q15 0 32 -14q16 -16 16 -34q0 -20 -14 -34t-34 -14q-15 0 -32 14q-16 13 -16 34zM12 188q0 15 14 32q13 16 34 16q15 0 32 -14q16 -16 16 -34q0 -20 -14 -34t-34 -14q-15 0 -32 14q-16 13 -16 34zM12 316q0 15 14 32q13 16 34 16 q15 0 32 -14q16 -16 16 -34q0 -20 -14 -34t-34 -14q-15 0 -32 14q-16 13 -16 34zM12 444q0 15 14 32q13 16 34 16q15 0 32 -14q16 -16 16 -34q0 -20 -14 -34t-34 -14q-15 0 -32 14q-16 13 -16 34zM12 572q0 15 14 32q13 16 34 16q15 0 32 -14q16 -16 16 -34q0 -20 -14 -34 t-34 -14q-15 0 -32 14q-16 13 -16 34zM140 316q0 15 14 32q13 16 34 16q15 0 32 -14q16 -16 16 -34q0 -20 -14 -34t-34 -14q-15 0 -32 14q-16 13 -16 34zM140 700q0 15 14 32q13 16 34 16q15 0 32 -14q16 -16 16 -34q0 -20 -14 -34t-34 -14q-15 0 -32 14q-16 13 -16 34z M152 1084q0 13 10 24q12 12 26 12q13 0 24 -10q12 -12 12 -26q0 -16 -10 -26q-11 -10 -26 -10q-13 0 -24 10q-12 12 -12 26zM268 316q0 15 14 32q13 16 34 16q15 0 32 -14q16 -16 16 -34q0 -20 -14 -34t-34 -14q-15 0 -32 14q-16 13 -16 34zM268 828q0 15 14 32q13 16 34 16 q15 0 32 -14q16 -16 16 -34q0 -20 -14 -34t-34 -14q-15 0 -32 14q-16 13 -16 34zM280 1212q0 13 10 24q12 12 26 12q13 0 24 -10q12 -12 12 -26q0 -16 -10 -26q-11 -10 -26 -10q-13 0 -24 10q-12 12 -12 26zM396 316q0 15 14 32q13 16 34 16q15 0 32 -14q16 -16 16 -34 q0 -20 -14 -34t-34 -14q-15 0 -32 14q-16 13 -16 34zM396 700q0 15 14 32q13 16 34 16q15 0 32 -14q16 -16 16 -34q0 -20 -14 -34t-34 -14q-15 0 -32 14q-16 13 -16 34zM408 1084q0 13 10 24q12 12 26 12q13 0 24 -10q12 -12 12 -26q0 -16 -10 -26q-11 -10 -26 -10 q-13 0 -24 10q-12 12 -12 26zM524 60q0 15 14 32q13 16 34 16q15 0 32 -14q16 -16 16 -34q0 -20 -14 -34t-34 -14q-15 0 -32 14q-16 13 -16 34zM524 188q0 15 14 32q13 16 34 16q15 0 32 -14q16 -16 16 -34q0 -20 -14 -34t-34 -14q-15 0 -32 14q-16 13 -16 34zM524 316 q0 15 14 32q13 16 34 16q15 0 32 -14q16 -16 16 -34q0 -20 -14 -34t-34 -14q-15 0 -32 14q-16 13 -16 34zM524 444q0 15 14 32q13 16 34 16q15 0 32 -14q16 -16 16 -34q0 -20 -14 -34t-34 -14q-15 0 -32 14q-16 13 -16 34zM524 572q0 15 14 32q13 16 34 16q15 0 32 -14 q16 -16 16 -34q0 -20 -14 -34t-34 -14q-15 0 -32 14q-16 13 -16 34z" />
<glyph unicode="&#xc4;" d="M12 60q0 15 14 32q13 16 34 16q15 0 32 -14q16 -16 16 -34q0 -20 -14 -34t-34 -14q-15 0 -32 14q-16 13 -16 34zM12 188q0 15 14 32q13 16 34 16q15 0 32 -14q16 -16 16 -34q0 -20 -14 -34t-34 -14q-15 0 -32 14q-16 13 -16 34zM12 316q0 15 14 32q13 16 34 16 q15 0 32 -14q16 -16 16 -34q0 -20 -14 -34t-34 -14q-15 0 -32 14q-16 13 -16 34zM12 444q0 15 14 32q13 16 34 16q15 0 32 -14q16 -16 16 -34q0 -20 -14 -34t-34 -14q-15 0 -32 14q-16 13 -16 34zM12 572q0 15 14 32q13 16 34 16q15 0 32 -14q16 -16 16 -34q0 -20 -14 -34 t-34 -14q-15 0 -32 14q-16 13 -16 34zM140 316q0 15 14 32q13 16 34 16q15 0 32 -14q16 -16 16 -34q0 -20 -14 -34t-34 -14q-15 0 -32 14q-16 13 -16 34zM140 700q0 15 14 32q13 16 34 16q15 0 32 -14q16 -16 16 -34q0 -20 -14 -34t-34 -14q-15 0 -32 14q-16 13 -16 34z M152 1084q0 13 10 24q12 12 26 12q13 0 24 -10q12 -12 12 -26q0 -16 -10 -26q-11 -10 -26 -10q-13 0 -24 10q-12 12 -12 26zM268 316q0 15 14 32q13 16 34 16q15 0 32 -14q16 -16 16 -34q0 -20 -14 -34t-34 -14q-15 0 -32 14q-16 13 -16 34zM268 828q0 15 14 32q13 16 34 16 q15 0 32 -14q16 -16 16 -34q0 -20 -14 -34t-34 -14q-15 0 -32 14q-16 13 -16 34zM396 316q0 15 14 32q13 16 34 16q15 0 32 -14q16 -16 16 -34q0 -20 -14 -34t-34 -14q-15 0 -32 14q-16 13 -16 34zM396 700q0 15 14 32q13 16 34 16q15 0 32 -14q16 -16 16 -34q0 -20 -14 -34 t-34 -14q-15 0 -32 14q-16 13 -16 34zM408 1084q0 13 10 24q12 12 26 12q13 0 24 -10q12 -12 12 -26q0 -16 -10 -26q-11 -10 -26 -10q-13 0 -24 10q-12 12 -12 26zM524 60q0 15 14 32q13 16 34 16q15 0 32 -14q16 -16 16 -34q0 -20 -14 -34t-34 -14q-15 0 -32 14 q-16 13 -16 34zM524 188q0 15 14 32q13 16 34 16q15 0 32 -14q16 -16 16 -34q0 -20 -14 -34t-34 -14q-15 0 -32 14q-16 13 -16 34zM524 316q0 15 14 32q13 16 34 16q15 0 32 -14q16 -16 16 -34q0 -20 -14 -34t-34 -14q-15 0 -32 14q-16 13 -16 34zM524 444q0 15 14 32 q13 16 34 16q15 0 32 -14q16 -16 16 -34q0 -20 -14 -34t-34 -14q-15 0 -32 14q-16 13 -16 34zM524 572q0 15 14 32q13 16 34 16q15 0 32 -14q16 -16 16 -34q0 -20 -14 -34t-34 -14q-15 0 -32 14q-16 13 -16 34z" />
<glyph unicode="&#xc8;" d="M12 60q0 15 14 32q13 16 34 16q15 0 32 -14q16 -16 16 -34q0 -20 -14 -34t-34 -14q-15 0 -32 14q-16 13 -16 34zM12 188q0 15 14 32q13 16 34 16q15 0 32 -14q16 -16 16 -34q0 -20 -14 -34t-34 -14q-15 0 -32 14q-16 13 -16 34zM12 316q0 15 14 32q13 16 34 16 q15 0 32 -14q16 -16 16 -34q0 -20 -14 -34t-34 -14q-15 0 -32 14q-16 13 -16 34zM12 444q0 15 14 32q13 16 34 16q15 0 32 -14q16 -16 16 -34q0 -20 -14 -34t-34 -14q-15 0 -32 14q-16 13 -16 34zM12 572q0 15 14 32q13 16 34 16q15 0 32 -14q16 -16 16 -34q0 -20 -14 -34 t-34 -14q-15 0 -32 14q-16 13 -16 34zM12 700q0 15 14 32q13 16 34 16q15 0 32 -14q16 -16 16 -34q0 -20 -14 -34t-34 -14q-15 0 -32 14q-16 13 -16 34zM12 828q0 15 14 32q13 16 34 16q15 0 32 -14q16 -16 16 -34q0 -20 -14 -34t-34 -14q-15 0 -32 14q-16 13 -16 34z M140 60q0 15 14 32q13 16 34 16q15 0 32 -14q16 -16 16 -34q0 -20 -14 -34t-34 -14q-15 0 -32 14q-16 13 -16 34zM140 444q0 15 14 32q13 16 34 16q15 0 32 -14q16 -16 16 -34q0 -20 -14 -34t-34 -14q-15 0 -32 14q-16 13 -16 34zM140 828q0 15 14 32q13 16 34 16 q15 0 32 -14q16 -16 16 -34q0 -20 -14 -34t-34 -14q-15 0 -32 14q-16 13 -16 34zM152 1212q0 13 10 24q12 12 26 12q13 0 24 -10q12 -12 12 -26q0 -16 -10 -26q-11 -10 -26 -10q-13 0 -24 10q-12 12 -12 26zM268 60q0 15 14 32q13 16 34 16q15 0 32 -14q16 -16 16 -34 q0 -20 -14 -34t-34 -14q-15 0 -32 14q-16 13 -16 34zM268 444q0 15 14 32q13 16 34 16q15 0 32 -14q16 -16 16 -34q0 -20 -14 -34t-34 -14q-15 0 -32 14q-16 13 -16 34zM268 828q0 15 14 32q13 16 34 16q15 0 32 -14q16 -16 16 -34q0 -20 -14 -34t-34 -14q-15 0 -32 14 q-16 13 -16 34zM280 1084q0 13 10 24q12 12 26 12q13 0 24 -10q12 -12 12 -26q0 -16 -10 -26q-11 -10 -26 -10q-13 0 -24 10q-12 12 -12 26zM396 60q0 15 14 32q13 16 34 16q15 0 32 -14q16 -16 16 -34q0 -20 -14 -34t-34 -14q-15 0 -32 14q-16 13 -16 34zM396 444 q0 15 14 32q13 16 34 16q15 0 32 -14q16 -16 16 -34q0 -20 -14 -34t-34 -14q-15 0 -32 14q-16 13 -16 34zM396 828q0 15 14 32q13 16 34 16q15 0 32 -14q16 -16 16 -34q0 -20 -14 -34t-34 -14q-15 0 -32 14q-16 13 -16 34zM524 60q0 15 14 32q13 16 34 16q15 0 32 -14 q16 -16 16 -34q0 -20 -14 -34t-34 -14q-15 0 -32 14q-16 13 -16 34zM524 828q0 15 14 32q13 16 34 16q15 0 32 -14q16 -16 16 -34q0 -20 -14 -34t-34 -14q-15 0 -32 14q-16 13 -16 34z" />
<glyph unicode="&#xc9;" d="M12 60q0 15 14 32q13 16 34 16q15 0 32 -14q16 -16 16 -34q0 -20 -14 -34t-34 -14q-15 0 -32 14q-16 13 -16 34zM12 188q0 15 14 32q13 16 34 16q15 0 32 -14q16 -16 16 -34q0 -20 -14 -34t-34 -14q-15 0 -32 14q-16 13 -16 34zM12 316q0 15 14 32q13 16 34 16 q15 0 32 -14q16 -16 16 -34q0 -20 -14 -34t-34 -14q-15 0 -32 14q-16 13 -16 34zM12 444q0 15 14 32q13 16 34 16q15 0 32 -14q16 -16 16 -34q0 -20 -14 -34t-34 -14q-15 0 -32 14q-16 13 -16 34zM12 572q0 15 14 32q13 16 34 16q15 0 32 -14q16 -16 16 -34q0 -20 -14 -34 t-34 -14q-15 0 -32 14q-16 13 -16 34zM12 700q0 15 14 32q13 16 34 16q15 0 32 -14q16 -16 16 -34q0 -20 -14 -34t-34 -14q-15 0 -32 14q-16 13 -16 34zM12 828q0 15 14 32q13 16 34 16q15 0 32 -14q16 -16 16 -34q0 -20 -14 -34t-34 -14q-15 0 -32 14q-16 13 -16 34z M140 60q0 15 14 32q13 16 34 16q15 0 32 -14q16 -16 16 -34q0 -20 -14 -34t-34 -14q-15 0 -32 14q-16 13 -16 34zM140 444q0 15 14 32q13 16 34 16q15 0 32 -14q16 -16 16 -34q0 -20 -14 -34t-34 -14q-15 0 -32 14q-16 13 -16 34zM140 828q0 15 14 32q13 16 34 16 q15 0 32 -14q16 -16 16 -34q0 -20 -14 -34t-34 -14q-15 0 -32 14q-16 13 -16 34zM268 60q0 15 14 32q13 16 34 16q15 0 32 -14q16 -16 16 -34q0 -20 -14 -34t-34 -14q-15 0 -32 14q-16 13 -16 34zM268 444q0 15 14 32q13 16 34 16q15 0 32 -14q16 -16 16 -34q0 -20 -14 -34 t-34 -14q-15 0 -32 14q-16 13 -16 34zM268 828q0 15 14 32q13 16 34 16q15 0 32 -14q16 -16 16 -34q0 -20 -14 -34t-34 -14q-15 0 -32 14q-16 13 -16 34zM280 1084q0 13 10 24q12 12 26 12q13 0 24 -10q12 -12 12 -26q0 -16 -10 -26q-11 -10 -26 -10q-13 0 -24 10 q-12 12 -12 26zM396 60q0 15 14 32q13 16 34 16q15 0 32 -14q16 -16 16 -34q0 -20 -14 -34t-34 -14q-15 0 -32 14q-16 13 -16 34zM396 444q0 15 14 32q13 16 34 16q15 0 32 -14q16 -16 16 -34q0 -20 -14 -34t-34 -14q-15 0 -32 14q-16 13 -16 34zM396 828q0 15 14 32 q13 16 34 16q15 0 32 -14q16 -16 16 -34q0 -20 -14 -34t-34 -14q-15 0 -32 14q-16 13 -16 34zM408 1212q0 13 10 24q12 12 26 12q13 0 24 -10q12 -12 12 -26q0 -16 -10 -26q-11 -10 -26 -10q-13 0 -24 10q-12 12 -12 26zM524 60q0 15 14 32q13 16 34 16q15 0 32 -14 q16 -16 16 -34q0 -20 -14 -34t-34 -14q-15 0 -32 14q-16 13 -16 34zM524 828q0 15 14 32q13 16 34 16q15 0 32 -14q16 -16 16 -34q0 -20 -14 -34t-34 -14q-15 0 -32 14q-16 13 -16 34z" />
<glyph unicode="&#xca;" d="M12 60q0 15 14 32q13 16 34 16q15 0 32 -14q16 -16 16 -34q0 -20 -14 -34t-34 -14q-15 0 -32 14q-16 13 -16 34zM12 188q0 15 14 32q13 16 34 16q15 0 32 -14q16 -16 16 -34q0 -20 -14 -34t-34 -14q-15 0 -32 14q-16 13 -16 34zM12 316q0 15 14 32q13 16 34 16 q15 0 32 -14q16 -16 16 -34q0 -20 -14 -34t-34 -14q-15 0 -32 14q-16 13 -16 34zM12 444q0 15 14 32q13 16 34 16q15 0 32 -14q16 -16 16 -34q0 -20 -14 -34t-34 -14q-15 0 -32 14q-16 13 -16 34zM12 572q0 15 14 32q13 16 34 16q15 0 32 -14q16 -16 16 -34q0 -20 -14 -34 t-34 -14q-15 0 -32 14q-16 13 -16 34zM12 700q0 15 14 32q13 16 34 16q15 0 32 -14q16 -16 16 -34q0 -20 -14 -34t-34 -14q-15 0 -32 14q-16 13 -16 34zM12 828q0 15 14 32q13 16 34 16q15 0 32 -14q16 -16 16 -34q0 -20 -14 -34t-34 -14q-15 0 -32 14q-16 13 -16 34z M140 60q0 15 14 32q13 16 34 16q15 0 32 -14q16 -16 16 -34q0 -20 -14 -34t-34 -14q-15 0 -32 14q-16 13 -16 34zM140 444q0 15 14 32q13 16 34 16q15 0 32 -14q16 -16 16 -34q0 -20 -14 -34t-34 -14q-15 0 -32 14q-16 13 -16 34zM140 828q0 15 14 32q13 16 34 16 q15 0 32 -14q16 -16 16 -34q0 -20 -14 -34t-34 -14q-15 0 -32 14q-16 13 -16 34zM152 1084q0 13 10 24q12 12 26 12q13 0 24 -10q12 -12 12 -26q0 -16 -10 -26q-11 -10 -26 -10q-13 0 -24 10q-12 12 -12 26zM268 60q0 15 14 32q13 16 34 16q15 0 32 -14q16 -16 16 -34 q0 -20 -14 -34t-34 -14q-15 0 -32 14q-16 13 -16 34zM268 444q0 15 14 32q13 16 34 16q15 0 32 -14q16 -16 16 -34q0 -20 -14 -34t-34 -14q-15 0 -32 14q-16 13 -16 34zM268 828q0 15 14 32q13 16 34 16q15 0 32 -14q16 -16 16 -34q0 -20 -14 -34t-34 -14q-15 0 -32 14 q-16 13 -16 34zM280 1212q0 13 10 24q12 12 26 12q13 0 24 -10q12 -12 12 -26q0 -16 -10 -26q-11 -10 -26 -10q-13 0 -24 10q-12 12 -12 26zM396 60q0 15 14 32q13 16 34 16q15 0 32 -14q16 -16 16 -34q0 -20 -14 -34t-34 -14q-15 0 -32 14q-16 13 -16 34zM396 444 q0 15 14 32q13 16 34 16q15 0 32 -14q16 -16 16 -34q0 -20 -14 -34t-34 -14q-15 0 -32 14q-16 13 -16 34zM396 828q0 15 14 32q13 16 34 16q15 0 32 -14q16 -16 16 -34q0 -20 -14 -34t-34 -14q-15 0 -32 14q-16 13 -16 34zM408 1084q0 13 10 24q12 12 26 12q13 0 24 -10 q12 -12 12 -26q0 -16 -10 -26q-11 -10 -26 -10q-13 0 -24 10q-12 12 -12 26zM524 60q0 15 14 32q13 16 34 16q15 0 32 -14q16 -16 16 -34q0 -20 -14 -34t-34 -14q-15 0 -32 14q-16 13 -16 34zM524 828q0 15 14 32q13 16 34 16q15 0 32 -14q16 -16 16 -34q0 -20 -14 -34 t-34 -14q-15 0 -32 14q-16 13 -16 34z" />
<glyph unicode="&#xcb;" d="M12 60q0 15 14 32q13 16 34 16q15 0 32 -14q16 -16 16 -34q0 -20 -14 -34t-34 -14q-15 0 -32 14q-16 13 -16 34zM12 188q0 15 14 32q13 16 34 16q15 0 32 -14q16 -16 16 -34q0 -20 -14 -34t-34 -14q-15 0 -32 14q-16 13 -16 34zM12 316q0 15 14 32q13 16 34 16 q15 0 32 -14q16 -16 16 -34q0 -20 -14 -34t-34 -14q-15 0 -32 14q-16 13 -16 34zM12 444q0 15 14 32q13 16 34 16q15 0 32 -14q16 -16 16 -34q0 -20 -14 -34t-34 -14q-15 0 -32 14q-16 13 -16 34zM12 572q0 15 14 32q13 16 34 16q15 0 32 -14q16 -16 16 -34q0 -20 -14 -34 t-34 -14q-15 0 -32 14q-16 13 -16 34zM12 700q0 15 14 32q13 16 34 16q15 0 32 -14q16 -16 16 -34q0 -20 -14 -34t-34 -14q-15 0 -32 14q-16 13 -16 34zM12 828q0 15 14 32q13 16 34 16q15 0 32 -14q16 -16 16 -34q0 -20 -14 -34t-34 -14q-15 0 -32 14q-16 13 -16 34z M140 60q0 15 14 32q13 16 34 16q15 0 32 -14q16 -16 16 -34q0 -20 -14 -34t-34 -14q-15 0 -32 14q-16 13 -16 34zM140 444q0 15 14 32q13 16 34 16q15 0 32 -14q16 -16 16 -34q0 -20 -14 -34t-34 -14q-15 0 -32 14q-16 13 -16 34zM140 828q0 15 14 32q13 16 34 16 q15 0 32 -14q16 -16 16 -34q0 -20 -14 -34t-34 -14q-15 0 -32 14q-16 13 -16 34zM152 1084q0 13 10 24q12 12 26 12q13 0 24 -10q12 -12 12 -26q0 -16 -10 -26q-11 -10 -26 -10q-13 0 -24 10q-12 12 -12 26zM268 60q0 15 14 32q13 16 34 16q15 0 32 -14q16 -16 16 -34 q0 -20 -14 -34t-34 -14q-15 0 -32 14q-16 13 -16 34zM268 444q0 15 14 32q13 16 34 16q15 0 32 -14q16 -16 16 -34q0 -20 -14 -34t-34 -14q-15 0 -32 14q-16 13 -16 34zM268 828q0 15 14 32q13 16 34 16q15 0 32 -14q16 -16 16 -34q0 -20 -14 -34t-34 -14q-15 0 -32 14 q-16 13 -16 34zM396 60q0 15 14 32q13 16 34 16q15 0 32 -14q16 -16 16 -34q0 -20 -14 -34t-34 -14q-15 0 -32 14q-16 13 -16 34zM396 444q0 15 14 32q13 16 34 16q15 0 32 -14q16 -16 16 -34q0 -20 -14 -34t-34 -14q-15 0 -32 14q-16 13 -16 34zM396 828q0 15 14 32 q13 16 34 16q15 0 32 -14q16 -16 16 -34q0 -20 -14 -34t-34 -14q-15 0 -32 14q-16 13 -16 34zM408 1084q0 13 10 24q12 12 26 12q13 0 24 -10q12 -12 12 -26q0 -16 -10 -26q-11 -10 -26 -10q-13 0 -24 10q-12 12 -12 26zM524 60q0 15 14 32q13 16 34 16q15 0 32 -14 q16 -16 16 -34q0 -20 -14 -34t-34 -14q-15 0 -32 14q-16 13 -16 34zM524 828q0 15 14 32q13 16 34 16q15 0 32 -14q16 -16 16 -34q0 -20 -14 -34t-34 -14q-15 0 -32 14q-16 13 -16 34z" />
<glyph unicode="&#xcc;" horiz-adv-x="640" d="M140 60q0 15 14 32q13 16 34 16q15 0 32 -14q16 -16 16 -34q0 -20 -14 -34t-34 -14q-15 0 -32 14q-16 13 -16 34zM140 828q0 15 14 32q13 16 34 16q15 0 32 -14q16 -16 16 -34q0 -20 -14 -34t-34 -14q-15 0 -32 14q-16 13 -16 34zM152 1212q0 13 10 24q12 12 26 12 q13 0 24 -10q12 -12 12 -26q0 -16 -10 -26q-11 -10 -26 -10q-13 0 -24 10q-12 12 -12 26zM268 60q0 15 14 32q13 16 34 16q15 0 32 -14q16 -16 16 -34q0 -20 -14 -34t-34 -14q-15 0 -32 14q-16 13 -16 34zM268 188q0 15 14 32q13 16 34 16q15 0 32 -14q16 -16 16 -34 q0 -20 -14 -34t-34 -14q-15 0 -32 14q-16 13 -16 34zM268 316q0 15 14 32q13 16 34 16q15 0 32 -14q16 -16 16 -34q0 -20 -14 -34t-34 -14q-15 0 -32 14q-16 13 -16 34zM268 444q0 15 14 32q13 16 34 16q15 0 32 -14q16 -16 16 -34q0 -20 -14 -34t-34 -14q-15 0 -32 14 q-16 13 -16 34zM268 572q0 15 14 32q13 16 34 16q15 0 32 -14q16 -16 16 -34q0 -20 -14 -34t-34 -14q-15 0 -32 14q-16 13 -16 34zM268 700q0 15 14 32q13 16 34 16q15 0 32 -14q16 -16 16 -34q0 -20 -14 -34t-34 -14q-15 0 -32 14q-16 13 -16 34zM268 828q0 15 14 32 q13 16 34 16q15 0 32 -14q16 -16 16 -34q0 -20 -14 -34t-34 -14q-15 0 -32 14q-16 13 -16 34zM280 1084q0 13 10 24q12 12 26 12q13 0 24 -10q12 -12 12 -26q0 -16 -10 -26q-11 -10 -26 -10q-13 0 -24 10q-12 12 -12 26zM396 60q0 15 14 32q13 16 34 16q15 0 32 -14 q16 -16 16 -34q0 -20 -14 -34t-34 -14q-15 0 -32 14q-16 13 -16 34zM396 828q0 15 14 32q13 16 34 16q15 0 32 -14q16 -16 16 -34q0 -20 -14 -34t-34 -14q-15 0 -32 14q-16 13 -16 34z" />
<glyph unicode="&#xcd;" horiz-adv-x="640" d="M140 60q0 15 14 32q13 16 34 16q15 0 32 -14q16 -16 16 -34q0 -20 -14 -34t-34 -14q-15 0 -32 14q-16 13 -16 34zM140 828q0 15 14 32q13 16 34 16q15 0 32 -14q16 -16 16 -34q0 -20 -14 -34t-34 -14q-15 0 -32 14q-16 13 -16 34zM268 60q0 15 14 32q13 16 34 16 q15 0 32 -14q16 -16 16 -34q0 -20 -14 -34t-34 -14q-15 0 -32 14q-16 13 -16 34zM268 188q0 15 14 32q13 16 34 16q15 0 32 -14q16 -16 16 -34q0 -20 -14 -34t-34 -14q-15 0 -32 14q-16 13 -16 34zM268 316q0 15 14 32q13 16 34 16q15 0 32 -14q16 -16 16 -34q0 -20 -14 -34 t-34 -14q-15 0 -32 14q-16 13 -16 34zM268 444q0 15 14 32q13 16 34 16q15 0 32 -14q16 -16 16 -34q0 -20 -14 -34t-34 -14q-15 0 -32 14q-16 13 -16 34zM268 572q0 15 14 32q13 16 34 16q15 0 32 -14q16 -16 16 -34q0 -20 -14 -34t-34 -14q-15 0 -32 14q-16 13 -16 34z M268 700q0 15 14 32q13 16 34 16q15 0 32 -14q16 -16 16 -34q0 -20 -14 -34t-34 -14q-15 0 -32 14q-16 13 -16 34zM268 828q0 15 14 32q13 16 34 16q15 0 32 -14q16 -16 16 -34q0 -20 -14 -34t-34 -14q-15 0 -32 14q-16 13 -16 34zM280 1084q0 13 10 24q12 12 26 12 q13 0 24 -10q12 -12 12 -26q0 -16 -10 -26q-11 -10 -26 -10q-13 0 -24 10q-12 12 -12 26zM396 60q0 15 14 32q13 16 34 16q15 0 32 -14q16 -16 16 -34q0 -20 -14 -34t-34 -14q-15 0 -32 14q-16 13 -16 34zM396 828q0 15 14 32q13 16 34 16q15 0 32 -14q16 -16 16 -34 q0 -20 -14 -34t-34 -14q-15 0 -32 14q-16 13 -16 34zM408 1212q0 13 10 24q12 12 26 12q13 0 24 -10q12 -12 12 -26q0 -16 -10 -26q-11 -10 -26 -10q-13 0 -24 10q-12 12 -12 26z" />
<glyph unicode="&#xce;" horiz-adv-x="640" d="M140 60q0 15 14 32q13 16 34 16q15 0 32 -14q16 -16 16 -34q0 -20 -14 -34t-34 -14q-15 0 -32 14q-16 13 -16 34zM140 828q0 15 14 32q13 16 34 16q15 0 32 -14q16 -16 16 -34q0 -20 -14 -34t-34 -14q-15 0 -32 14q-16 13 -16 34zM152 1084q0 13 10 24q12 12 26 12 q13 0 24 -10q12 -12 12 -26q0 -16 -10 -26q-11 -10 -26 -10q-13 0 -24 10q-12 12 -12 26zM268 60q0 15 14 32q13 16 34 16q15 0 32 -14q16 -16 16 -34q0 -20 -14 -34t-34 -14q-15 0 -32 14q-16 13 -16 34zM268 188q0 15 14 32q13 16 34 16q15 0 32 -14q16 -16 16 -34 q0 -20 -14 -34t-34 -14q-15 0 -32 14q-16 13 -16 34zM268 316q0 15 14 32q13 16 34 16q15 0 32 -14q16 -16 16 -34q0 -20 -14 -34t-34 -14q-15 0 -32 14q-16 13 -16 34zM268 444q0 15 14 32q13 16 34 16q15 0 32 -14q16 -16 16 -34q0 -20 -14 -34t-34 -14q-15 0 -32 14 q-16 13 -16 34zM268 572q0 15 14 32q13 16 34 16q15 0 32 -14q16 -16 16 -34q0 -20 -14 -34t-34 -14q-15 0 -32 14q-16 13 -16 34zM268 700q0 15 14 32q13 16 34 16q15 0 32 -14q16 -16 16 -34q0 -20 -14 -34t-34 -14q-15 0 -32 14q-16 13 -16 34zM268 828q0 15 14 32 q13 16 34 16q15 0 32 -14q16 -16 16 -34q0 -20 -14 -34t-34 -14q-15 0 -32 14q-16 13 -16 34zM280 1212q0 13 10 24q12 12 26 12q13 0 24 -10q12 -12 12 -26q0 -16 -10 -26q-11 -10 -26 -10q-13 0 -24 10q-12 12 -12 26zM396 60q0 15 14 32q13 16 34 16q15 0 32 -14 q16 -16 16 -34q0 -20 -14 -34t-34 -14q-15 0 -32 14q-16 13 -16 34zM396 828q0 15 14 32q13 16 34 16q15 0 32 -14q16 -16 16 -34q0 -20 -14 -34t-34 -14q-15 0 -32 14q-16 13 -16 34zM408 1084q0 13 10 24q12 12 26 12q13 0 24 -10q12 -12 12 -26q0 -16 -10 -26 q-11 -10 -26 -10q-13 0 -24 10q-12 12 -12 26z" />
<glyph unicode="&#xcf;" horiz-adv-x="640" d="M140 60q0 15 14 32q13 16 34 16q15 0 32 -14q16 -16 16 -34q0 -20 -14 -34t-34 -14q-15 0 -32 14q-16 13 -16 34zM140 828q0 15 14 32q13 16 34 16q15 0 32 -14q16 -16 16 -34q0 -20 -14 -34t-34 -14q-15 0 -32 14q-16 13 -16 34zM152 1084q0 13 10 24q12 12 26 12 q13 0 24 -10q12 -12 12 -26q0 -16 -10 -26q-11 -10 -26 -10q-13 0 -24 10q-12 12 -12 26zM268 60q0 15 14 32q13 16 34 16q15 0 32 -14q16 -16 16 -34q0 -20 -14 -34t-34 -14q-15 0 -32 14q-16 13 -16 34zM268 188q0 15 14 32q13 16 34 16q15 0 32 -14q16 -16 16 -34 q0 -20 -14 -34t-34 -14q-15 0 -32 14q-16 13 -16 34zM268 316q0 15 14 32q13 16 34 16q15 0 32 -14q16 -16 16 -34q0 -20 -14 -34t-34 -14q-15 0 -32 14q-16 13 -16 34zM268 444q0 15 14 32q13 16 34 16q15 0 32 -14q16 -16 16 -34q0 -20 -14 -34t-34 -14q-15 0 -32 14 q-16 13 -16 34zM268 572q0 15 14 32q13 16 34 16q15 0 32 -14q16 -16 16 -34q0 -20 -14 -34t-34 -14q-15 0 -32 14q-16 13 -16 34zM268 700q0 15 14 32q13 16 34 16q15 0 32 -14q16 -16 16 -34q0 -20 -14 -34t-34 -14q-15 0 -32 14q-16 13 -16 34zM268 828q0 15 14 32 q13 16 34 16q15 0 32 -14q16 -16 16 -34q0 -20 -14 -34t-34 -14q-15 0 -32 14q-16 13 -16 34zM396 60q0 15 14 32q13 16 34 16q15 0 32 -14q16 -16 16 -34q0 -20 -14 -34t-34 -14q-15 0 -32 14q-16 13 -16 34zM396 828q0 15 14 32q13 16 34 16q15 0 32 -14q16 -16 16 -34 q0 -20 -14 -34t-34 -14q-15 0 -32 14q-16 13 -16 34zM408 1084q0 13 10 24q12 12 26 12q13 0 24 -10q12 -12 12 -26q0 -16 -10 -26q-11 -10 -26 -10q-13 0 -24 10q-12 12 -12 26z" />
<glyph unicode="&#xd2;" d="M12 188q0 15 14 32q13 16 34 16q15 0 32 -14q16 -16 16 -34q0 -20 -14 -34t-34 -14q-15 0 -32 14q-16 13 -16 34zM12 316q0 15 14 32q13 16 34 16q15 0 32 -14q16 -16 16 -34q0 -20 -14 -34t-34 -14q-15 0 -32 14q-16 13 -16 34zM12 444q0 15 14 32q13 16 34 16 q15 0 32 -14q16 -16 16 -34q0 -20 -14 -34t-34 -14q-15 0 -32 14q-16 13 -16 34zM12 572q0 15 14 32q13 16 34 16q15 0 32 -14q16 -16 16 -34q0 -20 -14 -34t-34 -14q-15 0 -32 14q-16 13 -16 34zM12 700q0 15 14 32q13 16 34 16q15 0 32 -14q16 -16 16 -34q0 -20 -14 -34 t-34 -14q-15 0 -32 14q-16 13 -16 34zM140 60q0 15 14 32q13 16 34 16q15 0 32 -14q16 -16 16 -34q0 -20 -14 -34t-34 -14q-15 0 -32 14q-16 13 -16 34zM140 828q0 15 14 32q13 16 34 16q15 0 32 -14q16 -16 16 -34q0 -20 -14 -34t-34 -14q-15 0 -32 14q-16 13 -16 34z M152 1212q0 13 10 24q12 12 26 12q13 0 24 -10q12 -12 12 -26q0 -16 -10 -26q-11 -10 -26 -10q-13 0 -24 10q-12 12 -12 26zM268 60q0 15 14 32q13 16 34 16q15 0 32 -14q16 -16 16 -34q0 -20 -14 -34t-34 -14q-15 0 -32 14q-16 13 -16 34zM268 828q0 15 14 32q13 16 34 16 q15 0 32 -14q16 -16 16 -34q0 -20 -14 -34t-34 -14q-15 0 -32 14q-16 13 -16 34zM280 1084q0 13 10 24q12 12 26 12q13 0 24 -10q12 -12 12 -26q0 -16 -10 -26q-11 -10 -26 -10q-13 0 -24 10q-12 12 -12 26zM396 60q0 15 14 32q13 16 34 16q15 0 32 -14q16 -16 16 -34 q0 -20 -14 -34t-34 -14q-15 0 -32 14q-16 13 -16 34zM396 828q0 15 14 32q13 16 34 16q15 0 32 -14q16 -16 16 -34q0 -20 -14 -34t-34 -14q-15 0 -32 14q-16 13 -16 34zM524 188q0 15 14 32q13 16 34 16q15 0 32 -14q16 -16 16 -34q0 -20 -14 -34t-34 -14q-15 0 -32 14 q-16 13 -16 34zM524 316q0 15 14 32q13 16 34 16q15 0 32 -14q16 -16 16 -34q0 -20 -14 -34t-34 -14q-15 0 -32 14q-16 13 -16 34zM524 444q0 15 14 32q13 16 34 16q15 0 32 -14q16 -16 16 -34q0 -20 -14 -34t-34 -14q-15 0 -32 14q-16 13 -16 34zM524 572q0 15 14 32 q13 16 34 16q15 0 32 -14q16 -16 16 -34q0 -20 -14 -34t-34 -14q-15 0 -32 14q-16 13 -16 34zM524 700q0 15 14 32q13 16 34 16q15 0 32 -14q16 -16 16 -34q0 -20 -14 -34t-34 -14q-15 0 -32 14q-16 13 -16 34z" />
<glyph unicode="&#xd3;" d="M12 188q0 15 14 32q13 16 34 16q15 0 32 -14q16 -16 16 -34q0 -20 -14 -34t-34 -14q-15 0 -32 14q-16 13 -16 34zM12 316q0 15 14 32q13 16 34 16q15 0 32 -14q16 -16 16 -34q0 -20 -14 -34t-34 -14q-15 0 -32 14q-16 13 -16 34zM12 444q0 15 14 32q13 16 34 16 q15 0 32 -14q16 -16 16 -34q0 -20 -14 -34t-34 -14q-15 0 -32 14q-16 13 -16 34zM12 572q0 15 14 32q13 16 34 16q15 0 32 -14q16 -16 16 -34q0 -20 -14 -34t-34 -14q-15 0 -32 14q-16 13 -16 34zM12 700q0 15 14 32q13 16 34 16q15 0 32 -14q16 -16 16 -34q0 -20 -14 -34 t-34 -14q-15 0 -32 14q-16 13 -16 34zM140 60q0 15 14 32q13 16 34 16q15 0 32 -14q16 -16 16 -34q0 -20 -14 -34t-34 -14q-15 0 -32 14q-16 13 -16 34zM140 828q0 15 14 32q13 16 34 16q15 0 32 -14q16 -16 16 -34q0 -20 -14 -34t-34 -14q-15 0 -32 14q-16 13 -16 34z M268 60q0 15 14 32q13 16 34 16q15 0 32 -14q16 -16 16 -34q0 -20 -14 -34t-34 -14q-15 0 -32 14q-16 13 -16 34zM268 828q0 15 14 32q13 16 34 16q15 0 32 -14q16 -16 16 -34q0 -20 -14 -34t-34 -14q-15 0 -32 14q-16 13 -16 34zM280 1084q0 13 10 24q12 12 26 12 q13 0 24 -10q12 -12 12 -26q0 -16 -10 -26q-11 -10 -26 -10q-13 0 -24 10q-12 12 -12 26zM396 60q0 15 14 32q13 16 34 16q15 0 32 -14q16 -16 16 -34q0 -20 -14 -34t-34 -14q-15 0 -32 14q-16 13 -16 34zM396 828q0 15 14 32q13 16 34 16q15 0 32 -14q16 -16 16 -34 q0 -20 -14 -34t-34 -14q-15 0 -32 14q-16 13 -16 34zM408 1212q0 13 10 24q12 12 26 12q13 0 24 -10q12 -12 12 -26q0 -16 -10 -26q-11 -10 -26 -10q-13 0 -24 10q-12 12 -12 26zM524 188q0 15 14 32q13 16 34 16q15 0 32 -14q16 -16 16 -34q0 -20 -14 -34t-34 -14 q-15 0 -32 14q-16 13 -16 34zM524 316q0 15 14 32q13 16 34 16q15 0 32 -14q16 -16 16 -34q0 -20 -14 -34t-34 -14q-15 0 -32 14q-16 13 -16 34zM524 444q0 15 14 32q13 16 34 16q15 0 32 -14q16 -16 16 -34q0 -20 -14 -34t-34 -14q-15 0 -32 14q-16 13 -16 34zM524 572 q0 15 14 32q13 16 34 16q15 0 32 -14q16 -16 16 -34q0 -20 -14 -34t-34 -14q-15 0 -32 14q-16 13 -16 34zM524 700q0 15 14 32q13 16 34 16q15 0 32 -14q16 -16 16 -34q0 -20 -14 -34t-34 -14q-15 0 -32 14q-16 13 -16 34z" />
<glyph unicode="&#xd4;" d="M12 188q0 15 14 32q13 16 34 16q15 0 32 -14q16 -16 16 -34q0 -20 -14 -34t-34 -14q-15 0 -32 14q-16 13 -16 34zM12 316q0 15 14 32q13 16 34 16q15 0 32 -14q16 -16 16 -34q0 -20 -14 -34t-34 -14q-15 0 -32 14q-16 13 -16 34zM12 444q0 15 14 32q13 16 34 16 q15 0 32 -14q16 -16 16 -34q0 -20 -14 -34t-34 -14q-15 0 -32 14q-16 13 -16 34zM12 572q0 15 14 32q13 16 34 16q15 0 32 -14q16 -16 16 -34q0 -20 -14 -34t-34 -14q-15 0 -32 14q-16 13 -16 34zM12 700q0 15 14 32q13 16 34 16q15 0 32 -14q16 -16 16 -34q0 -20 -14 -34 t-34 -14q-15 0 -32 14q-16 13 -16 34zM140 60q0 15 14 32q13 16 34 16q15 0 32 -14q16 -16 16 -34q0 -20 -14 -34t-34 -14q-15 0 -32 14q-16 13 -16 34zM140 828q0 15 14 32q13 16 34 16q15 0 32 -14q16 -16 16 -34q0 -20 -14 -34t-34 -14q-15 0 -32 14q-16 13 -16 34z M152 1084q0 13 10 24q12 12 26 12q13 0 24 -10q12 -12 12 -26q0 -16 -10 -26q-11 -10 -26 -10q-13 0 -24 10q-12 12 -12 26zM268 60q0 15 14 32q13 16 34 16q15 0 32 -14q16 -16 16 -34q0 -20 -14 -34t-34 -14q-15 0 -32 14q-16 13 -16 34zM268 828q0 15 14 32q13 16 34 16 q15 0 32 -14q16 -16 16 -34q0 -20 -14 -34t-34 -14q-15 0 -32 14q-16 13 -16 34zM280 1212q0 13 10 24q12 12 26 12q13 0 24 -10q12 -12 12 -26q0 -16 -10 -26q-11 -10 -26 -10q-13 0 -24 10q-12 12 -12 26zM396 60q0 15 14 32q13 16 34 16q15 0 32 -14q16 -16 16 -34 q0 -20 -14 -34t-34 -14q-15 0 -32 14q-16 13 -16 34zM396 828q0 15 14 32q13 16 34 16q15 0 32 -14q16 -16 16 -34q0 -20 -14 -34t-34 -14q-15 0 -32 14q-16 13 -16 34zM408 1084q0 13 10 24q12 12 26 12q13 0 24 -10q12 -12 12 -26q0 -16 -10 -26q-11 -10 -26 -10 q-13 0 -24 10q-12 12 -12 26zM524 188q0 15 14 32q13 16 34 16q15 0 32 -14q16 -16 16 -34q0 -20 -14 -34t-34 -14q-15 0 -32 14q-16 13 -16 34zM524 316q0 15 14 32q13 16 34 16q15 0 32 -14q16 -16 16 -34q0 -20 -14 -34t-34 -14q-15 0 -32 14q-16 13 -16 34zM524 444 q0 15 14 32q13 16 34 16q15 0 32 -14q16 -16 16 -34q0 -20 -14 -34t-34 -14q-15 0 -32 14q-16 13 -16 34zM524 572q0 15 14 32q13 16 34 16q15 0 32 -14q16 -16 16 -34q0 -20 -14 -34t-34 -14q-15 0 -32 14q-16 13 -16 34zM524 700q0 15 14 32q13 16 34 16q15 0 32 -14 q16 -16 16 -34q0 -20 -14 -34t-34 -14q-15 0 -32 14q-16 13 -16 34z" />
<glyph unicode="&#xd6;" d="M12 188q0 15 14 32q13 16 34 16q15 0 32 -14q16 -16 16 -34q0 -20 -14 -34t-34 -14q-15 0 -32 14q-16 13 -16 34zM12 316q0 15 14 32q13 16 34 16q15 0 32 -14q16 -16 16 -34q0 -20 -14 -34t-34 -14q-15 0 -32 14q-16 13 -16 34zM12 444q0 15 14 32q13 16 34 16 q15 0 32 -14q16 -16 16 -34q0 -20 -14 -34t-34 -14q-15 0 -32 14q-16 13 -16 34zM12 572q0 15 14 32q13 16 34 16q15 0 32 -14q16 -16 16 -34q0 -20 -14 -34t-34 -14q-15 0 -32 14q-16 13 -16 34zM12 700q0 15 14 32q13 16 34 16q15 0 32 -14q16 -16 16 -34q0 -20 -14 -34 t-34 -14q-15 0 -32 14q-16 13 -16 34zM140 60q0 15 14 32q13 16 34 16q15 0 32 -14q16 -16 16 -34q0 -20 -14 -34t-34 -14q-15 0 -32 14q-16 13 -16 34zM140 828q0 15 14 32q13 16 34 16q15 0 32 -14q16 -16 16 -34q0 -20 -14 -34t-34 -14q-15 0 -32 14q-16 13 -16 34z M152 1084q0 13 10 24q12 12 26 12q13 0 24 -10q12 -12 12 -26q0 -16 -10 -26q-11 -10 -26 -10q-13 0 -24 10q-12 12 -12 26zM268 60q0 15 14 32q13 16 34 16q15 0 32 -14q16 -16 16 -34q0 -20 -14 -34t-34 -14q-15 0 -32 14q-16 13 -16 34zM268 828q0 15 14 32q13 16 34 16 q15 0 32 -14q16 -16 16 -34q0 -20 -14 -34t-34 -14q-15 0 -32 14q-16 13 -16 34zM396 60q0 15 14 32q13 16 34 16q15 0 32 -14q16 -16 16 -34q0 -20 -14 -34t-34 -14q-15 0 -32 14q-16 13 -16 34zM396 828q0 15 14 32q13 16 34 16q15 0 32 -14q16 -16 16 -34q0 -20 -14 -34 t-34 -14q-15 0 -32 14q-16 13 -16 34zM408 1084q0 13 10 24q12 12 26 12q13 0 24 -10q12 -12 12 -26q0 -16 -10 -26q-11 -10 -26 -10q-13 0 -24 10q-12 12 -12 26zM524 188q0 15 14 32q13 16 34 16q15 0 32 -14q16 -16 16 -34q0 -20 -14 -34t-34 -14q-15 0 -32 14 q-16 13 -16 34zM524 316q0 15 14 32q13 16 34 16q15 0 32 -14q16 -16 16 -34q0 -20 -14 -34t-34 -14q-15 0 -32 14q-16 13 -16 34zM524 444q0 15 14 32q13 16 34 16q15 0 32 -14q16 -16 16 -34q0 -20 -14 -34t-34 -14q-15 0 -32 14q-16 13 -16 34zM524 572q0 15 14 32 q13 16 34 16q15 0 32 -14q16 -16 16 -34q0 -20 -14 -34t-34 -14q-15 0 -32 14q-16 13 -16 34zM524 700q0 15 14 32q13 16 34 16q15 0 32 -14q16 -16 16 -34q0 -20 -14 -34t-34 -14q-15 0 -32 14q-16 13 -16 34z" />
<glyph unicode="&#xd7;" d="M12 188q0 15 14 32q13 16 34 16q15 0 32 -14q16 -16 16 -34q0 -20 -14 -34t-34 -14q-15 0 -32 14q-16 13 -16 34zM12 700q0 15 14 32q13 16 34 16q15 0 32 -14q16 -16 16 -34q0 -20 -14 -34t-34 -14q-15 0 -32 14q-16 13 -16 34zM140 316q0 15 14 32q13 16 34 16 q15 0 32 -14q16 -16 16 -34q0 -20 -14 -34t-34 -14q-15 0 -32 14q-16 13 -16 34zM140 572q0 15 14 32q13 16 34 16q15 0 32 -14q16 -16 16 -34q0 -20 -14 -34t-34 -14q-15 0 -32 14q-16 13 -16 34zM268 444q0 15 14 32q13 16 34 16q15 0 32 -14q16 -16 16 -34q0 -20 -14 -34 t-34 -14q-15 0 -32 14q-16 13 -16 34zM396 316q0 15 14 32q13 16 34 16q15 0 32 -14q16 -16 16 -34q0 -20 -14 -34t-34 -14q-15 0 -32 14q-16 13 -16 34zM396 572q0 15 14 32q13 16 34 16q15 0 32 -14q16 -16 16 -34q0 -20 -14 -34t-34 -14q-15 0 -32 14q-16 13 -16 34z M524 188q0 15 14 32q13 16 34 16q15 0 32 -14q16 -16 16 -34q0 -20 -14 -34t-34 -14q-15 0 -32 14q-16 13 -16 34zM524 700q0 15 14 32q13 16 34 16q15 0 32 -14q16 -16 16 -34q0 -20 -14 -34t-34 -14q-15 0 -32 14q-16 13 -16 34z" />
<glyph unicode="&#xd8;" horiz-adv-x="894" d="M-102 -66q0 13 10 24q12 12 26 12q13 0 24 -10q12 -12 12 -26q0 -16 -10 -26q-11 -10 -26 -10q-13 0 -24 10q-12 12 -12 26zM12 188q0 15 14 32q13 16 34 16q15 0 32 -14q16 -16 16 -34q0 -20 -14 -34t-34 -14q-15 0 -32 14q-16 13 -16 34zM12 316q0 15 14 32 q13 16 34 16q15 0 32 -14q16 -16 16 -34q0 -20 -14 -34t-34 -14q-15 0 -32 14q-16 13 -16 34zM12 444q0 15 14 32q13 16 34 16q15 0 32 -14q16 -16 16 -34q0 -20 -14 -34t-34 -14q-15 0 -32 14q-16 13 -16 34zM12 572q0 15 14 32q13 16 34 16q15 0 32 -14q16 -16 16 -34 q0 -20 -14 -34t-34 -14q-15 0 -32 14q-16 13 -16 34zM12 700q0 15 14 32q13 16 34 16q15 0 32 -14q16 -16 16 -34q0 -20 -14 -34t-34 -14q-15 0 -32 14q-16 13 -16 34zM24 60q0 13 10 24q12 12 26 12q13 0 24 -10q12 -12 12 -26q0 -16 -10 -26q-11 -10 -26 -10q-13 0 -24 10 q-12 12 -12 26zM140 60q0 15 14 32q13 16 34 16q15 0 32 -14q16 -16 16 -34q0 -20 -14 -34t-34 -14q-15 0 -32 14q-16 13 -16 34zM140 828q0 15 14 32q13 16 34 16q15 0 32 -14q16 -16 16 -34q0 -20 -14 -34t-34 -14q-15 0 -32 14q-16 13 -16 34zM152 188q0 13 10 24 q12 12 26 12q13 0 24 -10q12 -12 12 -26q0 -16 -10 -26q-11 -10 -26 -10q-13 0 -24 10q-12 12 -12 26zM152 316q0 13 10 24q12 12 26 12q13 0 24 -10q12 -12 12 -26q0 -16 -10 -26q-11 -10 -26 -10q-13 0 -24 10q-12 12 -12 26zM268 60q0 15 14 32q13 16 34 16q15 0 32 -14 q16 -16 16 -34q0 -20 -14 -34t-34 -14q-15 0 -32 14q-16 13 -16 34zM268 828q0 15 14 32q13 16 34 16q15 0 32 -14q16 -16 16 -34q0 -20 -14 -34t-34 -14q-15 0 -32 14q-16 13 -16 34zM280 444q0 13 10 24q12 12 26 12q13 0 24 -10q12 -12 12 -26q0 -16 -10 -26 q-11 -10 -26 -10q-13 0 -24 10q-12 12 -12 26zM396 60q0 15 14 32q13 16 34 16q15 0 32 -14q16 -16 16 -34q0 -20 -14 -34t-34 -14q-15 0 -32 14q-16 13 -16 34zM396 828q0 15 14 32q13 16 34 16q15 0 32 -14q16 -16 16 -34q0 -20 -14 -34t-34 -14q-15 0 -32 14 q-16 13 -16 34zM408 572q0 13 10 24q12 12 26 12q13 0 24 -10q12 -12 12 -26q0 -16 -10 -26q-11 -10 -26 -10q-13 0 -24 10q-12 12 -12 26zM408 700q0 13 10 24q12 12 26 12q13 0 24 -10q12 -12 12 -26q0 -16 -10 -26q-11 -10 -26 -10q-13 0 -24 10q-12 12 -12 26zM524 188 q0 15 14 32q13 16 34 16q15 0 32 -14q16 -16 16 -34q0 -20 -14 -34t-34 -14q-15 0 -32 14q-16 13 -16 34zM524 316q0 15 14 32q13 16 34 16q15 0 32 -14q16 -16 16 -34q0 -20 -14 -34t-34 -14q-15 0 -32 14q-16 13 -16 34zM524 444q0 15 14 32q13 16 34 16q15 0 32 -14 q16 -16 16 -34q0 -20 -14 -34t-34 -14q-15 0 -32 14q-16 13 -16 34zM524 572q0 15 14 32q13 16 34 16q15 0 32 -14q16 -16 16 -34q0 -20 -14 -34t-34 -14q-15 0 -32 14q-16 13 -16 34zM524 700q0 15 14 32q13 16 34 16q15 0 32 -14q16 -16 16 -34q0 -20 -14 -34t-34 -14 q-15 0 -32 14q-16 13 -16 34zM536 828q0 13 10 24q12 12 26 12q13 0 24 -10q12 -12 12 -26q0 -16 -10 -26q-11 -10 -26 -10q-13 0 -24 10q-12 12 -12 26zM664 956q0 13 10 24q12 12 26 12q13 0 24 -10q12 -12 12 -26q0 -16 -10 -26q-11 -10 -26 -10q-13 0 -24 10 q-12 12 -12 26z" />
<glyph unicode="&#xd9;" d="M12 188q0 15 14 32q13 16 34 16q15 0 32 -14q16 -16 16 -34q0 -20 -14 -34t-34 -14q-15 0 -32 14q-16 13 -16 34zM12 316q0 15 14 32q13 16 34 16q15 0 32 -14q16 -16 16 -34q0 -20 -14 -34t-34 -14q-15 0 -32 14q-16 13 -16 34zM12 444q0 15 14 32q13 16 34 16 q15 0 32 -14q16 -16 16 -34q0 -20 -14 -34t-34 -14q-15 0 -32 14q-16 13 -16 34zM12 572q0 15 14 32q13 16 34 16q15 0 32 -14q16 -16 16 -34q0 -20 -14 -34t-34 -14q-15 0 -32 14q-16 13 -16 34zM12 700q0 15 14 32q13 16 34 16q15 0 32 -14q16 -16 16 -34q0 -20 -14 -34 t-34 -14q-15 0 -32 14q-16 13 -16 34zM12 828q0 15 14 32q13 16 34 16q15 0 32 -14q16 -16 16 -34q0 -20 -14 -34t-34 -14q-15 0 -32 14q-16 13 -16 34zM140 60q0 15 14 32q13 16 34 16q15 0 32 -14q16 -16 16 -34q0 -20 -14 -34t-34 -14q-15 0 -32 14q-16 13 -16 34z M152 1212q0 13 10 24q12 12 26 12q13 0 24 -10q12 -12 12 -26q0 -16 -10 -26q-11 -10 -26 -10q-13 0 -24 10q-12 12 -12 26zM268 60q0 15 14 32q13 16 34 16q15 0 32 -14q16 -16 16 -34q0 -20 -14 -34t-34 -14q-15 0 -32 14q-16 13 -16 34zM280 1084q0 13 10 24q12 12 26 12 q13 0 24 -10q12 -12 12 -26q0 -16 -10 -26q-11 -10 -26 -10q-13 0 -24 10q-12 12 -12 26zM396 60q0 15 14 32q13 16 34 16q15 0 32 -14q16 -16 16 -34q0 -20 -14 -34t-34 -14q-15 0 -32 14q-16 13 -16 34zM524 188q0 15 14 32q13 16 34 16q15 0 32 -14q16 -16 16 -34 q0 -20 -14 -34t-34 -14q-15 0 -32 14q-16 13 -16 34zM524 316q0 15 14 32q13 16 34 16q15 0 32 -14q16 -16 16 -34q0 -20 -14 -34t-34 -14q-15 0 -32 14q-16 13 -16 34zM524 444q0 15 14 32q13 16 34 16q15 0 32 -14q16 -16 16 -34q0 -20 -14 -34t-34 -14q-15 0 -32 14 q-16 13 -16 34zM524 572q0 15 14 32q13 16 34 16q15 0 32 -14q16 -16 16 -34q0 -20 -14 -34t-34 -14q-15 0 -32 14q-16 13 -16 34zM524 700q0 15 14 32q13 16 34 16q15 0 32 -14q16 -16 16 -34q0 -20 -14 -34t-34 -14q-15 0 -32 14q-16 13 -16 34zM524 828q0 15 14 32 q13 16 34 16q15 0 32 -14q16 -16 16 -34q0 -20 -14 -34t-34 -14q-15 0 -32 14q-16 13 -16 34z" />
<glyph unicode="&#xda;" d="M12 188q0 15 14 32q13 16 34 16q15 0 32 -14q16 -16 16 -34q0 -20 -14 -34t-34 -14q-15 0 -32 14q-16 13 -16 34zM12 316q0 15 14 32q13 16 34 16q15 0 32 -14q16 -16 16 -34q0 -20 -14 -34t-34 -14q-15 0 -32 14q-16 13 -16 34zM12 444q0 15 14 32q13 16 34 16 q15 0 32 -14q16 -16 16 -34q0 -20 -14 -34t-34 -14q-15 0 -32 14q-16 13 -16 34zM12 572q0 15 14 32q13 16 34 16q15 0 32 -14q16 -16 16 -34q0 -20 -14 -34t-34 -14q-15 0 -32 14q-16 13 -16 34zM12 700q0 15 14 32q13 16 34 16q15 0 32 -14q16 -16 16 -34q0 -20 -14 -34 t-34 -14q-15 0 -32 14q-16 13 -16 34zM12 828q0 15 14 32q13 16 34 16q15 0 32 -14q16 -16 16 -34q0 -20 -14 -34t-34 -14q-15 0 -32 14q-16 13 -16 34zM140 60q0 15 14 32q13 16 34 16q15 0 32 -14q16 -16 16 -34q0 -20 -14 -34t-34 -14q-15 0 -32 14q-16 13 -16 34z M268 60q0 15 14 32q13 16 34 16q15 0 32 -14q16 -16 16 -34q0 -20 -14 -34t-34 -14q-15 0 -32 14q-16 13 -16 34zM280 1084q0 13 10 24q12 12 26 12q13 0 24 -10q12 -12 12 -26q0 -16 -10 -26q-11 -10 -26 -10q-13 0 -24 10q-12 12 -12 26zM396 60q0 15 14 32q13 16 34 16 q15 0 32 -14q16 -16 16 -34q0 -20 -14 -34t-34 -14q-15 0 -32 14q-16 13 -16 34zM408 1212q0 13 10 24q12 12 26 12q13 0 24 -10q12 -12 12 -26q0 -16 -10 -26q-11 -10 -26 -10q-13 0 -24 10q-12 12 -12 26zM524 188q0 15 14 32q13 16 34 16q15 0 32 -14q16 -16 16 -34 q0 -20 -14 -34t-34 -14q-15 0 -32 14q-16 13 -16 34zM524 316q0 15 14 32q13 16 34 16q15 0 32 -14q16 -16 16 -34q0 -20 -14 -34t-34 -14q-15 0 -32 14q-16 13 -16 34zM524 444q0 15 14 32q13 16 34 16q15 0 32 -14q16 -16 16 -34q0 -20 -14 -34t-34 -14q-15 0 -32 14 q-16 13 -16 34zM524 572q0 15 14 32q13 16 34 16q15 0 32 -14q16 -16 16 -34q0 -20 -14 -34t-34 -14q-15 0 -32 14q-16 13 -16 34zM524 700q0 15 14 32q13 16 34 16q15 0 32 -14q16 -16 16 -34q0 -20 -14 -34t-34 -14q-15 0 -32 14q-16 13 -16 34zM524 828q0 15 14 32 q13 16 34 16q15 0 32 -14q16 -16 16 -34q0 -20 -14 -34t-34 -14q-15 0 -32 14q-16 13 -16 34z" />
<glyph unicode="&#xdb;" d="M12 188q0 15 14 32q13 16 34 16q15 0 32 -14q16 -16 16 -34q0 -20 -14 -34t-34 -14q-15 0 -32 14q-16 13 -16 34zM12 316q0 15 14 32q13 16 34 16q15 0 32 -14q16 -16 16 -34q0 -20 -14 -34t-34 -14q-15 0 -32 14q-16 13 -16 34zM12 444q0 15 14 32q13 16 34 16 q15 0 32 -14q16 -16 16 -34q0 -20 -14 -34t-34 -14q-15 0 -32 14q-16 13 -16 34zM12 572q0 15 14 32q13 16 34 16q15 0 32 -14q16 -16 16 -34q0 -20 -14 -34t-34 -14q-15 0 -32 14q-16 13 -16 34zM12 700q0 15 14 32q13 16 34 16q15 0 32 -14q16 -16 16 -34q0 -20 -14 -34 t-34 -14q-15 0 -32 14q-16 13 -16 34zM12 828q0 15 14 32q13 16 34 16q15 0 32 -14q16 -16 16 -34q0 -20 -14 -34t-34 -14q-15 0 -32 14q-16 13 -16 34zM140 60q0 15 14 32q13 16 34 16q15 0 32 -14q16 -16 16 -34q0 -20 -14 -34t-34 -14q-15 0 -32 14q-16 13 -16 34z M152 1084q0 13 10 24q12 12 26 12q13 0 24 -10q12 -12 12 -26q0 -16 -10 -26q-11 -10 -26 -10q-13 0 -24 10q-12 12 -12 26zM268 60q0 15 14 32q13 16 34 16q15 0 32 -14q16 -16 16 -34q0 -20 -14 -34t-34 -14q-15 0 -32 14q-16 13 -16 34zM280 1212q0 13 10 24q12 12 26 12 q13 0 24 -10q12 -12 12 -26q0 -16 -10 -26q-11 -10 -26 -10q-13 0 -24 10q-12 12 -12 26zM396 60q0 15 14 32q13 16 34 16q15 0 32 -14q16 -16 16 -34q0 -20 -14 -34t-34 -14q-15 0 -32 14q-16 13 -16 34zM408 1084q0 13 10 24q12 12 26 12q13 0 24 -10q12 -12 12 -26 q0 -16 -10 -26q-11 -10 -26 -10q-13 0 -24 10q-12 12 -12 26zM524 188q0 15 14 32q13 16 34 16q15 0 32 -14q16 -16 16 -34q0 -20 -14 -34t-34 -14q-15 0 -32 14q-16 13 -16 34zM524 316q0 15 14 32q13 16 34 16q15 0 32 -14q16 -16 16 -34q0 -20 -14 -34t-34 -14 q-15 0 -32 14q-16 13 -16 34zM524 444q0 15 14 32q13 16 34 16q15 0 32 -14q16 -16 16 -34q0 -20 -14 -34t-34 -14q-15 0 -32 14q-16 13 -16 34zM524 572q0 15 14 32q13 16 34 16q15 0 32 -14q16 -16 16 -34q0 -20 -14 -34t-34 -14q-15 0 -32 14q-16 13 -16 34zM524 700 q0 15 14 32q13 16 34 16q15 0 32 -14q16 -16 16 -34q0 -20 -14 -34t-34 -14q-15 0 -32 14q-16 13 -16 34zM524 828q0 15 14 32q13 16 34 16q15 0 32 -14q16 -16 16 -34q0 -20 -14 -34t-34 -14q-15 0 -32 14q-16 13 -16 34z" />
<glyph unicode="&#xdc;" d="M12 188q0 15 14 32q13 16 34 16q15 0 32 -14q16 -16 16 -34q0 -20 -14 -34t-34 -14q-15 0 -32 14q-16 13 -16 34zM12 316q0 15 14 32q13 16 34 16q15 0 32 -14q16 -16 16 -34q0 -20 -14 -34t-34 -14q-15 0 -32 14q-16 13 -16 34zM12 444q0 15 14 32q13 16 34 16 q15 0 32 -14q16 -16 16 -34q0 -20 -14 -34t-34 -14q-15 0 -32 14q-16 13 -16 34zM12 572q0 15 14 32q13 16 34 16q15 0 32 -14q16 -16 16 -34q0 -20 -14 -34t-34 -14q-15 0 -32 14q-16 13 -16 34zM12 700q0 15 14 32q13 16 34 16q15 0 32 -14q16 -16 16 -34q0 -20 -14 -34 t-34 -14q-15 0 -32 14q-16 13 -16 34zM12 828q0 15 14 32q13 16 34 16q15 0 32 -14q16 -16 16 -34q0 -20 -14 -34t-34 -14q-15 0 -32 14q-16 13 -16 34zM140 60q0 15 14 32q13 16 34 16q15 0 32 -14q16 -16 16 -34q0 -20 -14 -34t-34 -14q-15 0 -32 14q-16 13 -16 34z M152 1084q0 13 10 24q12 12 26 12q13 0 24 -10q12 -12 12 -26q0 -16 -10 -26q-11 -10 -26 -10q-13 0 -24 10q-12 12 -12 26zM268 60q0 15 14 32q13 16 34 16q15 0 32 -14q16 -16 16 -34q0 -20 -14 -34t-34 -14q-15 0 -32 14q-16 13 -16 34zM396 60q0 15 14 32q13 16 34 16 q15 0 32 -14q16 -16 16 -34q0 -20 -14 -34t-34 -14q-15 0 -32 14q-16 13 -16 34zM408 1084q0 13 10 24q12 12 26 12q13 0 24 -10q12 -12 12 -26q0 -16 -10 -26q-11 -10 -26 -10q-13 0 -24 10q-12 12 -12 26zM524 188q0 15 14 32q13 16 34 16q15 0 32 -14q16 -16 16 -34 q0 -20 -14 -34t-34 -14q-15 0 -32 14q-16 13 -16 34zM524 316q0 15 14 32q13 16 34 16q15 0 32 -14q16 -16 16 -34q0 -20 -14 -34t-34 -14q-15 0 -32 14q-16 13 -16 34zM524 444q0 15 14 32q13 16 34 16q15 0 32 -14q16 -16 16 -34q0 -20 -14 -34t-34 -14q-15 0 -32 14 q-16 13 -16 34zM524 572q0 15 14 32q13 16 34 16q15 0 32 -14q16 -16 16 -34q0 -20 -14 -34t-34 -14q-15 0 -32 14q-16 13 -16 34zM524 700q0 15 14 32q13 16 34 16q15 0 32 -14q16 -16 16 -34q0 -20 -14 -34t-34 -14q-15 0 -32 14q-16 13 -16 34zM524 828q0 15 14 32 q13 16 34 16q15 0 32 -14q16 -16 16 -34q0 -20 -14 -34t-34 -14q-15 0 -32 14q-16 13 -16 34z" />
<glyph unicode="&#xdf;" d="M12 60q0 15 14 32q13 16 34 16q15 0 32 -14q16 -16 16 -34q0 -20 -14 -34t-34 -14q-15 0 -32 14q-16 13 -16 34zM12 -66q0 15 14 32q13 16 34 16q15 0 32 -14q16 -16 16 -34q0 -20 -14 -34t-34 -14q-15 0 -32 14q-16 13 -16 34zM12 188q0 15 14 32q13 16 34 16 q15 0 32 -14q16 -16 16 -34q0 -20 -14 -34t-34 -14q-15 0 -32 14q-16 13 -16 34zM12 -194q0 15 14 32q13 16 34 16q15 0 32 -14q16 -16 16 -34q0 -20 -14 -34t-34 -14q-15 0 -32 14q-16 13 -16 34zM12 316q0 15 14 32q13 16 34 16q15 0 32 -14q16 -16 16 -34q0 -20 -14 -34 t-34 -14q-15 0 -32 14q-16 13 -16 34zM12 444q0 15 14 32q13 16 34 16q15 0 32 -14q16 -16 16 -34q0 -20 -14 -34t-34 -14q-15 0 -32 14q-16 13 -16 34zM12 572q0 15 14 32q13 16 34 16q15 0 32 -14q16 -16 16 -34q0 -20 -14 -34t-34 -14q-15 0 -32 14q-16 13 -16 34z M12 700q0 15 14 32q13 16 34 16q15 0 32 -14q16 -16 16 -34q0 -20 -14 -34t-34 -14q-15 0 -32 14q-16 13 -16 34zM140 444q0 15 14 32q13 16 34 16q15 0 32 -14q16 -16 16 -34q0 -20 -14 -34t-34 -14q-15 0 -32 14q-16 13 -16 34zM140 828q0 15 14 32q13 16 34 16 q15 0 32 -14q16 -16 16 -34q0 -20 -14 -34t-34 -14q-15 0 -32 14q-16 13 -16 34zM268 -66q0 15 14 32q13 16 34 16q15 0 32 -14q16 -16 16 -34q0 -20 -14 -34t-34 -14q-15 0 -32 14q-16 13 -16 34zM268 316q0 15 14 32q13 16 34 16q15 0 32 -14q16 -16 16 -34q0 -20 -14 -34 t-34 -14q-15 0 -32 14q-16 13 -16 34zM268 572q0 15 14 32q13 16 34 16q15 0 32 -14q16 -16 16 -34q0 -20 -14 -34t-34 -14q-15 0 -32 14q-16 13 -16 34zM268 700q0 15 14 32q13 16 34 16q15 0 32 -14q16 -16 16 -34q0 -20 -14 -34t-34 -14q-15 0 -32 14q-16 13 -16 34z M396 -66q0 15 14 32q13 16 34 16q15 0 32 -14q16 -16 16 -34q0 -20 -14 -34t-34 -14q-15 0 -32 14q-16 13 -16 34zM396 316q0 15 14 32q13 16 34 16q15 0 32 -14q16 -16 16 -34q0 -20 -14 -34t-34 -14q-15 0 -32 14q-16 13 -16 34zM524 60q0 15 14 32q13 16 34 16 q15 0 32 -14q16 -16 16 -34q0 -20 -14 -34t-34 -14q-15 0 -32 14q-16 13 -16 34zM524 188q0 15 14 32q13 16 34 16q15 0 32 -14q16 -16 16 -34q0 -20 -14 -34t-34 -14q-15 0 -32 14q-16 13 -16 34z" />
<glyph unicode="&#xe0;" d="M12 188q0 15 14 32q13 16 34 16q15 0 32 -14q16 -16 16 -34q0 -20 -14 -34t-34 -14q-15 0 -32 14q-16 13 -16 34zM140 60q0 15 14 32q13 16 34 16q15 0 32 -14q16 -16 16 -34q0 -20 -14 -34t-34 -14q-15 0 -32 14q-16 13 -16 34zM140 316q0 15 14 32q13 16 34 16 q15 0 32 -14q16 -16 16 -34q0 -20 -14 -34t-34 -14q-15 0 -32 14q-16 13 -16 34zM140 572q0 15 14 32q13 16 34 16q15 0 32 -14q16 -16 16 -34q0 -20 -14 -34t-34 -14q-15 0 -32 14q-16 13 -16 34zM152 956q0 13 10 24q12 12 26 12q13 0 24 -10q12 -12 12 -26q0 -16 -10 -26 q-11 -10 -26 -10q-13 0 -24 10q-12 12 -12 26zM268 60q0 15 14 32q13 16 34 16q15 0 32 -14q16 -16 16 -34q0 -20 -14 -34t-34 -14q-15 0 -32 14q-16 13 -16 34zM268 316q0 15 14 32q13 16 34 16q15 0 32 -14q16 -16 16 -34q0 -20 -14 -34t-34 -14q-15 0 -32 14 q-16 13 -16 34zM268 572q0 15 14 32q13 16 34 16q15 0 32 -14q16 -16 16 -34q0 -20 -14 -34t-34 -14q-15 0 -32 14q-16 13 -16 34zM280 828q0 13 10 24q12 12 26 12q13 0 24 -10q12 -12 12 -26q0 -16 -10 -26q-11 -10 -26 -10q-13 0 -24 10q-12 12 -12 26zM396 60 q0 15 14 32q13 16 34 16q15 0 32 -14q16 -16 16 -34q0 -20 -14 -34t-34 -14q-15 0 -32 14q-16 13 -16 34zM396 316q0 15 14 32q13 16 34 16q15 0 32 -14q16 -16 16 -34q0 -20 -14 -34t-34 -14q-15 0 -32 14q-16 13 -16 34zM396 572q0 15 14 32q13 16 34 16q15 0 32 -14 q16 -16 16 -34q0 -20 -14 -34t-34 -14q-15 0 -32 14q-16 13 -16 34zM524 188q0 15 14 32q13 16 34 16q15 0 32 -14q16 -16 16 -34q0 -20 -14 -34t-34 -14q-15 0 -32 14q-16 13 -16 34zM524 316q0 15 14 32q13 16 34 16q15 0 32 -14q16 -16 16 -34q0 -20 -14 -34t-34 -14 q-15 0 -32 14q-16 13 -16 34zM524 444q0 15 14 32q13 16 34 16q15 0 32 -14q16 -16 16 -34q0 -20 -14 -34t-34 -14q-15 0 -32 14q-16 13 -16 34z" />
<glyph unicode="&#xe1;" d="M12 188q0 15 14 32q13 16 34 16q15 0 32 -14q16 -16 16 -34q0 -20 -14 -34t-34 -14q-15 0 -32 14q-16 13 -16 34zM140 60q0 15 14 32q13 16 34 16q15 0 32 -14q16 -16 16 -34q0 -20 -14 -34t-34 -14q-15 0 -32 14q-16 13 -16 34zM140 316q0 15 14 32q13 16 34 16 q15 0 32 -14q16 -16 16 -34q0 -20 -14 -34t-34 -14q-15 0 -32 14q-16 13 -16 34zM140 572q0 15 14 32q13 16 34 16q15 0 32 -14q16 -16 16 -34q0 -20 -14 -34t-34 -14q-15 0 -32 14q-16 13 -16 34zM268 60q0 15 14 32q13 16 34 16q15 0 32 -14q16 -16 16 -34q0 -20 -14 -34 t-34 -14q-15 0 -32 14q-16 13 -16 34zM268 316q0 15 14 32q13 16 34 16q15 0 32 -14q16 -16 16 -34q0 -20 -14 -34t-34 -14q-15 0 -32 14q-16 13 -16 34zM268 572q0 15 14 32q13 16 34 16q15 0 32 -14q16 -16 16 -34q0 -20 -14 -34t-34 -14q-15 0 -32 14q-16 13 -16 34z M280 828q0 13 10 24q12 12 26 12q13 0 24 -10q12 -12 12 -26q0 -16 -10 -26q-11 -10 -26 -10q-13 0 -24 10q-12 12 -12 26zM396 60q0 15 14 32q13 16 34 16q15 0 32 -14q16 -16 16 -34q0 -20 -14 -34t-34 -14q-15 0 -32 14q-16 13 -16 34zM396 316q0 15 14 32q13 16 34 16 q15 0 32 -14q16 -16 16 -34q0 -20 -14 -34t-34 -14q-15 0 -32 14q-16 13 -16 34zM396 572q0 15 14 32q13 16 34 16q15 0 32 -14q16 -16 16 -34q0 -20 -14 -34t-34 -14q-15 0 -32 14q-16 13 -16 34zM408 956q0 13 10 24q12 12 26 12q13 0 24 -10q12 -12 12 -26q0 -16 -10 -26 q-11 -10 -26 -10q-13 0 -24 10q-12 12 -12 26zM524 188q0 15 14 32q13 16 34 16q15 0 32 -14q16 -16 16 -34q0 -20 -14 -34t-34 -14q-15 0 -32 14q-16 13 -16 34zM524 316q0 15 14 32q13 16 34 16q15 0 32 -14q16 -16 16 -34q0 -20 -14 -34t-34 -14q-15 0 -32 14 q-16 13 -16 34zM524 444q0 15 14 32q13 16 34 16q15 0 32 -14q16 -16 16 -34q0 -20 -14 -34t-34 -14q-15 0 -32 14q-16 13 -16 34z" />
<glyph unicode="&#xe2;" d="M12 188q0 15 14 32q13 16 34 16q15 0 32 -14q16 -16 16 -34q0 -20 -14 -34t-34 -14q-15 0 -32 14q-16 13 -16 34zM140 60q0 15 14 32q13 16 34 16q15 0 32 -14q16 -16 16 -34q0 -20 -14 -34t-34 -14q-15 0 -32 14q-16 13 -16 34zM140 316q0 15 14 32q13 16 34 16 q15 0 32 -14q16 -16 16 -34q0 -20 -14 -34t-34 -14q-15 0 -32 14q-16 13 -16 34zM140 572q0 15 14 32q13 16 34 16q15 0 32 -14q16 -16 16 -34q0 -20 -14 -34t-34 -14q-15 0 -32 14q-16 13 -16 34zM152 828q0 13 10 24q12 12 26 12q13 0 24 -10q12 -12 12 -26q0 -16 -10 -26 q-11 -10 -26 -10q-13 0 -24 10q-12 12 -12 26zM268 60q0 15 14 32q13 16 34 16q15 0 32 -14q16 -16 16 -34q0 -20 -14 -34t-34 -14q-15 0 -32 14q-16 13 -16 34zM268 316q0 15 14 32q13 16 34 16q15 0 32 -14q16 -16 16 -34q0 -20 -14 -34t-34 -14q-15 0 -32 14 q-16 13 -16 34zM268 572q0 15 14 32q13 16 34 16q15 0 32 -14q16 -16 16 -34q0 -20 -14 -34t-34 -14q-15 0 -32 14q-16 13 -16 34zM280 956q0 13 10 24q12 12 26 12q13 0 24 -10q12 -12 12 -26q0 -16 -10 -26q-11 -10 -26 -10q-13 0 -24 10q-12 12 -12 26zM396 60 q0 15 14 32q13 16 34 16q15 0 32 -14q16 -16 16 -34q0 -20 -14 -34t-34 -14q-15 0 -32 14q-16 13 -16 34zM396 316q0 15 14 32q13 16 34 16q15 0 32 -14q16 -16 16 -34q0 -20 -14 -34t-34 -14q-15 0 -32 14q-16 13 -16 34zM396 572q0 15 14 32q13 16 34 16q15 0 32 -14 q16 -16 16 -34q0 -20 -14 -34t-34 -14q-15 0 -32 14q-16 13 -16 34zM408 828q0 13 10 24q12 12 26 12q13 0 24 -10q12 -12 12 -26q0 -16 -10 -26q-11 -10 -26 -10q-13 0 -24 10q-12 12 -12 26zM524 188q0 15 14 32q13 16 34 16q15 0 32 -14q16 -16 16 -34q0 -20 -14 -34 t-34 -14q-15 0 -32 14q-16 13 -16 34zM524 316q0 15 14 32q13 16 34 16q15 0 32 -14q16 -16 16 -34q0 -20 -14 -34t-34 -14q-15 0 -32 14q-16 13 -16 34zM524 444q0 15 14 32q13 16 34 16q15 0 32 -14q16 -16 16 -34q0 -20 -14 -34t-34 -14q-15 0 -32 14q-16 13 -16 34z" />
<glyph unicode="&#xe4;" d="M12 188q0 15 14 32q13 16 34 16q15 0 32 -14q16 -16 16 -34q0 -20 -14 -34t-34 -14q-15 0 -32 14q-16 13 -16 34zM140 60q0 15 14 32q13 16 34 16q15 0 32 -14q16 -16 16 -34q0 -20 -14 -34t-34 -14q-15 0 -32 14q-16 13 -16 34zM140 316q0 15 14 32q13 16 34 16 q15 0 32 -14q16 -16 16 -34q0 -20 -14 -34t-34 -14q-15 0 -32 14q-16 13 -16 34zM140 572q0 15 14 32q13 16 34 16q15 0 32 -14q16 -16 16 -34q0 -20 -14 -34t-34 -14q-15 0 -32 14q-16 13 -16 34zM152 828q0 13 10 24q12 12 26 12q13 0 24 -10q12 -12 12 -26q0 -16 -10 -26 q-11 -10 -26 -10q-13 0 -24 10q-12 12 -12 26zM268 60q0 15 14 32q13 16 34 16q15 0 32 -14q16 -16 16 -34q0 -20 -14 -34t-34 -14q-15 0 -32 14q-16 13 -16 34zM268 316q0 15 14 32q13 16 34 16q15 0 32 -14q16 -16 16 -34q0 -20 -14 -34t-34 -14q-15 0 -32 14 q-16 13 -16 34zM268 572q0 15 14 32q13 16 34 16q15 0 32 -14q16 -16 16 -34q0 -20 -14 -34t-34 -14q-15 0 -32 14q-16 13 -16 34zM396 60q0 15 14 32q13 16 34 16q15 0 32 -14q16 -16 16 -34q0 -20 -14 -34t-34 -14q-15 0 -32 14q-16 13 -16 34zM396 316q0 15 14 32 q13 16 34 16q15 0 32 -14q16 -16 16 -34q0 -20 -14 -34t-34 -14q-15 0 -32 14q-16 13 -16 34zM396 572q0 15 14 32q13 16 34 16q15 0 32 -14q16 -16 16 -34q0 -20 -14 -34t-34 -14q-15 0 -32 14q-16 13 -16 34zM408 828q0 13 10 24q12 12 26 12q13 0 24 -10q12 -12 12 -26 q0 -16 -10 -26q-11 -10 -26 -10q-13 0 -24 10q-12 12 -12 26zM524 188q0 15 14 32q13 16 34 16q15 0 32 -14q16 -16 16 -34q0 -20 -14 -34t-34 -14q-15 0 -32 14q-16 13 -16 34zM524 316q0 15 14 32q13 16 34 16q15 0 32 -14q16 -16 16 -34q0 -20 -14 -34t-34 -14 q-15 0 -32 14q-16 13 -16 34zM524 444q0 15 14 32q13 16 34 16q15 0 32 -14q16 -16 16 -34q0 -20 -14 -34t-34 -14q-15 0 -32 14q-16 13 -16 34z" />
<glyph unicode="&#xe5;" d="M12 188q0 15 14 32q13 16 34 16q15 0 32 -14q16 -16 16 -34q0 -20 -14 -34t-34 -14q-15 0 -32 14q-16 13 -16 34zM140 60q0 15 14 32q13 16 34 16q15 0 32 -14q16 -16 16 -34q0 -20 -14 -34t-34 -14q-15 0 -32 14q-16 13 -16 34zM140 316q0 15 14 32q13 16 34 16 q15 0 32 -14q16 -16 16 -34q0 -20 -14 -34t-34 -14q-15 0 -32 14q-16 13 -16 34zM140 572q0 15 14 32q13 16 34 16q15 0 32 -14q16 -16 16 -34q0 -20 -14 -34t-34 -14q-15 0 -32 14q-16 13 -16 34zM152 828q0 13 10 24q12 12 26 12q13 0 24 -10q12 -12 12 -26q0 -16 -10 -26 q-11 -10 -26 -10q-13 0 -24 10q-12 12 -12 26zM152 956q0 13 10 24q12 12 26 12q13 0 24 -10q12 -12 12 -26q0 -16 -10 -26q-11 -10 -26 -10q-13 0 -24 10q-12 12 -12 26zM268 60q0 15 14 32q13 16 34 16q15 0 32 -14q16 -16 16 -34q0 -20 -14 -34t-34 -14q-15 0 -32 14 q-16 13 -16 34zM268 316q0 15 14 32q13 16 34 16q15 0 32 -14q16 -16 16 -34q0 -20 -14 -34t-34 -14q-15 0 -32 14q-16 13 -16 34zM268 572q0 15 14 32q13 16 34 16q15 0 32 -14q16 -16 16 -34q0 -20 -14 -34t-34 -14q-15 0 -32 14q-16 13 -16 34zM280 828q0 13 10 24 q12 12 26 12q13 0 24 -10q12 -12 12 -26q0 -16 -10 -26q-11 -10 -26 -10q-13 0 -24 10q-12 12 -12 26zM280 956q0 13 10 24q12 12 26 12q13 0 24 -10q12 -12 12 -26q0 -16 -10 -26q-11 -10 -26 -10q-13 0 -24 10q-12 12 -12 26zM396 60q0 15 14 32q13 16 34 16q15 0 32 -14 q16 -16 16 -34q0 -20 -14 -34t-34 -14q-15 0 -32 14q-16 13 -16 34zM396 316q0 15 14 32q13 16 34 16q15 0 32 -14q16 -16 16 -34q0 -20 -14 -34t-34 -14q-15 0 -32 14q-16 13 -16 34zM396 572q0 15 14 32q13 16 34 16q15 0 32 -14q16 -16 16 -34q0 -20 -14 -34t-34 -14 q-15 0 -32 14q-16 13 -16 34zM524 188q0 15 14 32q13 16 34 16q15 0 32 -14q16 -16 16 -34q0 -20 -14 -34t-34 -14q-15 0 -32 14q-16 13 -16 34zM524 316q0 15 14 32q13 16 34 16q15 0 32 -14q16 -16 16 -34q0 -20 -14 -34t-34 -14q-15 0 -32 14q-16 13 -16 34zM524 444 q0 15 14 32q13 16 34 16q15 0 32 -14q16 -16 16 -34q0 -20 -14 -34t-34 -14q-15 0 -32 14q-16 13 -16 34z" />
<glyph unicode="&#xe7;" d="M12 188q0 15 14 32q13 16 34 16q15 0 32 -14q16 -16 16 -34q0 -20 -14 -34t-34 -14q-15 0 -32 14q-16 13 -16 34zM12 316q0 15 14 32q13 16 34 16q15 0 32 -14q16 -16 16 -34q0 -20 -14 -34t-34 -14q-15 0 -32 14q-16 13 -16 34zM12 444q0 15 14 32q13 16 34 16 q15 0 32 -14q16 -16 16 -34q0 -20 -14 -34t-34 -14q-15 0 -32 14q-16 13 -16 34zM140 60q0 15 14 32q13 16 34 16q15 0 32 -14q16 -16 16 -34q0 -20 -14 -34t-34 -14q-15 0 -32 14q-16 13 -16 34zM140 -322q0 15 14 32q13 16 34 16q15 0 32 -14q16 -16 16 -34q0 -20 -14 -34 t-34 -14q-15 0 -32 14q-16 13 -16 34zM140 572q0 15 14 32q13 16 34 16q15 0 32 -14q16 -16 16 -34q0 -20 -14 -34t-34 -14q-15 0 -32 14q-16 13 -16 34zM268 60q0 15 14 32q13 16 34 16q15 0 32 -14q16 -16 16 -34q0 -20 -14 -34t-34 -14q-15 0 -32 14q-16 13 -16 34z M268 -66q0 15 14 32q13 16 34 16q15 0 32 -14q16 -16 16 -34q0 -20 -14 -34t-34 -14q-15 0 -32 14q-16 13 -16 34zM268 -322q0 15 14 32q13 16 34 16q15 0 32 -14q16 -16 16 -34q0 -20 -14 -34t-34 -14q-15 0 -32 14q-16 13 -16 34zM268 572q0 15 14 32q13 16 34 16 q15 0 32 -14q16 -16 16 -34q0 -20 -14 -34t-34 -14q-15 0 -32 14q-16 13 -16 34zM396 60q0 15 14 32q13 16 34 16q15 0 32 -14q16 -16 16 -34q0 -20 -14 -34t-34 -14q-15 0 -32 14q-16 13 -16 34zM396 -194q0 15 14 32q13 16 34 16q15 0 32 -14q16 -16 16 -34q0 -20 -14 -34 t-34 -14q-15 0 -32 14q-16 13 -16 34zM396 572q0 15 14 32q13 16 34 16q15 0 32 -14q16 -16 16 -34q0 -20 -14 -34t-34 -14q-15 0 -32 14q-16 13 -16 34zM524 188q0 15 14 32q13 16 34 16q15 0 32 -14q16 -16 16 -34q0 -20 -14 -34t-34 -14q-15 0 -32 14q-16 13 -16 34z M524 444q0 15 14 32q13 16 34 16q15 0 32 -14q16 -16 16 -34q0 -20 -14 -34t-34 -14q-15 0 -32 14q-16 13 -16 34z" />
<glyph unicode="&#xe8;" d="M12 188q0 15 14 32q13 16 34 16q15 0 32 -14q16 -16 16 -34q0 -20 -14 -34t-34 -14q-15 0 -32 14q-16 13 -16 34zM12 316q0 15 14 32q13 16 34 16q15 0 32 -14q16 -16 16 -34q0 -20 -14 -34t-34 -14q-15 0 -32 14q-16 13 -16 34zM12 444q0 15 14 32q13 16 34 16 q15 0 32 -14q16 -16 16 -34q0 -20 -14 -34t-34 -14q-15 0 -32 14q-16 13 -16 34zM140 60q0 15 14 32q13 16 34 16q15 0 32 -14q16 -16 16 -34q0 -20 -14 -34t-34 -14q-15 0 -32 14q-16 13 -16 34zM140 316q0 15 14 32q13 16 34 16q15 0 32 -14q16 -16 16 -34q0 -20 -14 -34 t-34 -14q-15 0 -32 14q-16 13 -16 34zM140 572q0 15 14 32q13 16 34 16q15 0 32 -14q16 -16 16 -34q0 -20 -14 -34t-34 -14q-15 0 -32 14q-16 13 -16 34zM152 956q0 13 10 24q12 12 26 12q13 0 24 -10q12 -12 12 -26q0 -16 -10 -26q-11 -10 -26 -10q-13 0 -24 10 q-12 12 -12 26zM268 60q0 15 14 32q13 16 34 16q15 0 32 -14q16 -16 16 -34q0 -20 -14 -34t-34 -14q-15 0 -32 14q-16 13 -16 34zM268 316q0 15 14 32q13 16 34 16q15 0 32 -14q16 -16 16 -34q0 -20 -14 -34t-34 -14q-15 0 -32 14q-16 13 -16 34zM268 572q0 15 14 32 q13 16 34 16q15 0 32 -14q16 -16 16 -34q0 -20 -14 -34t-34 -14q-15 0 -32 14q-16 13 -16 34zM280 828q0 13 10 24q12 12 26 12q13 0 24 -10q12 -12 12 -26q0 -16 -10 -26q-11 -10 -26 -10q-13 0 -24 10q-12 12 -12 26zM396 60q0 15 14 32q13 16 34 16q15 0 32 -14 q16 -16 16 -34q0 -20 -14 -34t-34 -14q-15 0 -32 14q-16 13 -16 34zM396 316q0 15 14 32q13 16 34 16q15 0 32 -14q16 -16 16 -34q0 -20 -14 -34t-34 -14q-15 0 -32 14q-16 13 -16 34zM396 572q0 15 14 32q13 16 34 16q15 0 32 -14q16 -16 16 -34q0 -20 -14 -34t-34 -14 q-15 0 -32 14q-16 13 -16 34zM524 444q0 15 14 32q13 16 34 16q15 0 32 -14q16 -16 16 -34q0 -20 -14 -34t-34 -14q-15 0 -32 14q-16 13 -16 34z" />
<glyph unicode="&#xe9;" d="M12 188q0 15 14 32q13 16 34 16q15 0 32 -14q16 -16 16 -34q0 -20 -14 -34t-34 -14q-15 0 -32 14q-16 13 -16 34zM12 316q0 15 14 32q13 16 34 16q15 0 32 -14q16 -16 16 -34q0 -20 -14 -34t-34 -14q-15 0 -32 14q-16 13 -16 34zM12 444q0 15 14 32q13 16 34 16 q15 0 32 -14q16 -16 16 -34q0 -20 -14 -34t-34 -14q-15 0 -32 14q-16 13 -16 34zM140 60q0 15 14 32q13 16 34 16q15 0 32 -14q16 -16 16 -34q0 -20 -14 -34t-34 -14q-15 0 -32 14q-16 13 -16 34zM140 316q0 15 14 32q13 16 34 16q15 0 32 -14q16 -16 16 -34q0 -20 -14 -34 t-34 -14q-15 0 -32 14q-16 13 -16 34zM140 572q0 15 14 32q13 16 34 16q15 0 32 -14q16 -16 16 -34q0 -20 -14 -34t-34 -14q-15 0 -32 14q-16 13 -16 34zM268 60q0 15 14 32q13 16 34 16q15 0 32 -14q16 -16 16 -34q0 -20 -14 -34t-34 -14q-15 0 -32 14q-16 13 -16 34z M268 316q0 15 14 32q13 16 34 16q15 0 32 -14q16 -16 16 -34q0 -20 -14 -34t-34 -14q-15 0 -32 14q-16 13 -16 34zM268 572q0 15 14 32q13 16 34 16q15 0 32 -14q16 -16 16 -34q0 -20 -14 -34t-34 -14q-15 0 -32 14q-16 13 -16 34zM280 828q0 13 10 24q12 12 26 12 q13 0 24 -10q12 -12 12 -26q0 -16 -10 -26q-11 -10 -26 -10q-13 0 -24 10q-12 12 -12 26zM396 60q0 15 14 32q13 16 34 16q15 0 32 -14q16 -16 16 -34q0 -20 -14 -34t-34 -14q-15 0 -32 14q-16 13 -16 34zM396 316q0 15 14 32q13 16 34 16q15 0 32 -14q16 -16 16 -34 q0 -20 -14 -34t-34 -14q-15 0 -32 14q-16 13 -16 34zM396 572q0 15 14 32q13 16 34 16q15 0 32 -14q16 -16 16 -34q0 -20 -14 -34t-34 -14q-15 0 -32 14q-16 13 -16 34zM408 956q0 13 10 24q12 12 26 12q13 0 24 -10q12 -12 12 -26q0 -16 -10 -26q-11 -10 -26 -10 q-13 0 -24 10q-12 12 -12 26zM524 444q0 15 14 32q13 16 34 16q15 0 32 -14q16 -16 16 -34q0 -20 -14 -34t-34 -14q-15 0 -32 14q-16 13 -16 34z" />
<glyph unicode="&#xea;" d="M12 188q0 15 14 32q13 16 34 16q15 0 32 -14q16 -16 16 -34q0 -20 -14 -34t-34 -14q-15 0 -32 14q-16 13 -16 34zM12 316q0 15 14 32q13 16 34 16q15 0 32 -14q16 -16 16 -34q0 -20 -14 -34t-34 -14q-15 0 -32 14q-16 13 -16 34zM12 444q0 15 14 32q13 16 34 16 q15 0 32 -14q16 -16 16 -34q0 -20 -14 -34t-34 -14q-15 0 -32 14q-16 13 -16 34zM140 60q0 15 14 32q13 16 34 16q15 0 32 -14q16 -16 16 -34q0 -20 -14 -34t-34 -14q-15 0 -32 14q-16 13 -16 34zM140 316q0 15 14 32q13 16 34 16q15 0 32 -14q16 -16 16 -34q0 -20 -14 -34 t-34 -14q-15 0 -32 14q-16 13 -16 34zM140 572q0 15 14 32q13 16 34 16q15 0 32 -14q16 -16 16 -34q0 -20 -14 -34t-34 -14q-15 0 -32 14q-16 13 -16 34zM152 828q0 13 10 24q12 12 26 12q13 0 24 -10q12 -12 12 -26q0 -16 -10 -26q-11 -10 -26 -10q-13 0 -24 10 q-12 12 -12 26zM268 60q0 15 14 32q13 16 34 16q15 0 32 -14q16 -16 16 -34q0 -20 -14 -34t-34 -14q-15 0 -32 14q-16 13 -16 34zM268 316q0 15 14 32q13 16 34 16q15 0 32 -14q16 -16 16 -34q0 -20 -14 -34t-34 -14q-15 0 -32 14q-16 13 -16 34zM268 572q0 15 14 32 q13 16 34 16q15 0 32 -14q16 -16 16 -34q0 -20 -14 -34t-34 -14q-15 0 -32 14q-16 13 -16 34zM280 956q0 13 10 24q12 12 26 12q13 0 24 -10q12 -12 12 -26q0 -16 -10 -26q-11 -10 -26 -10q-13 0 -24 10q-12 12 -12 26zM396 60q0 15 14 32q13 16 34 16q15 0 32 -14 q16 -16 16 -34q0 -20 -14 -34t-34 -14q-15 0 -32 14q-16 13 -16 34zM396 316q0 15 14 32q13 16 34 16q15 0 32 -14q16 -16 16 -34q0 -20 -14 -34t-34 -14q-15 0 -32 14q-16 13 -16 34zM396 572q0 15 14 32q13 16 34 16q15 0 32 -14q16 -16 16 -34q0 -20 -14 -34t-34 -14 q-15 0 -32 14q-16 13 -16 34zM408 828q0 13 10 24q12 12 26 12q13 0 24 -10q12 -12 12 -26q0 -16 -10 -26q-11 -10 -26 -10q-13 0 -24 10q-12 12 -12 26zM524 444q0 15 14 32q13 16 34 16q15 0 32 -14q16 -16 16 -34q0 -20 -14 -34t-34 -14q-15 0 -32 14q-16 13 -16 34z" />
<glyph unicode="&#xeb;" d="M12 188q0 15 14 32q13 16 34 16q15 0 32 -14q16 -16 16 -34q0 -20 -14 -34t-34 -14q-15 0 -32 14q-16 13 -16 34zM12 316q0 15 14 32q13 16 34 16q15 0 32 -14q16 -16 16 -34q0 -20 -14 -34t-34 -14q-15 0 -32 14q-16 13 -16 34zM12 444q0 15 14 32q13 16 34 16 q15 0 32 -14q16 -16 16 -34q0 -20 -14 -34t-34 -14q-15 0 -32 14q-16 13 -16 34zM140 60q0 15 14 32q13 16 34 16q15 0 32 -14q16 -16 16 -34q0 -20 -14 -34t-34 -14q-15 0 -32 14q-16 13 -16 34zM140 316q0 15 14 32q13 16 34 16q15 0 32 -14q16 -16 16 -34q0 -20 -14 -34 t-34 -14q-15 0 -32 14q-16 13 -16 34zM140 572q0 15 14 32q13 16 34 16q15 0 32 -14q16 -16 16 -34q0 -20 -14 -34t-34 -14q-15 0 -32 14q-16 13 -16 34zM152 828q0 13 10 24q12 12 26 12q13 0 24 -10q12 -12 12 -26q0 -16 -10 -26q-11 -10 -26 -10q-13 0 -24 10 q-12 12 -12 26zM268 60q0 15 14 32q13 16 34 16q15 0 32 -14q16 -16 16 -34q0 -20 -14 -34t-34 -14q-15 0 -32 14q-16 13 -16 34zM268 316q0 15 14 32q13 16 34 16q15 0 32 -14q16 -16 16 -34q0 -20 -14 -34t-34 -14q-15 0 -32 14q-16 13 -16 34zM268 572q0 15 14 32 q13 16 34 16q15 0 32 -14q16 -16 16 -34q0 -20 -14 -34t-34 -14q-15 0 -32 14q-16 13 -16 34zM396 60q0 15 14 32q13 16 34 16q15 0 32 -14q16 -16 16 -34q0 -20 -14 -34t-34 -14q-15 0 -32 14q-16 13 -16 34zM396 316q0 15 14 32q13 16 34 16q15 0 32 -14q16 -16 16 -34 q0 -20 -14 -34t-34 -14q-15 0 -32 14q-16 13 -16 34zM396 572q0 15 14 32q13 16 34 16q15 0 32 -14q16 -16 16 -34q0 -20 -14 -34t-34 -14q-15 0 -32 14q-16 13 -16 34zM408 828q0 13 10 24q12 12 26 12q13 0 24 -10q12 -12 12 -26q0 -16 -10 -26q-11 -10 -26 -10 q-13 0 -24 10q-12 12 -12 26zM524 444q0 15 14 32q13 16 34 16q15 0 32 -14q16 -16 16 -34q0 -20 -14 -34t-34 -14q-15 0 -32 14q-16 13 -16 34z" />
</font>
</defs>
</svg>
